<svg width="310" height="107" viewBox="0 0 310 107" fill="none" xmlns="http://www.w3.org/2000/svg">
<rect width="310" height="107" rx="18" fill="#E0E7FF"/>
<path d="M21 42.82H47V16.82H21V42.82Z" fill="black"/>
<path d="M59.532 39L64.567 25.32H66.695L61.964 39H59.532ZM69.849 39L65.137 25.32H67.379L72.395 39H69.849ZM62.135 33.623H69.621V35.599H62.135V33.623ZM74.2076 39V25.32H76.6016V39H74.2076ZM79.1431 39V25.32H81.5371V39H79.1431ZM87.7525 39V29.31H90.1465V39H87.7525ZM87.6385 27.714V25.073H90.2415V27.714H87.6385ZM92.688 39V29.31H95.025V31.59H95.082V39H92.688ZM99.49 39V32.882C99.49 32.2867 99.338 31.837 99.034 31.533C98.73 31.229 98.2867 31.077 97.704 31.077C97.1974 31.077 96.7414 31.191 96.336 31.419C95.9434 31.647 95.633 31.9637 95.405 32.369C95.1897 32.7743 95.082 33.243 95.082 33.775L94.835 31.457C95.1644 30.7477 95.6457 30.184 96.279 29.766C96.9124 29.3353 97.6724 29.12 98.559 29.12C99.6104 29.12 100.427 29.4177 101.01 30.013C101.605 30.6083 101.903 31.4 101.903 32.388V39H99.49ZM108.521 39.19C107.545 39.19 106.684 38.9747 105.937 38.544C105.202 38.1133 104.619 37.518 104.189 36.758C103.771 35.9853 103.562 35.1113 103.562 34.136C103.562 33.1607 103.771 32.2993 104.189 31.552C104.619 30.792 105.202 30.1967 105.937 29.766C106.684 29.3353 107.545 29.12 108.521 29.12C109.319 29.12 110.041 29.272 110.687 29.576C111.333 29.8673 111.865 30.2853 112.283 30.83C112.701 31.362 112.967 31.9827 113.081 32.692H110.782C110.642 32.1727 110.376 31.7673 109.984 31.476C109.591 31.1847 109.116 31.039 108.559 31.039C108.039 31.039 107.59 31.1657 107.21 31.419C106.842 31.6723 106.557 32.0333 106.355 32.502C106.152 32.9707 106.051 33.5153 106.051 34.136C106.051 34.7693 106.152 35.3203 106.355 35.789C106.557 36.2577 106.849 36.625 107.229 36.891C107.609 37.1443 108.052 37.271 108.559 37.271C109.116 37.271 109.591 37.1253 109.984 36.834C110.376 36.5427 110.642 36.1373 110.782 35.618H113.081C112.967 36.3273 112.694 36.9543 112.264 37.499C111.846 38.031 111.314 38.449 110.668 38.753C110.034 39.0443 109.319 39.19 108.521 39.19ZM114.805 39V25.32H117.199V39H114.805ZM122.876 39.19C122.204 39.19 121.622 39.0507 121.128 38.772C120.646 38.4807 120.273 38.088 120.007 37.594C119.753 37.1 119.627 36.5427 119.627 35.922V29.31H122.021V35.428C122.021 36.0233 122.166 36.473 122.458 36.777C122.762 37.081 123.186 37.233 123.731 37.233C124.225 37.233 124.655 37.119 125.023 36.891C125.403 36.663 125.7 36.3463 125.916 35.941C126.144 35.523 126.258 35.0543 126.258 34.535L126.505 36.853C126.188 37.5623 125.713 38.1323 125.08 38.563C124.459 38.981 123.724 39.19 122.876 39.19ZM126.334 39V36.72H126.258V29.31H128.671V39H126.334ZM134.82 39.19C133.477 39.19 132.407 38.9113 131.609 38.354C130.811 37.784 130.374 36.9987 130.298 35.998H132.483C132.546 36.492 132.78 36.8657 133.186 37.119C133.591 37.3723 134.136 37.499 134.82 37.499C135.44 37.499 135.903 37.404 136.207 37.214C136.523 37.0113 136.682 36.7263 136.682 36.359C136.682 36.093 136.593 35.8777 136.416 35.713C136.238 35.5357 135.903 35.39 135.409 35.276L133.851 34.915C132.787 34.687 131.995 34.3323 131.476 33.851C130.969 33.357 130.716 32.7427 130.716 32.008C130.716 31.1087 131.058 30.4057 131.742 29.899C132.438 29.3797 133.395 29.12 134.611 29.12C135.814 29.12 136.777 29.3797 137.499 29.899C138.233 30.4057 138.639 31.1087 138.715 32.008H136.53C136.466 31.6153 136.264 31.3177 135.922 31.115C135.592 30.9123 135.136 30.811 134.554 30.811C134.009 30.811 133.597 30.8997 133.319 31.077C133.04 31.2417 132.901 31.4887 132.901 31.818C132.901 32.0713 133.008 32.2867 133.224 32.464C133.439 32.6287 133.8 32.7743 134.307 32.901L135.979 33.281C136.929 33.4963 137.644 33.87 138.126 34.402C138.62 34.934 138.867 35.561 138.867 36.283C138.867 37.2077 138.512 37.9233 137.803 38.43C137.093 38.9367 136.099 39.19 134.82 39.19ZM140.559 39V29.31H142.953V39H140.559ZM140.445 27.714V25.073H143.048V27.714H140.445ZM148.044 39L144.168 29.31H146.752L149.849 38.221H148.576L151.673 29.31H154.181L150.286 39H148.044ZM159.605 39.19C158.579 39.19 157.68 38.9747 156.907 38.544C156.147 38.1133 155.552 37.518 155.121 36.758C154.703 35.998 154.494 35.124 154.494 34.136C154.494 33.148 154.703 32.2803 155.121 31.533C155.552 30.773 156.147 30.184 156.907 29.766C157.667 29.3353 158.554 29.12 159.567 29.12C160.53 29.12 161.366 29.3227 162.075 29.728C162.785 30.1207 163.336 30.678 163.728 31.4C164.121 32.122 164.317 32.9643 164.317 33.927C164.317 34.1043 164.311 34.269 164.298 34.421C164.286 34.573 164.267 34.725 164.241 34.877H155.976V33.205H162.398L161.904 33.661C161.904 32.749 161.695 32.065 161.277 31.609C160.859 31.153 160.277 30.925 159.529 30.925C158.719 30.925 158.073 31.2037 157.591 31.761C157.123 32.3183 156.888 33.1227 156.888 34.174C156.888 35.2127 157.123 36.0107 157.591 36.568C158.073 37.1127 158.75 37.385 159.624 37.385C160.131 37.385 160.574 37.29 160.954 37.1C161.334 36.91 161.613 36.6187 161.79 36.226H164.051C163.735 37.138 163.196 37.86 162.436 38.392C161.689 38.924 160.745 39.19 159.605 39.19ZM165.366 39V36.264H168.121V39H165.366Z" fill="#301457"/>
<path d="M25.692 73.12C25.092 73.12 24.536 73.012 24.024 72.796C23.512 72.572 23.068 72.264 22.692 71.872C22.324 71.472 22.036 71 21.828 70.456C21.62 69.912 21.516 69.316 21.516 68.668C21.516 68.02 21.616 67.428 21.816 66.892C22.024 66.348 22.312 65.88 22.68 65.488C23.056 65.088 23.5 64.78 24.012 64.564C24.524 64.348 25.08 64.24 25.68 64.24C26.352 64.24 26.956 64.376 27.492 64.648C28.028 64.912 28.464 65.288 28.8 65.776C29.144 66.264 29.356 66.832 29.436 67.48H28.188C28.084 66.8 27.808 66.272 27.36 65.896C26.92 65.512 26.364 65.32 25.692 65.32C25.124 65.32 24.62 65.46 24.18 65.74C23.748 66.012 23.412 66.4 23.172 66.904C22.932 67.4 22.812 67.988 22.812 68.668C22.812 69.34 22.932 69.932 23.172 70.444C23.42 70.948 23.76 71.34 24.192 71.62C24.624 71.9 25.124 72.04 25.692 72.04C26.364 72.04 26.924 71.852 27.372 71.476C27.828 71.092 28.104 70.56 28.2 69.88H29.46C29.372 70.536 29.156 71.108 28.812 71.596C28.468 72.076 28.028 72.452 27.492 72.724C26.964 72.988 26.364 73.12 25.692 73.12ZM30.8057 73V66.88H31.9937V68.404H32.0537V73H30.8057ZM32.0537 69.808L31.8977 68.356C32.0417 67.836 32.2897 67.44 32.6417 67.168C32.9937 66.896 33.4137 66.76 33.9017 66.76C34.0857 66.76 34.2137 66.776 34.2857 66.808V67.984C34.2457 67.968 34.1897 67.96 34.1177 67.96C34.0457 67.952 33.9577 67.948 33.8537 67.948C33.2537 67.948 32.8017 68.104 32.4977 68.416C32.2017 68.728 32.0537 69.192 32.0537 69.808ZM37.8637 73.12C37.2477 73.12 36.7037 72.984 36.2317 72.712C35.7677 72.44 35.4037 72.064 35.1397 71.584C34.8757 71.104 34.7437 70.552 34.7437 69.928C34.7437 69.296 34.8717 68.744 35.1277 68.272C35.3917 67.792 35.7597 67.42 36.2317 67.156C36.7037 66.892 37.2437 66.76 37.8517 66.76C38.4437 66.76 38.9557 66.888 39.3877 67.144C39.8277 67.392 40.1637 67.74 40.3957 68.188C40.6357 68.636 40.7557 69.168 40.7557 69.784C40.7557 69.88 40.7517 69.972 40.7437 70.06C40.7437 70.14 40.7357 70.224 40.7197 70.312H35.5837V69.376H39.8437L39.5317 69.748C39.5317 69.092 39.3837 68.592 39.0877 68.248C38.7917 67.904 38.3797 67.732 37.8517 67.732C37.2837 67.732 36.8317 67.928 36.4957 68.32C36.1677 68.704 36.0037 69.24 36.0037 69.928C36.0037 70.624 36.1677 71.168 36.4957 71.56C36.8317 71.952 37.2957 72.148 37.8877 72.148C38.2477 72.148 38.5597 72.076 38.8237 71.932C39.0877 71.78 39.2837 71.56 39.4117 71.272H40.5877C40.3877 71.848 40.0477 72.3 39.5677 72.628C39.0957 72.956 38.5277 73.12 37.8637 73.12ZM45.7539 73C45.7139 72.848 45.6859 72.68 45.6699 72.496C45.6619 72.312 45.6579 72.088 45.6579 71.824H45.5979V68.908C45.5979 68.516 45.4979 68.224 45.2979 68.032C45.1059 67.832 44.7979 67.732 44.3739 67.732C43.9659 67.732 43.6379 67.812 43.3899 67.972C43.1499 68.132 43.0099 68.36 42.9699 68.656H41.7819C41.8379 68.08 42.0979 67.62 42.5619 67.276C43.0259 66.932 43.6459 66.76 44.4219 66.76C45.2219 66.76 45.8219 66.948 46.2219 67.324C46.6219 67.692 46.8219 68.236 46.8219 68.956V71.824C46.8219 72.008 46.8339 72.196 46.8579 72.388C46.8819 72.58 46.9179 72.784 46.9659 73H45.7539ZM43.6419 73.12C43.0179 73.12 42.5219 72.968 42.1539 72.664C41.7859 72.352 41.6019 71.932 41.6019 71.404C41.6019 70.86 41.7939 70.432 42.1779 70.12C42.5699 69.8 43.1299 69.584 43.8579 69.472L45.8739 69.148V70.024L44.0499 70.312C43.6419 70.376 43.3339 70.484 43.1259 70.636C42.9259 70.788 42.8259 71.008 42.8259 71.296C42.8259 71.576 42.9179 71.788 43.1019 71.932C43.2939 72.068 43.5699 72.136 43.9299 72.136C44.4099 72.136 44.8059 72.02 45.1179 71.788C45.4379 71.556 45.5979 71.264 45.5979 70.912L45.7539 71.8C45.6099 72.224 45.3539 72.552 44.9859 72.784C44.6179 73.008 44.1699 73.12 43.6419 73.12ZM50.8706 73.12C50.1586 73.12 49.6346 72.956 49.2986 72.628C48.9706 72.292 48.8066 71.8 48.8066 71.152V65.476L50.0426 65.008V71.164C50.0426 71.484 50.1266 71.72 50.2946 71.872C50.4626 72.024 50.7346 72.1 51.1106 72.1C51.2546 72.1 51.3826 72.088 51.4946 72.064C51.6066 72.04 51.7026 72.012 51.7826 71.98V72.988C51.6946 73.028 51.5706 73.06 51.4106 73.084C51.2506 73.108 51.0706 73.12 50.8706 73.12ZM47.5826 67.876V66.88H51.7826V67.876H47.5826ZM55.4535 73.12C54.8375 73.12 54.2935 72.984 53.8215 72.712C53.3575 72.44 52.9935 72.064 52.7295 71.584C52.4655 71.104 52.3335 70.552 52.3335 69.928C52.3335 69.296 52.4615 68.744 52.7175 68.272C52.9815 67.792 53.3495 67.42 53.8215 67.156C54.2935 66.892 54.8335 66.76 55.4415 66.76C56.0335 66.76 56.5455 66.888 56.9775 67.144C57.4175 67.392 57.7535 67.74 57.9855 68.188C58.2255 68.636 58.3455 69.168 58.3455 69.784C58.3455 69.88 58.3415 69.972 58.3335 70.06C58.3335 70.14 58.3255 70.224 58.3095 70.312H53.1735V69.376H57.4335L57.1215 69.748C57.1215 69.092 56.9735 68.592 56.6775 68.248C56.3815 67.904 55.9695 67.732 55.4415 67.732C54.8735 67.732 54.4215 67.928 54.0855 68.32C53.7575 68.704 53.5935 69.24 53.5935 69.928C53.5935 70.624 53.7575 71.168 54.0855 71.56C54.4215 71.952 54.8855 72.148 55.4775 72.148C55.8375 72.148 56.1495 72.076 56.4135 71.932C56.6775 71.78 56.8735 71.56 57.0015 71.272H58.1775C57.9775 71.848 57.6375 72.3 57.1575 72.628C56.6855 72.956 56.1175 73.12 55.4535 73.12ZM63.2493 73L61.3773 66.88H62.6613L63.9333 71.8H63.7533L65.3013 66.88H66.3813L67.9293 71.8H67.7613L69.0213 66.88H70.2453L68.3733 73H67.2813L65.7333 68.164H65.9133L64.3413 73H63.2493ZM73.9228 73.12C73.2988 73.12 72.7508 72.984 72.2788 72.712C71.8068 72.432 71.4388 72.052 71.1748 71.572C70.9108 71.084 70.7788 70.532 70.7788 69.916C70.7788 69.292 70.9108 68.744 71.1748 68.272C71.4468 67.8 71.8148 67.432 72.2788 67.168C72.7508 66.896 73.2988 66.76 73.9228 66.76C74.5548 66.76 75.1068 66.896 75.5788 67.168C76.0508 67.432 76.4148 67.8 76.6708 68.272C76.9348 68.744 77.0668 69.292 77.0668 69.916C77.0668 70.532 76.9348 71.084 76.6708 71.572C76.4148 72.052 76.0508 72.432 75.5788 72.712C75.1068 72.984 74.5548 73.12 73.9228 73.12ZM73.9228 72.1C74.2988 72.1 74.6228 72.008 74.8948 71.824C75.1748 71.64 75.3948 71.384 75.5548 71.056C75.7148 70.728 75.7948 70.344 75.7948 69.904C75.7948 69.248 75.6188 68.732 75.2668 68.356C74.9228 67.972 74.4748 67.78 73.9228 67.78C73.3788 67.78 72.9308 67.972 72.5788 68.356C72.2348 68.74 72.0628 69.256 72.0628 69.904C72.0628 70.344 72.1388 70.728 72.2908 71.056C72.4508 71.384 72.6708 71.64 72.9508 71.824C73.2388 72.008 73.5628 72.1 73.9228 72.1ZM78.3487 73V66.88H79.5367V68.404H79.5967V73H78.3487ZM79.5967 69.808L79.4407 68.356C79.5847 67.836 79.8327 67.44 80.1847 67.168C80.5367 66.896 80.9567 66.76 81.4447 66.76C81.6287 66.76 81.7567 66.776 81.8287 66.808V67.984C81.7887 67.968 81.7327 67.96 81.6607 67.96C81.5887 67.952 81.5007 67.948 81.3967 67.948C80.7967 67.948 80.3447 68.104 80.0407 68.416C79.7447 68.728 79.5967 69.192 79.5967 69.808ZM82.9424 73V64.204H84.1904V73H82.9424ZM86.9144 73L83.9024 69.82L86.8184 66.88H88.3904L85.0784 70.096L85.1384 69.532L88.5104 73H86.9144ZM94.5244 73.12C93.9004 73.12 93.3524 72.984 92.8804 72.712C92.4084 72.432 92.0404 72.052 91.7764 71.572C91.5124 71.084 91.3804 70.532 91.3804 69.916C91.3804 69.292 91.5124 68.744 91.7764 68.272C92.0484 67.8 92.4164 67.432 92.8804 67.168C93.3524 66.896 93.9004 66.76 94.5244 66.76C95.1564 66.76 95.7084 66.896 96.1804 67.168C96.6524 67.432 97.0164 67.8 97.2724 68.272C97.5364 68.744 97.6684 69.292 97.6684 69.916C97.6684 70.532 97.5364 71.084 97.2724 71.572C97.0164 72.052 96.6524 72.432 96.1804 72.712C95.7084 72.984 95.1564 73.12 94.5244 73.12ZM94.5244 72.1C94.9004 72.1 95.2244 72.008 95.4964 71.824C95.7764 71.64 95.9964 71.384 96.1564 71.056C96.3164 70.728 96.3964 70.344 96.3964 69.904C96.3964 69.248 96.2204 68.732 95.8684 68.356C95.5244 67.972 95.0764 67.78 94.5244 67.78C93.9804 67.78 93.5324 67.972 93.1804 68.356C92.8364 68.74 92.6644 69.256 92.6644 69.904C92.6644 70.344 92.7404 70.728 92.8924 71.056C93.0524 71.384 93.2724 71.64 93.5524 71.824C93.8404 72.008 94.1644 72.1 94.5244 72.1ZM98.9502 73V66.88H100.138V68.404H100.198V73H98.9502ZM100.198 69.808L100.042 68.356C100.186 67.836 100.434 67.44 100.786 67.168C101.138 66.896 101.558 66.76 102.046 66.76C102.23 66.76 102.358 66.776 102.43 66.808V67.984C102.39 67.968 102.334 67.96 102.262 67.96C102.19 67.952 102.102 67.948 101.998 67.948C101.398 67.948 100.946 68.104 100.642 68.416C100.346 68.728 100.198 69.192 100.198 69.808ZM107.796 73V71.596L107.916 71.632C107.788 72.088 107.524 72.452 107.124 72.724C106.724 72.988 106.244 73.12 105.684 73.12C105.132 73.12 104.648 72.988 104.232 72.724C103.824 72.46 103.504 72.092 103.272 71.62C103.048 71.148 102.936 70.596 102.936 69.964C102.936 69.324 103.052 68.764 103.284 68.284C103.516 67.804 103.84 67.432 104.256 67.168C104.672 66.904 105.16 66.772 105.72 66.772C106.304 66.772 106.784 66.912 107.16 67.192C107.544 67.464 107.796 67.848 107.916 68.344L107.748 68.368V64.36H108.984V73H107.796ZM105.996 72.076C106.548 72.076 106.984 71.888 107.304 71.512C107.624 71.128 107.784 70.6 107.784 69.928C107.784 69.272 107.62 68.756 107.292 68.38C106.972 67.996 106.536 67.804 105.984 67.804C105.44 67.804 105.008 67.996 104.688 68.38C104.376 68.756 104.22 69.284 104.22 69.964C104.22 70.628 104.376 71.148 104.688 71.524C105.008 71.892 105.444 72.076 105.996 72.076ZM113.379 73.12C112.763 73.12 112.219 72.984 111.747 72.712C111.283 72.44 110.919 72.064 110.655 71.584C110.391 71.104 110.259 70.552 110.259 69.928C110.259 69.296 110.387 68.744 110.643 68.272C110.907 67.792 111.275 67.42 111.747 67.156C112.219 66.892 112.759 66.76 113.367 66.76C113.959 66.76 114.471 66.888 114.903 67.144C115.343 67.392 115.679 67.74 115.911 68.188C116.151 68.636 116.271 69.168 116.271 69.784C116.271 69.88 116.267 69.972 116.259 70.06C116.259 70.14 116.251 70.224 116.235 70.312H111.099V69.376H115.359L115.047 69.748C115.047 69.092 114.899 68.592 114.603 68.248C114.307 67.904 113.895 67.732 113.367 67.732C112.799 67.732 112.347 67.928 112.011 68.32C111.683 68.704 111.519 69.24 111.519 69.928C111.519 70.624 111.683 71.168 112.011 71.56C112.347 71.952 112.811 72.148 113.403 72.148C113.763 72.148 114.075 72.076 114.339 71.932C114.603 71.78 114.799 71.56 114.927 71.272H116.103C115.903 71.848 115.563 72.3 115.083 72.628C114.611 72.956 114.043 73.12 113.379 73.12ZM117.548 73V66.88H118.736V68.404H118.796V73H117.548ZM118.796 69.808L118.64 68.356C118.784 67.836 119.032 67.44 119.384 67.168C119.736 66.896 120.156 66.76 120.644 66.76C120.828 66.76 120.956 66.776 121.028 66.808V67.984C120.988 67.968 120.932 67.96 120.86 67.96C120.788 67.952 120.7 67.948 120.596 67.948C119.996 67.948 119.544 68.104 119.24 68.416C118.944 68.728 118.796 69.192 118.796 69.808ZM124.209 73.12C123.409 73.12 122.773 72.944 122.301 72.592C121.829 72.24 121.561 71.744 121.497 71.104H122.649C122.705 71.456 122.865 71.728 123.129 71.92C123.401 72.104 123.769 72.196 124.233 72.196C124.641 72.196 124.953 72.124 125.169 71.98C125.385 71.836 125.493 71.632 125.493 71.368C125.493 71.176 125.429 71.016 125.301 70.888C125.181 70.752 124.941 70.64 124.581 70.552L123.597 70.324C122.981 70.172 122.521 69.948 122.217 69.652C121.921 69.348 121.773 68.976 121.773 68.536C121.773 67.984 121.977 67.552 122.385 67.24C122.801 66.92 123.369 66.76 124.089 66.76C124.801 66.76 125.373 66.92 125.805 67.24C126.245 67.56 126.493 68.008 126.549 68.584H125.397C125.349 68.296 125.209 68.076 124.977 67.924C124.753 67.764 124.445 67.684 124.053 67.684C123.685 67.684 123.401 67.752 123.201 67.888C123.009 68.016 122.913 68.196 122.913 68.428C122.913 68.62 122.985 68.78 123.129 68.908C123.281 69.036 123.529 69.144 123.873 69.232L124.881 69.484C125.465 69.628 125.905 69.864 126.201 70.192C126.497 70.512 126.645 70.9 126.645 71.356C126.645 71.908 126.429 72.34 125.997 72.652C125.573 72.964 124.977 73.12 124.209 73.12ZM127.52 74.824V74.2C127.8 74.104 127.992 73.956 128.096 73.756C128.208 73.564 128.264 73.284 128.264 72.916L128.756 73H127.508V71.524H128.984V72.64C128.984 73.192 128.868 73.656 128.636 74.032C128.412 74.408 128.04 74.672 127.52 74.824ZM136.867 73C136.827 72.848 136.799 72.68 136.783 72.496C136.775 72.312 136.771 72.088 136.771 71.824H136.711V68.908C136.711 68.516 136.611 68.224 136.411 68.032C136.219 67.832 135.911 67.732 135.487 67.732C135.079 67.732 134.751 67.812 134.503 67.972C134.263 68.132 134.123 68.36 134.083 68.656H132.895C132.951 68.08 133.211 67.62 133.675 67.276C134.139 66.932 134.759 66.76 135.535 66.76C136.335 66.76 136.935 66.948 137.335 67.324C137.735 67.692 137.935 68.236 137.935 68.956V71.824C137.935 72.008 137.947 72.196 137.971 72.388C137.995 72.58 138.031 72.784 138.079 73H136.867ZM134.755 73.12C134.131 73.12 133.635 72.968 133.267 72.664C132.899 72.352 132.715 71.932 132.715 71.404C132.715 70.86 132.907 70.432 133.291 70.12C133.683 69.8 134.243 69.584 134.971 69.472L136.987 69.148V70.024L135.163 70.312C134.755 70.376 134.447 70.484 134.239 70.636C134.039 70.788 133.939 71.008 133.939 71.296C133.939 71.576 134.031 71.788 134.215 71.932C134.407 72.068 134.683 72.136 135.043 72.136C135.523 72.136 135.919 72.02 136.231 71.788C136.551 71.556 136.711 71.264 136.711 70.912L136.867 71.8C136.723 72.224 136.467 72.552 136.099 72.784C135.731 73.008 135.283 73.12 134.755 73.12ZM141.764 73.12C140.964 73.12 140.328 72.944 139.856 72.592C139.384 72.24 139.116 71.744 139.052 71.104H140.204C140.26 71.456 140.42 71.728 140.684 71.92C140.956 72.104 141.324 72.196 141.788 72.196C142.196 72.196 142.508 72.124 142.724 71.98C142.94 71.836 143.048 71.632 143.048 71.368C143.048 71.176 142.984 71.016 142.856 70.888C142.736 70.752 142.496 70.64 142.136 70.552L141.152 70.324C140.536 70.172 140.076 69.948 139.772 69.652C139.476 69.348 139.328 68.976 139.328 68.536C139.328 67.984 139.532 67.552 139.94 67.24C140.356 66.92 140.924 66.76 141.644 66.76C142.356 66.76 142.928 66.92 143.36 67.24C143.8 67.56 144.048 68.008 144.104 68.584H142.952C142.904 68.296 142.764 68.076 142.532 67.924C142.308 67.764 142 67.684 141.608 67.684C141.24 67.684 140.956 67.752 140.756 67.888C140.564 68.016 140.468 68.196 140.468 68.428C140.468 68.62 140.54 68.78 140.684 68.908C140.836 69.036 141.084 69.144 141.428 69.232L142.436 69.484C143.02 69.628 143.46 69.864 143.756 70.192C144.052 70.512 144.2 70.9 144.2 71.356C144.2 71.908 143.984 72.34 143.552 72.652C143.128 72.964 142.532 73.12 141.764 73.12ZM147.67 73.12C146.87 73.12 146.234 72.944 145.762 72.592C145.29 72.24 145.022 71.744 144.958 71.104H146.11C146.166 71.456 146.326 71.728 146.59 71.92C146.862 72.104 147.23 72.196 147.694 72.196C148.102 72.196 148.414 72.124 148.63 71.98C148.846 71.836 148.954 71.632 148.954 71.368C148.954 71.176 148.89 71.016 148.762 70.888C148.642 70.752 148.402 70.64 148.042 70.552L147.058 70.324C146.442 70.172 145.982 69.948 145.678 69.652C145.382 69.348 145.234 68.976 145.234 68.536C145.234 67.984 145.438 67.552 145.846 67.24C146.262 66.92 146.83 66.76 147.55 66.76C148.262 66.76 148.834 66.92 149.266 67.24C149.706 67.56 149.954 68.008 150.01 68.584H148.858C148.81 68.296 148.67 68.076 148.438 67.924C148.214 67.764 147.906 67.684 147.514 67.684C147.146 67.684 146.862 67.752 146.662 67.888C146.47 68.016 146.374 68.196 146.374 68.428C146.374 68.62 146.446 68.78 146.59 68.908C146.742 69.036 146.99 69.144 147.334 69.232L148.342 69.484C148.926 69.628 149.366 69.864 149.662 70.192C149.958 70.512 150.106 70.9 150.106 71.356C150.106 71.908 149.89 72.34 149.458 72.652C149.034 72.964 148.438 73.12 147.67 73.12ZM151.321 73V66.88H152.569V73H151.321ZM151.261 65.68V64.276H152.641V65.68H151.261ZM156.854 75.58C156.086 75.58 155.45 75.404 154.946 75.052C154.45 74.708 154.15 74.248 154.046 73.672H155.222C155.302 73.936 155.478 74.144 155.75 74.296C156.03 74.448 156.402 74.524 156.866 74.524C157.466 74.524 157.914 74.376 158.21 74.08C158.506 73.784 158.654 73.344 158.654 72.76V71.44L158.762 71.464C158.642 71.928 158.382 72.296 157.982 72.568C157.582 72.832 157.102 72.964 156.542 72.964C156.006 72.964 155.534 72.836 155.126 72.58C154.718 72.324 154.402 71.968 154.178 71.512C153.954 71.048 153.842 70.508 153.842 69.892C153.842 69.268 153.958 68.72 154.19 68.248C154.422 67.776 154.746 67.412 155.162 67.156C155.586 66.9 156.078 66.772 156.638 66.772C157.214 66.772 157.69 66.912 158.066 67.192C158.45 67.464 158.694 67.852 158.798 68.356L158.702 68.368V66.88H159.89V72.748C159.89 73.628 159.618 74.32 159.074 74.824C158.538 75.328 157.798 75.58 156.854 75.58ZM156.914 71.956C157.45 71.956 157.878 71.768 158.198 71.392C158.526 71.016 158.69 70.5 158.69 69.844C158.69 69.204 158.526 68.7 158.198 68.332C157.878 67.964 157.446 67.78 156.902 67.78C156.358 67.78 155.926 67.968 155.606 68.344C155.286 68.712 155.126 69.224 155.126 69.88C155.126 70.52 155.286 71.028 155.606 71.404C155.934 71.772 156.37 71.956 156.914 71.956ZM161.646 73V66.88H162.834V68.32H162.894V73H161.646ZM165.99 73V69.064C165.99 68.64 165.882 68.324 165.666 68.116C165.458 67.908 165.146 67.804 164.73 67.804C164.37 67.804 164.05 67.884 163.77 68.044C163.498 68.204 163.282 68.424 163.122 68.704C162.97 68.984 162.894 69.316 162.894 69.7L162.738 68.236C162.938 67.78 163.246 67.42 163.662 67.156C164.078 66.892 164.562 66.76 165.114 66.76C165.77 66.76 166.286 66.944 166.662 67.312C167.038 67.68 167.226 68.168 167.226 68.776V73H165.99ZM173.834 73.12C173.25 73.12 172.73 72.984 172.274 72.712C171.818 72.432 171.458 72.052 171.194 71.572C170.938 71.092 170.81 70.544 170.81 69.928C170.81 69.312 170.938 68.768 171.194 68.296C171.458 67.816 171.818 67.44 172.274 67.168C172.73 66.896 173.246 66.76 173.822 66.76C174.31 66.76 174.746 66.852 175.13 67.036C175.514 67.22 175.83 67.476 176.078 67.804C176.326 68.132 176.486 68.52 176.558 68.968H175.382C175.302 68.608 175.126 68.32 174.854 68.104C174.59 67.888 174.254 67.78 173.846 67.78C173.494 67.78 173.186 67.868 172.922 68.044C172.658 68.22 172.454 68.468 172.31 68.788C172.166 69.108 172.094 69.488 172.094 69.928C172.094 70.36 172.166 70.74 172.31 71.068C172.454 71.396 172.658 71.652 172.922 71.836C173.186 72.012 173.498 72.1 173.858 72.1C174.25 72.1 174.582 71.996 174.854 71.788C175.134 71.572 175.314 71.284 175.394 70.924H176.57C176.49 71.364 176.322 71.748 176.066 72.076C175.818 72.404 175.502 72.66 175.118 72.844C174.734 73.028 174.306 73.12 173.834 73.12ZM180.446 73.12C179.822 73.12 179.274 72.984 178.802 72.712C178.33 72.432 177.962 72.052 177.698 71.572C177.434 71.084 177.302 70.532 177.302 69.916C177.302 69.292 177.434 68.744 177.698 68.272C177.97 67.8 178.338 67.432 178.802 67.168C179.274 66.896 179.822 66.76 180.446 66.76C181.078 66.76 181.63 66.896 182.102 67.168C182.574 67.432 182.938 67.8 183.194 68.272C183.458 68.744 183.59 69.292 183.59 69.916C183.59 70.532 183.458 71.084 183.194 71.572C182.938 72.052 182.574 72.432 182.102 72.712C181.63 72.984 181.078 73.12 180.446 73.12ZM180.446 72.1C180.822 72.1 181.146 72.008 181.418 71.824C181.698 71.64 181.918 71.384 182.078 71.056C182.238 70.728 182.318 70.344 182.318 69.904C182.318 69.248 182.142 68.732 181.79 68.356C181.446 67.972 180.998 67.78 180.446 67.78C179.902 67.78 179.454 67.972 179.102 68.356C178.758 68.74 178.586 69.256 178.586 69.904C178.586 70.344 178.662 70.728 178.814 71.056C178.974 71.384 179.194 71.64 179.474 71.824C179.762 72.008 180.086 72.1 180.446 72.1ZM184.872 73V66.88H186.06V68.32H186.12V73H184.872ZM189.216 73V69.064C189.216 68.64 189.108 68.324 188.892 68.116C188.684 67.908 188.372 67.804 187.956 67.804C187.596 67.804 187.276 67.884 186.996 68.044C186.724 68.204 186.508 68.424 186.348 68.704C186.196 68.984 186.12 69.316 186.12 69.7L185.964 68.236C186.164 67.78 186.472 67.42 186.888 67.156C187.304 66.892 187.788 66.76 188.34 66.76C188.996 66.76 189.512 66.944 189.888 67.312C190.264 67.68 190.452 68.168 190.452 68.776V73H189.216ZM194.554 73.12C193.842 73.12 193.318 72.956 192.982 72.628C192.654 72.292 192.49 71.8 192.49 71.152V65.476L193.726 65.008V71.164C193.726 71.484 193.81 71.72 193.978 71.872C194.146 72.024 194.418 72.1 194.794 72.1C194.938 72.1 195.066 72.088 195.178 72.064C195.29 72.04 195.386 72.012 195.466 71.98V72.988C195.378 73.028 195.254 73.06 195.094 73.084C194.934 73.108 194.754 73.12 194.554 73.12ZM191.266 67.876V66.88H195.466V67.876H191.266ZM196.649 73V66.88H197.837V68.404H197.897V73H196.649ZM197.897 69.808L197.741 68.356C197.885 67.836 198.133 67.44 198.485 67.168C198.837 66.896 199.257 66.76 199.745 66.76C199.929 66.76 200.057 66.776 200.129 66.808V67.984C200.089 67.968 200.033 67.96 199.961 67.96C199.889 67.952 199.801 67.948 199.697 67.948C199.097 67.948 198.645 68.104 198.341 68.416C198.045 68.728 197.897 69.192 197.897 69.808ZM204.848 73C204.808 72.848 204.78 72.68 204.764 72.496C204.756 72.312 204.752 72.088 204.752 71.824H204.692V68.908C204.692 68.516 204.592 68.224 204.392 68.032C204.2 67.832 203.892 67.732 203.468 67.732C203.06 67.732 202.732 67.812 202.484 67.972C202.244 68.132 202.104 68.36 202.064 68.656H200.876C200.932 68.08 201.192 67.62 201.656 67.276C202.12 66.932 202.74 66.76 203.516 66.76C204.316 66.76 204.916 66.948 205.316 67.324C205.716 67.692 205.916 68.236 205.916 68.956V71.824C205.916 72.008 205.928 72.196 205.952 72.388C205.976 72.58 206.012 72.784 206.06 73H204.848ZM202.736 73.12C202.112 73.12 201.616 72.968 201.248 72.664C200.88 72.352 200.696 71.932 200.696 71.404C200.696 70.86 200.888 70.432 201.272 70.12C201.664 69.8 202.224 69.584 202.952 69.472L204.968 69.148V70.024L203.144 70.312C202.736 70.376 202.428 70.484 202.22 70.636C202.02 70.788 201.92 71.008 201.92 71.296C201.92 71.576 202.012 71.788 202.196 71.932C202.388 72.068 202.664 72.136 203.024 72.136C203.504 72.136 203.9 72.02 204.212 71.788C204.532 71.556 204.692 71.264 204.692 70.912L204.848 71.8C204.704 72.224 204.448 72.552 204.08 72.784C203.712 73.008 203.264 73.12 202.736 73.12ZM210.104 73.12C209.52 73.12 209 72.984 208.544 72.712C208.088 72.432 207.728 72.052 207.464 71.572C207.208 71.092 207.08 70.544 207.08 69.928C207.08 69.312 207.208 68.768 207.464 68.296C207.728 67.816 208.088 67.44 208.544 67.168C209 66.896 209.516 66.76 210.092 66.76C210.58 66.76 211.016 66.852 211.4 67.036C211.784 67.22 212.1 67.476 212.348 67.804C212.596 68.132 212.756 68.52 212.828 68.968H211.652C211.572 68.608 211.396 68.32 211.124 68.104C210.86 67.888 210.524 67.78 210.116 67.78C209.764 67.78 209.456 67.868 209.192 68.044C208.928 68.22 208.724 68.468 208.58 68.788C208.436 69.108 208.364 69.488 208.364 69.928C208.364 70.36 208.436 70.74 208.58 71.068C208.724 71.396 208.928 71.652 209.192 71.836C209.456 72.012 209.768 72.1 210.128 72.1C210.52 72.1 210.852 71.996 211.124 71.788C211.404 71.572 211.584 71.284 211.664 70.924H212.84C212.76 71.364 212.592 71.748 212.336 72.076C212.088 72.404 211.772 72.66 211.388 72.844C211.004 73.028 210.576 73.12 210.104 73.12ZM216.632 73.12C215.92 73.12 215.396 72.956 215.06 72.628C214.732 72.292 214.568 71.8 214.568 71.152V65.476L215.804 65.008V71.164C215.804 71.484 215.888 71.72 216.056 71.872C216.224 72.024 216.496 72.1 216.872 72.1C217.016 72.1 217.144 72.088 217.256 72.064C217.368 72.04 217.464 72.012 217.544 71.98V72.988C217.456 73.028 217.332 73.06 217.172 73.084C217.012 73.108 216.832 73.12 216.632 73.12ZM213.344 67.876V66.88H217.544V67.876H213.344ZM221.228 73.12C220.604 73.12 220.056 72.984 219.584 72.712C219.112 72.432 218.744 72.052 218.479 71.572C218.215 71.084 218.083 70.532 218.083 69.916C218.083 69.292 218.215 68.744 218.479 68.272C218.752 67.8 219.12 67.432 219.584 67.168C220.056 66.896 220.604 66.76 221.228 66.76C221.86 66.76 222.412 66.896 222.884 67.168C223.356 67.432 223.72 67.8 223.976 68.272C224.24 68.744 224.372 69.292 224.372 69.916C224.372 70.532 224.24 71.084 223.976 71.572C223.72 72.052 223.356 72.432 222.884 72.712C222.412 72.984 221.86 73.12 221.228 73.12ZM221.228 72.1C221.604 72.1 221.928 72.008 222.2 71.824C222.48 71.64 222.7 71.384 222.86 71.056C223.02 70.728 223.1 70.344 223.1 69.904C223.1 69.248 222.924 68.732 222.572 68.356C222.228 67.972 221.78 67.78 221.228 67.78C220.684 67.78 220.236 67.972 219.884 68.356C219.54 68.74 219.368 69.256 219.368 69.904C219.368 70.344 219.444 70.728 219.596 71.056C219.756 71.384 219.976 71.64 220.256 71.824C220.544 72.008 220.868 72.1 221.228 72.1ZM225.653 73V66.88H226.841V68.404H226.901V73H225.653ZM226.901 69.808L226.745 68.356C226.889 67.836 227.137 67.44 227.489 67.168C227.841 66.896 228.261 66.76 228.749 66.76C228.933 66.76 229.061 66.776 229.133 66.808V67.984C229.093 67.968 229.037 67.96 228.965 67.96C228.893 67.952 228.805 67.948 228.701 67.948C228.101 67.948 227.649 68.104 227.345 68.416C227.049 68.728 226.901 69.192 226.901 69.808ZM232.314 73.12C231.514 73.12 230.878 72.944 230.406 72.592C229.934 72.24 229.666 71.744 229.602 71.104H230.754C230.81 71.456 230.97 71.728 231.234 71.92C231.506 72.104 231.874 72.196 232.338 72.196C232.746 72.196 233.058 72.124 233.274 71.98C233.49 71.836 233.598 71.632 233.598 71.368C233.598 71.176 233.534 71.016 233.406 70.888C233.286 70.752 233.046 70.64 232.686 70.552L231.702 70.324C231.086 70.172 230.626 69.948 230.322 69.652C230.026 69.348 229.878 68.976 229.878 68.536C229.878 67.984 230.082 67.552 230.49 67.24C230.906 66.92 231.474 66.76 232.194 66.76C232.906 66.76 233.478 66.92 233.91 67.24C234.35 67.56 234.598 68.008 234.654 68.584H233.502C233.454 68.296 233.314 68.076 233.082 67.924C232.858 67.764 232.55 67.684 232.158 67.684C231.79 67.684 231.506 67.752 231.306 67.888C231.114 68.016 231.018 68.196 231.018 68.428C231.018 68.62 231.09 68.78 231.234 68.908C231.386 69.036 231.634 69.144 231.978 69.232L232.986 69.484C233.57 69.628 234.01 69.864 234.306 70.192C234.602 70.512 234.75 70.9 234.75 71.356C234.75 71.908 234.534 72.34 234.102 72.652C233.678 72.964 233.082 73.12 232.314 73.12ZM235.626 74.824V74.2C235.906 74.104 236.098 73.956 236.202 73.756C236.314 73.564 236.37 73.284 236.37 72.916L236.862 73H235.614V71.524H237.09V72.64C237.09 73.192 236.974 73.656 236.742 74.032C236.518 74.408 236.146 74.672 235.626 74.824ZM243.785 73.12C243.073 73.12 242.549 72.956 242.213 72.628C241.885 72.292 241.721 71.8 241.721 71.152V65.476L242.957 65.008V71.164C242.957 71.484 243.041 71.72 243.209 71.872C243.377 72.024 243.649 72.1 244.025 72.1C244.169 72.1 244.297 72.088 244.409 72.064C244.521 72.04 244.617 72.012 244.697 71.98V72.988C244.609 73.028 244.485 73.06 244.325 73.084C244.165 73.108 243.985 73.12 243.785 73.12ZM240.497 67.876V66.88H244.697V67.876H240.497ZM245.88 73V66.88H247.068V68.404H247.128V73H245.88ZM247.128 69.808L246.972 68.356C247.116 67.836 247.364 67.44 247.716 67.168C248.068 66.896 248.488 66.76 248.976 66.76C249.16 66.76 249.288 66.776 249.36 66.808V67.984C249.32 67.968 249.264 67.96 249.192 67.96C249.12 67.952 249.032 67.948 248.928 67.948C248.328 67.948 247.876 68.104 247.572 68.416C247.276 68.728 247.128 69.192 247.128 69.808ZM254.078 73C254.038 72.848 254.01 72.68 253.994 72.496C253.986 72.312 253.982 72.088 253.982 71.824H253.922V68.908C253.922 68.516 253.822 68.224 253.622 68.032C253.43 67.832 253.122 67.732 252.698 67.732C252.29 67.732 251.962 67.812 251.714 67.972C251.474 68.132 251.334 68.36 251.294 68.656H250.106C250.162 68.08 250.422 67.62 250.886 67.276C251.35 66.932 251.97 66.76 252.746 66.76C253.546 66.76 254.146 66.948 254.546 67.324C254.946 67.692 255.146 68.236 255.146 68.956V71.824C255.146 72.008 255.158 72.196 255.182 72.388C255.206 72.58 255.242 72.784 255.29 73H254.078ZM251.966 73.12C251.342 73.12 250.846 72.968 250.478 72.664C250.11 72.352 249.926 71.932 249.926 71.404C249.926 70.86 250.118 70.432 250.502 70.12C250.894 69.8 251.454 69.584 252.182 69.472L254.198 69.148V70.024L252.374 70.312C251.966 70.376 251.658 70.484 251.45 70.636C251.25 70.788 251.15 71.008 251.15 71.296C251.15 71.576 251.242 71.788 251.426 71.932C251.618 72.068 251.894 72.136 252.254 72.136C252.734 72.136 253.13 72.02 253.442 71.788C253.762 71.556 253.922 71.264 253.922 70.912L254.078 71.8C253.934 72.224 253.678 72.552 253.31 72.784C252.942 73.008 252.494 73.12 251.966 73.12ZM259.334 73.12C258.75 73.12 258.23 72.984 257.774 72.712C257.318 72.432 256.958 72.052 256.694 71.572C256.438 71.092 256.31 70.544 256.31 69.928C256.31 69.312 256.438 68.768 256.694 68.296C256.958 67.816 257.318 67.44 257.774 67.168C258.23 66.896 258.746 66.76 259.322 66.76C259.81 66.76 260.246 66.852 260.63 67.036C261.014 67.22 261.33 67.476 261.578 67.804C261.826 68.132 261.986 68.52 262.058 68.968H260.882C260.802 68.608 260.626 68.32 260.354 68.104C260.09 67.888 259.754 67.78 259.346 67.78C258.994 67.78 258.686 67.868 258.422 68.044C258.158 68.22 257.954 68.468 257.81 68.788C257.666 69.108 257.594 69.488 257.594 69.928C257.594 70.36 257.666 70.74 257.81 71.068C257.954 71.396 258.158 71.652 258.422 71.836C258.686 72.012 258.998 72.1 259.358 72.1C259.75 72.1 260.082 71.996 260.354 71.788C260.634 71.572 260.814 71.284 260.894 70.924H262.07C261.99 71.364 261.822 71.748 261.566 72.076C261.318 72.404 261.002 72.66 260.618 72.844C260.234 73.028 259.806 73.12 259.334 73.12ZM263.306 73V64.204H264.554V73H263.306ZM267.278 73L264.266 69.82L267.182 66.88H268.754L265.442 70.096L265.502 69.532L268.874 73H267.278ZM25.14 88.108C24.564 88.108 24.084 87.972 23.7 87.7C23.324 87.42 23.076 87.032 22.956 86.536L23.124 86.512V90.46H21.876V81.88H23.064V83.284L22.944 83.248C23.072 82.784 23.344 82.42 23.76 82.156C24.176 81.892 24.664 81.76 25.224 81.76C25.776 81.76 26.252 81.892 26.652 82.156C27.06 82.42 27.372 82.788 27.588 83.26C27.812 83.732 27.924 84.284 27.924 84.916C27.924 85.556 27.808 86.116 27.576 86.596C27.344 87.076 27.02 87.448 26.604 87.712C26.188 87.976 25.7 88.108 25.14 88.108ZM24.876 87.076C25.42 87.076 25.852 86.884 26.172 86.5C26.492 86.116 26.652 85.588 26.652 84.916C26.652 84.252 26.492 83.736 26.172 83.368C25.852 82.992 25.416 82.804 24.864 82.804C24.32 82.804 23.884 82.996 23.556 83.38C23.236 83.756 23.076 84.28 23.076 84.952C23.076 85.608 23.236 86.128 23.556 86.512C23.884 86.888 24.324 87.076 24.876 87.076ZM29.2354 88V81.88H30.4234V83.404H30.4834V88H29.2354ZM30.4834 84.808L30.3274 83.356C30.4714 82.836 30.7194 82.44 31.0714 82.168C31.4234 81.896 31.8434 81.76 32.3314 81.76C32.5154 81.76 32.6434 81.776 32.7154 81.808V82.984C32.6754 82.968 32.6194 82.96 32.5474 82.96C32.4754 82.952 32.3874 82.948 32.2834 82.948C31.6834 82.948 31.2314 83.104 30.9274 83.416C30.6314 83.728 30.4834 84.192 30.4834 84.808ZM36.458 88.12C35.834 88.12 35.286 87.984 34.814 87.712C34.342 87.432 33.974 87.052 33.71 86.572C33.446 86.084 33.314 85.532 33.314 84.916C33.314 84.292 33.446 83.744 33.71 83.272C33.982 82.8 34.35 82.432 34.814 82.168C35.286 81.896 35.834 81.76 36.458 81.76C37.09 81.76 37.642 81.896 38.114 82.168C38.586 82.432 38.95 82.8 39.206 83.272C39.47 83.744 39.602 84.292 39.602 84.916C39.602 85.532 39.47 86.084 39.206 86.572C38.95 87.052 38.586 87.432 38.114 87.712C37.642 87.984 37.09 88.12 36.458 88.12ZM36.458 87.1C36.834 87.1 37.158 87.008 37.43 86.824C37.71 86.64 37.93 86.384 38.09 86.056C38.25 85.728 38.33 85.344 38.33 84.904C38.33 84.248 38.154 83.732 37.802 83.356C37.458 82.972 37.01 82.78 36.458 82.78C35.914 82.78 35.466 82.972 35.114 83.356C34.77 83.74 34.598 84.256 34.598 84.904C34.598 85.344 34.674 85.728 34.826 86.056C34.986 86.384 35.206 86.64 35.486 86.824C35.774 87.008 36.098 87.1 36.458 87.1ZM43.4753 90.58C42.7073 90.58 42.0713 90.404 41.5673 90.052C41.0713 89.708 40.7713 89.248 40.6673 88.672H41.8433C41.9233 88.936 42.0993 89.144 42.3713 89.296C42.6513 89.448 43.0233 89.524 43.4873 89.524C44.0873 89.524 44.5353 89.376 44.8313 89.08C45.1273 88.784 45.2753 88.344 45.2753 87.76V86.44L45.3833 86.464C45.2633 86.928 45.0033 87.296 44.6033 87.568C44.2033 87.832 43.7233 87.964 43.1633 87.964C42.6273 87.964 42.1553 87.836 41.7473 87.58C41.3393 87.324 41.0233 86.968 40.7993 86.512C40.5753 86.048 40.4633 85.508 40.4633 84.892C40.4633 84.268 40.5793 83.72 40.8113 83.248C41.0433 82.776 41.3673 82.412 41.7833 82.156C42.2073 81.9 42.6993 81.772 43.2593 81.772C43.8353 81.772 44.3113 81.912 44.6873 82.192C45.0713 82.464 45.3153 82.852 45.4193 83.356L45.3233 83.368V81.88H46.5113V87.748C46.5113 88.628 46.2393 89.32 45.6953 89.824C45.1593 90.328 44.4193 90.58 43.4753 90.58ZM43.5353 86.956C44.0713 86.956 44.4993 86.768 44.8193 86.392C45.1473 86.016 45.3113 85.5 45.3113 84.844C45.3113 84.204 45.1473 83.7 44.8193 83.332C44.4993 82.964 44.0673 82.78 43.5233 82.78C42.9793 82.78 42.5473 82.968 42.2273 83.344C41.9073 83.712 41.7473 84.224 41.7473 84.88C41.7473 85.52 41.9073 86.028 42.2273 86.404C42.5553 86.772 42.9913 86.956 43.5353 86.956ZM48.2666 88V81.88H49.4546V83.404H49.5146V88H48.2666ZM49.5146 84.808L49.3586 83.356C49.5026 82.836 49.7506 82.44 50.1026 82.168C50.4546 81.896 50.8746 81.76 51.3626 81.76C51.5466 81.76 51.6746 81.776 51.7466 81.808V82.984C51.7066 82.968 51.6506 82.96 51.5786 82.96C51.5066 82.952 51.4186 82.948 51.3146 82.948C50.7146 82.948 50.2626 83.104 49.9586 83.416C49.6626 83.728 49.5146 84.192 49.5146 84.808ZM55.3246 88.12C54.7086 88.12 54.1646 87.984 53.6926 87.712C53.2286 87.44 52.8646 87.064 52.6006 86.584C52.3366 86.104 52.2046 85.552 52.2046 84.928C52.2046 84.296 52.3326 83.744 52.5886 83.272C52.8526 82.792 53.2206 82.42 53.6926 82.156C54.1646 81.892 54.7046 81.76 55.3126 81.76C55.9046 81.76 56.4166 81.888 56.8486 82.144C57.2886 82.392 57.6246 82.74 57.8566 83.188C58.0966 83.636 58.2166 84.168 58.2166 84.784C58.2166 84.88 58.2126 84.972 58.2046 85.06C58.2046 85.14 58.1966 85.224 58.1806 85.312H53.0446V84.376H57.3046L56.9926 84.748C56.9926 84.092 56.8446 83.592 56.5486 83.248C56.2526 82.904 55.8406 82.732 55.3126 82.732C54.7446 82.732 54.2926 82.928 53.9566 83.32C53.6286 83.704 53.4646 84.24 53.4646 84.928C53.4646 85.624 53.6286 86.168 53.9566 86.56C54.2926 86.952 54.7566 87.148 55.3486 87.148C55.7086 87.148 56.0206 87.076 56.2846 86.932C56.5486 86.78 56.7446 86.56 56.8726 86.272H58.0486C57.8486 86.848 57.5086 87.3 57.0286 87.628C56.5566 87.956 55.9886 88.12 55.3246 88.12ZM61.7246 88.12C60.9246 88.12 60.2886 87.944 59.8166 87.592C59.3446 87.24 59.0766 86.744 59.0126 86.104H60.1646C60.2206 86.456 60.3806 86.728 60.6446 86.92C60.9166 87.104 61.2846 87.196 61.7486 87.196C62.1566 87.196 62.4686 87.124 62.6846 86.98C62.9006 86.836 63.0086 86.632 63.0086 86.368C63.0086 86.176 62.9446 86.016 62.8166 85.888C62.6966 85.752 62.4566 85.64 62.0966 85.552L61.1126 85.324C60.4966 85.172 60.0366 84.948 59.7326 84.652C59.4366 84.348 59.2886 83.976 59.2886 83.536C59.2886 82.984 59.4926 82.552 59.9006 82.24C60.3166 81.92 60.8846 81.76 61.6046 81.76C62.3166 81.76 62.8886 81.92 63.3206 82.24C63.7606 82.56 64.0086 83.008 64.0646 83.584H62.9126C62.8646 83.296 62.7246 83.076 62.4926 82.924C62.2686 82.764 61.9606 82.684 61.5686 82.684C61.2006 82.684 60.9166 82.752 60.7166 82.888C60.5246 83.016 60.4286 83.196 60.4286 83.428C60.4286 83.62 60.5006 83.78 60.6446 83.908C60.7966 84.036 61.0446 84.144 61.3886 84.232L62.3966 84.484C62.9806 84.628 63.4206 84.864 63.7166 85.192C64.0126 85.512 64.1606 85.9 64.1606 86.356C64.1606 86.908 63.9446 87.34 63.5126 87.652C63.0886 87.964 62.4926 88.12 61.7246 88.12ZM67.6309 88.12C66.8309 88.12 66.1949 87.944 65.7229 87.592C65.2509 87.24 64.9829 86.744 64.9189 86.104H66.0709C66.1269 86.456 66.2869 86.728 66.5509 86.92C66.8229 87.104 67.1909 87.196 67.6549 87.196C68.0629 87.196 68.3749 87.124 68.5909 86.98C68.8069 86.836 68.9149 86.632 68.9149 86.368C68.9149 86.176 68.8509 86.016 68.7229 85.888C68.6029 85.752 68.3629 85.64 68.0029 85.552L67.0189 85.324C66.4029 85.172 65.9429 84.948 65.6389 84.652C65.3429 84.348 65.1949 83.976 65.1949 83.536C65.1949 82.984 65.3989 82.552 65.8069 82.24C66.2229 81.92 66.7909 81.76 67.5109 81.76C68.2229 81.76 68.7949 81.92 69.2269 82.24C69.6669 82.56 69.9149 83.008 69.9709 83.584H68.8189C68.7709 83.296 68.6309 83.076 68.3989 82.924C68.1749 82.764 67.8669 82.684 67.4749 82.684C67.1069 82.684 66.8229 82.752 66.6229 82.888C66.4309 83.016 66.3349 83.196 66.3349 83.428C66.3349 83.62 66.4069 83.78 66.5509 83.908C66.7029 84.036 66.9509 84.144 67.2949 84.232L68.3029 84.484C68.8869 84.628 69.3269 84.864 69.6229 85.192C69.9189 85.512 70.0669 85.9 70.0669 86.356C70.0669 86.908 69.8509 87.34 69.4189 87.652C68.9949 87.964 68.3989 88.12 67.6309 88.12ZM70.9421 89.824V89.2C71.2221 89.104 71.4141 88.956 71.5181 88.756C71.6301 88.564 71.6861 88.284 71.6861 87.916L72.1781 88H70.9301V86.524H72.4061V87.64C72.4061 88.192 72.2901 88.656 72.0581 89.032C71.8341 89.408 71.4621 89.672 70.9421 89.824ZM80.2891 88C80.2491 87.848 80.2211 87.68 80.2051 87.496C80.1971 87.312 80.1931 87.088 80.1931 86.824H80.1331V83.908C80.1331 83.516 80.0331 83.224 79.8331 83.032C79.6411 82.832 79.3331 82.732 78.9091 82.732C78.5011 82.732 78.1731 82.812 77.9251 82.972C77.6851 83.132 77.5451 83.36 77.5051 83.656H76.3171C76.3731 83.08 76.6331 82.62 77.0971 82.276C77.5611 81.932 78.1811 81.76 78.9571 81.76C79.7571 81.76 80.3571 81.948 80.7571 82.324C81.1571 82.692 81.3571 83.236 81.3571 83.956V86.824C81.3571 87.008 81.3691 87.196 81.3931 87.388C81.4171 87.58 81.4531 87.784 81.5011 88H80.2891ZM78.1771 88.12C77.5531 88.12 77.0571 87.968 76.6891 87.664C76.3211 87.352 76.1371 86.932 76.1371 86.404C76.1371 85.86 76.3291 85.432 76.7131 85.12C77.1051 84.8 77.6651 84.584 78.3931 84.472L80.4091 84.148V85.024L78.5851 85.312C78.1771 85.376 77.8691 85.484 77.6611 85.636C77.4611 85.788 77.3611 86.008 77.3611 86.296C77.3611 86.576 77.4531 86.788 77.6371 86.932C77.8291 87.068 78.1051 87.136 78.4651 87.136C78.9451 87.136 79.3411 87.02 79.6531 86.788C79.9731 86.556 80.1331 86.264 80.1331 85.912L80.2891 86.8C80.1451 87.224 79.8891 87.552 79.5211 87.784C79.1531 88.008 78.7051 88.12 78.1771 88.12ZM83.0479 88V81.88H84.2359V83.32H84.2959V88H83.0479ZM87.3919 88V84.064C87.3919 83.64 87.2839 83.324 87.0679 83.116C86.8599 82.908 86.5479 82.804 86.1319 82.804C85.7719 82.804 85.4519 82.884 85.1719 83.044C84.8999 83.204 84.6839 83.424 84.5239 83.704C84.3719 83.984 84.2959 84.316 84.2959 84.7L84.1399 83.236C84.3399 82.78 84.6479 82.42 85.0639 82.156C85.4799 81.892 85.9639 81.76 86.5159 81.76C87.1719 81.76 87.6879 81.944 88.0639 82.312C88.4399 82.68 88.6279 83.168 88.6279 83.776V88H87.3919ZM94.7412 88V86.596L94.8612 86.632C94.7332 87.088 94.4692 87.452 94.0692 87.724C93.6692 87.988 93.1892 88.12 92.6292 88.12C92.0772 88.12 91.5932 87.988 91.1772 87.724C90.7692 87.46 90.4492 87.092 90.2172 86.62C89.9932 86.148 89.8812 85.596 89.8812 84.964C89.8812 84.324 89.9972 83.764 90.2292 83.284C90.4612 82.804 90.7852 82.432 91.2012 82.168C91.6172 81.904 92.1052 81.772 92.6652 81.772C93.2492 81.772 93.7292 81.912 94.1052 82.192C94.4892 82.464 94.7412 82.848 94.8612 83.344L94.6932 83.368V79.36H95.9292V88H94.7412ZM92.9412 87.076C93.4932 87.076 93.9292 86.888 94.2492 86.512C94.5692 86.128 94.7292 85.6 94.7292 84.928C94.7292 84.272 94.5652 83.756 94.2372 83.38C93.9172 82.996 93.4812 82.804 92.9292 82.804C92.3852 82.804 91.9532 82.996 91.6332 83.38C91.3212 83.756 91.1652 84.284 91.1652 84.964C91.1652 85.628 91.3212 86.148 91.6332 86.524C91.9532 86.892 92.3892 87.076 92.9412 87.076ZM103.844 88C103.804 87.848 103.776 87.68 103.76 87.496C103.752 87.312 103.748 87.088 103.748 86.824H103.688V83.908C103.688 83.516 103.588 83.224 103.388 83.032C103.196 82.832 102.888 82.732 102.464 82.732C102.056 82.732 101.728 82.812 101.48 82.972C101.24 83.132 101.1 83.36 101.06 83.656H99.8718C99.9278 83.08 100.188 82.62 100.652 82.276C101.116 81.932 101.736 81.76 102.512 81.76C103.312 81.76 103.912 81.948 104.312 82.324C104.712 82.692 104.912 83.236 104.912 83.956V86.824C104.912 87.008 104.924 87.196 104.948 87.388C104.972 87.58 105.008 87.784 105.056 88H103.844ZM101.732 88.12C101.108 88.12 100.612 87.968 100.244 87.664C99.8758 87.352 99.6918 86.932 99.6918 86.404C99.6918 85.86 99.8838 85.432 100.268 85.12C100.66 84.8 101.22 84.584 101.948 84.472L103.964 84.148V85.024L102.14 85.312C101.732 85.376 101.424 85.484 101.216 85.636C101.016 85.788 100.916 86.008 100.916 86.296C100.916 86.576 101.008 86.788 101.192 86.932C101.384 87.068 101.66 87.136 102.02 87.136C102.5 87.136 102.896 87.02 103.208 86.788C103.528 86.556 103.688 86.264 103.688 85.912L103.844 86.8C103.7 87.224 103.444 87.552 103.076 87.784C102.708 88.008 102.26 88.12 101.732 88.12ZM109.867 88.108C109.291 88.108 108.811 87.972 108.427 87.7C108.051 87.42 107.803 87.032 107.683 86.536L107.851 86.512V90.46H106.603V81.88H107.791V83.284L107.671 83.248C107.799 82.784 108.071 82.42 108.487 82.156C108.903 81.892 109.391 81.76 109.951 81.76C110.503 81.76 110.979 81.892 111.379 82.156C111.787 82.42 112.099 82.788 112.315 83.26C112.539 83.732 112.651 84.284 112.651 84.916C112.651 85.556 112.535 86.116 112.303 86.596C112.071 87.076 111.747 87.448 111.331 87.712C110.915 87.976 110.427 88.108 109.867 88.108ZM109.603 87.076C110.147 87.076 110.579 86.884 110.899 86.5C111.219 86.116 111.379 85.588 111.379 84.916C111.379 84.252 111.219 83.736 110.899 83.368C110.579 82.992 110.143 82.804 109.591 82.804C109.047 82.804 108.611 82.996 108.283 83.38C107.963 83.756 107.803 84.28 107.803 84.952C107.803 85.608 107.963 86.128 108.283 86.512C108.611 86.888 109.051 87.076 109.603 87.076ZM117.226 88.108C116.65 88.108 116.17 87.972 115.786 87.7C115.41 87.42 115.162 87.032 115.042 86.536L115.21 86.512V90.46H113.962V81.88H115.15V83.284L115.03 83.248C115.158 82.784 115.43 82.42 115.846 82.156C116.262 81.892 116.75 81.76 117.31 81.76C117.862 81.76 118.338 81.892 118.738 82.156C119.146 82.42 119.458 82.788 119.674 83.26C119.898 83.732 120.01 84.284 120.01 84.916C120.01 85.556 119.894 86.116 119.662 86.596C119.43 87.076 119.106 87.448 118.69 87.712C118.274 87.976 117.786 88.108 117.226 88.108ZM116.962 87.076C117.506 87.076 117.938 86.884 118.258 86.5C118.578 86.116 118.738 85.588 118.738 84.916C118.738 84.252 118.578 83.736 118.258 83.368C117.938 82.992 117.502 82.804 116.95 82.804C116.406 82.804 115.97 82.996 115.642 83.38C115.322 83.756 115.162 84.28 115.162 84.952C115.162 85.608 115.322 86.128 115.642 86.512C115.97 86.888 116.41 87.076 116.962 87.076ZM121.321 88V81.88H122.509V83.404H122.569V88H121.321ZM122.569 84.808L122.413 83.356C122.557 82.836 122.805 82.44 123.157 82.168C123.509 81.896 123.929 81.76 124.417 81.76C124.601 81.76 124.729 81.776 124.801 81.808V82.984C124.761 82.968 124.705 82.96 124.633 82.96C124.561 82.952 124.473 82.948 124.369 82.948C123.769 82.948 123.317 83.104 123.013 83.416C122.717 83.728 122.569 84.192 122.569 84.808ZM128.544 88.12C127.92 88.12 127.372 87.984 126.9 87.712C126.428 87.432 126.06 87.052 125.796 86.572C125.532 86.084 125.4 85.532 125.4 84.916C125.4 84.292 125.532 83.744 125.796 83.272C126.068 82.8 126.436 82.432 126.9 82.168C127.372 81.896 127.92 81.76 128.544 81.76C129.176 81.76 129.728 81.896 130.2 82.168C130.672 82.432 131.036 82.8 131.292 83.272C131.556 83.744 131.688 84.292 131.688 84.916C131.688 85.532 131.556 86.084 131.292 86.572C131.036 87.052 130.672 87.432 130.2 87.712C129.728 87.984 129.176 88.12 128.544 88.12ZM128.544 87.1C128.92 87.1 129.244 87.008 129.516 86.824C129.796 86.64 130.016 86.384 130.176 86.056C130.336 85.728 130.416 85.344 130.416 84.904C130.416 84.248 130.24 83.732 129.888 83.356C129.544 82.972 129.096 82.78 128.544 82.78C128 82.78 127.552 82.972 127.2 83.356C126.856 83.74 126.684 84.256 126.684 84.904C126.684 85.344 126.76 85.728 126.912 86.056C127.072 86.384 127.292 86.64 127.572 86.824C127.86 87.008 128.184 87.1 128.544 87.1ZM134.558 88L132.062 81.88H133.394L135.434 87.436H134.846L136.862 81.88H138.146L135.662 88H134.558ZM141.645 88.12C141.029 88.12 140.485 87.984 140.013 87.712C139.549 87.44 139.185 87.064 138.921 86.584C138.657 86.104 138.525 85.552 138.525 84.928C138.525 84.296 138.653 83.744 138.909 83.272C139.173 82.792 139.541 82.42 140.013 82.156C140.485 81.892 141.025 81.76 141.633 81.76C142.225 81.76 142.737 81.888 143.169 82.144C143.609 82.392 143.945 82.74 144.177 83.188C144.417 83.636 144.537 84.168 144.537 84.784C144.537 84.88 144.533 84.972 144.525 85.06C144.525 85.14 144.517 85.224 144.501 85.312H139.365V84.376H143.625L143.313 84.748C143.313 84.092 143.165 83.592 142.869 83.248C142.573 82.904 142.161 82.732 141.633 82.732C141.065 82.732 140.613 82.928 140.277 83.32C139.949 83.704 139.785 84.24 139.785 84.928C139.785 85.624 139.949 86.168 140.277 86.56C140.613 86.952 141.077 87.148 141.669 87.148C142.029 87.148 142.341 87.076 142.605 86.932C142.869 86.78 143.065 86.56 143.193 86.272H144.369C144.169 86.848 143.829 87.3 143.349 87.628C142.877 87.956 142.309 88.12 141.645 88.12ZM150.725 88.12C150.141 88.12 149.621 87.984 149.165 87.712C148.709 87.432 148.349 87.052 148.085 86.572C147.829 86.092 147.701 85.544 147.701 84.928C147.701 84.312 147.829 83.768 148.085 83.296C148.349 82.816 148.709 82.44 149.165 82.168C149.621 81.896 150.137 81.76 150.713 81.76C151.201 81.76 151.637 81.852 152.021 82.036C152.405 82.22 152.721 82.476 152.969 82.804C153.217 83.132 153.377 83.52 153.449 83.968H152.273C152.193 83.608 152.017 83.32 151.745 83.104C151.481 82.888 151.145 82.78 150.737 82.78C150.385 82.78 150.077 82.868 149.813 83.044C149.549 83.22 149.345 83.468 149.201 83.788C149.057 84.108 148.985 84.488 148.985 84.928C148.985 85.36 149.057 85.74 149.201 86.068C149.345 86.396 149.549 86.652 149.813 86.836C150.077 87.012 150.389 87.1 150.749 87.1C151.141 87.1 151.473 86.996 151.745 86.788C152.025 86.572 152.205 86.284 152.285 85.924H153.461C153.381 86.364 153.213 86.748 152.957 87.076C152.709 87.404 152.393 87.66 152.009 87.844C151.625 88.028 151.197 88.12 150.725 88.12ZM157.337 88.12C156.713 88.12 156.165 87.984 155.693 87.712C155.221 87.432 154.853 87.052 154.589 86.572C154.325 86.084 154.193 85.532 154.193 84.916C154.193 84.292 154.325 83.744 154.589 83.272C154.861 82.8 155.229 82.432 155.693 82.168C156.165 81.896 156.713 81.76 157.337 81.76C157.969 81.76 158.521 81.896 158.993 82.168C159.465 82.432 159.829 82.8 160.085 83.272C160.349 83.744 160.481 84.292 160.481 84.916C160.481 85.532 160.349 86.084 160.085 86.572C159.829 87.052 159.465 87.432 158.993 87.712C158.521 87.984 157.969 88.12 157.337 88.12ZM157.337 87.1C157.713 87.1 158.037 87.008 158.309 86.824C158.589 86.64 158.809 86.384 158.969 86.056C159.129 85.728 159.209 85.344 159.209 84.904C159.209 84.248 159.033 83.732 158.681 83.356C158.337 82.972 157.889 82.78 157.337 82.78C156.793 82.78 156.345 82.972 155.993 83.356C155.649 83.74 155.477 84.256 155.477 84.904C155.477 85.344 155.553 85.728 155.705 86.056C155.865 86.384 156.085 86.64 156.365 86.824C156.653 87.008 156.977 87.1 157.337 87.1ZM161.763 88V81.88H162.951V83.32H163.011V88H161.763ZM165.891 88V84.004C165.891 83.588 165.795 83.284 165.603 83.092C165.411 82.9 165.135 82.804 164.775 82.804C164.439 82.804 164.135 82.884 163.863 83.044C163.599 83.196 163.391 83.412 163.239 83.692C163.087 83.964 163.011 84.288 163.011 84.664L162.855 83.236C163.055 82.78 163.355 82.42 163.755 82.156C164.163 81.892 164.619 81.76 165.123 81.76C165.731 81.76 166.215 81.936 166.575 82.288C166.943 82.64 167.127 83.104 167.127 83.68V88H165.891ZM170.019 88V84.004C170.019 83.588 169.919 83.284 169.719 83.092C169.527 82.9 169.251 82.804 168.891 82.804C168.563 82.804 168.263 82.884 167.991 83.044C167.727 83.196 167.515 83.412 167.355 83.692C167.203 83.964 167.127 84.288 167.127 84.664L166.875 83.236C167.083 82.78 167.395 82.42 167.811 82.156C168.235 81.892 168.707 81.76 169.227 81.76C169.843 81.76 170.335 81.94 170.703 82.3C171.071 82.652 171.255 83.124 171.255 83.716V88H170.019ZM176.195 88.108C175.619 88.108 175.139 87.972 174.755 87.7C174.379 87.42 174.131 87.032 174.011 86.536L174.179 86.512V90.46H172.931V81.88H174.119V83.284L173.999 83.248C174.127 82.784 174.399 82.42 174.815 82.156C175.231 81.892 175.719 81.76 176.279 81.76C176.831 81.76 177.307 81.892 177.707 82.156C178.115 82.42 178.427 82.788 178.643 83.26C178.867 83.732 178.979 84.284 178.979 84.916C178.979 85.556 178.863 86.116 178.631 86.596C178.399 87.076 178.075 87.448 177.659 87.712C177.243 87.976 176.755 88.108 176.195 88.108ZM175.931 87.076C176.475 87.076 176.907 86.884 177.227 86.5C177.547 86.116 177.707 85.588 177.707 84.916C177.707 84.252 177.547 83.736 177.227 83.368C176.907 82.992 176.471 82.804 175.919 82.804C175.375 82.804 174.939 82.996 174.611 83.38C174.291 83.756 174.131 84.28 174.131 84.952C174.131 85.608 174.291 86.128 174.611 86.512C174.939 86.888 175.379 87.076 175.931 87.076ZM180.29 88V79.36H181.538V88H180.29ZM185.93 88.12C185.314 88.12 184.77 87.984 184.298 87.712C183.834 87.44 183.47 87.064 183.206 86.584C182.942 86.104 182.81 85.552 182.81 84.928C182.81 84.296 182.938 83.744 183.194 83.272C183.458 82.792 183.826 82.42 184.298 82.156C184.77 81.892 185.31 81.76 185.918 81.76C186.51 81.76 187.022 81.888 187.454 82.144C187.894 82.392 188.23 82.74 188.462 83.188C188.702 83.636 188.822 84.168 188.822 84.784C188.822 84.88 188.818 84.972 188.81 85.06C188.81 85.14 188.802 85.224 188.786 85.312H183.65V84.376H187.91L187.598 84.748C187.598 84.092 187.45 83.592 187.154 83.248C186.858 82.904 186.446 82.732 185.918 82.732C185.35 82.732 184.898 82.928 184.562 83.32C184.234 83.704 184.07 84.24 184.07 84.928C184.07 85.624 184.234 86.168 184.562 86.56C184.898 86.952 185.362 87.148 185.954 87.148C186.314 87.148 186.626 87.076 186.89 86.932C187.154 86.78 187.35 86.56 187.478 86.272H188.654C188.454 86.848 188.114 87.3 187.634 87.628C187.162 87.956 186.594 88.12 185.93 88.12ZM192.597 88.12C191.885 88.12 191.361 87.956 191.025 87.628C190.697 87.292 190.533 86.8 190.533 86.152V80.476L191.769 80.008V86.164C191.769 86.484 191.853 86.72 192.021 86.872C192.189 87.024 192.461 87.1 192.837 87.1C192.981 87.1 193.109 87.088 193.221 87.064C193.333 87.04 193.429 87.012 193.509 86.98V87.988C193.421 88.028 193.297 88.06 193.137 88.084C192.977 88.108 192.797 88.12 192.597 88.12ZM189.309 82.876V81.88H193.509V82.876H189.309ZM194.669 88V81.88H195.917V88H194.669ZM194.609 80.68V79.276H195.989V80.68H194.609ZM200.31 88.12C199.686 88.12 199.138 87.984 198.666 87.712C198.194 87.432 197.826 87.052 197.562 86.572C197.298 86.084 197.166 85.532 197.166 84.916C197.166 84.292 197.298 83.744 197.562 83.272C197.834 82.8 198.202 82.432 198.666 82.168C199.138 81.896 199.686 81.76 200.31 81.76C200.942 81.76 201.494 81.896 201.966 82.168C202.438 82.432 202.802 82.8 203.058 83.272C203.322 83.744 203.454 84.292 203.454 84.916C203.454 85.532 203.322 86.084 203.058 86.572C202.802 87.052 202.438 87.432 201.966 87.712C201.494 87.984 200.942 88.12 200.31 88.12ZM200.31 87.1C200.686 87.1 201.01 87.008 201.282 86.824C201.562 86.64 201.782 86.384 201.942 86.056C202.102 85.728 202.182 85.344 202.182 84.904C202.182 84.248 202.006 83.732 201.654 83.356C201.31 82.972 200.862 82.78 200.31 82.78C199.766 82.78 199.318 82.972 198.966 83.356C198.622 83.74 198.45 84.256 198.45 84.904C198.45 85.344 198.526 85.728 198.678 86.056C198.838 86.384 199.058 86.64 199.338 86.824C199.626 87.008 199.95 87.1 200.31 87.1ZM204.735 88V81.88H205.923V83.32H205.983V88H204.735ZM209.079 88V84.064C209.079 83.64 208.971 83.324 208.755 83.116C208.547 82.908 208.235 82.804 207.819 82.804C207.459 82.804 207.139 82.884 206.859 83.044C206.587 83.204 206.371 83.424 206.211 83.704C206.059 83.984 205.983 84.316 205.983 84.7L205.827 83.236C206.027 82.78 206.335 82.42 206.751 82.156C207.167 81.892 207.651 81.76 208.203 81.76C208.859 81.76 209.375 81.944 209.751 82.312C210.127 82.68 210.315 83.168 210.315 83.776V88H209.079ZM214.197 88.12C213.397 88.12 212.761 87.944 212.289 87.592C211.817 87.24 211.549 86.744 211.485 86.104H212.637C212.693 86.456 212.853 86.728 213.117 86.92C213.389 87.104 213.757 87.196 214.221 87.196C214.629 87.196 214.941 87.124 215.157 86.98C215.373 86.836 215.481 86.632 215.481 86.368C215.481 86.176 215.417 86.016 215.289 85.888C215.169 85.752 214.929 85.64 214.569 85.552L213.585 85.324C212.969 85.172 212.509 84.948 212.205 84.652C211.909 84.348 211.761 83.976 211.761 83.536C211.761 82.984 211.965 82.552 212.373 82.24C212.789 81.92 213.357 81.76 214.077 81.76C214.789 81.76 215.361 81.92 215.793 82.24C216.233 82.56 216.481 83.008 216.537 83.584H215.385C215.337 83.296 215.197 83.076 214.965 82.924C214.741 82.764 214.433 82.684 214.041 82.684C213.673 82.684 213.389 82.752 213.189 82.888C212.997 83.016 212.901 83.196 212.901 83.428C212.901 83.62 212.973 83.78 213.117 83.908C213.269 84.036 213.517 84.144 213.861 84.232L214.869 84.484C215.453 84.628 215.893 84.864 216.189 85.192C216.485 85.512 216.633 85.9 216.633 86.356C216.633 86.908 216.417 87.34 215.985 87.652C215.561 87.964 214.965 88.12 214.197 88.12ZM220.157 88V81.88H221.405V88H220.157ZM220.097 80.68V79.276H221.477V80.68H220.097ZM223.157 88V81.88H224.345V83.32H224.405V88H223.157ZM227.501 88V84.064C227.501 83.64 227.393 83.324 227.177 83.116C226.969 82.908 226.657 82.804 226.241 82.804C225.881 82.804 225.561 82.884 225.281 83.044C225.009 83.204 224.793 83.424 224.633 83.704C224.481 83.984 224.405 84.316 224.405 84.7L224.249 83.236C224.449 82.78 224.757 82.42 225.173 82.156C225.589 81.892 226.073 81.76 226.625 81.76C227.281 81.76 227.797 81.944 228.173 82.312C228.549 82.68 228.737 83.168 228.737 83.776V88H227.501ZM235.466 88.12C234.842 88.12 234.294 87.984 233.822 87.712C233.35 87.432 232.982 87.052 232.718 86.572C232.454 86.084 232.322 85.532 232.322 84.916C232.322 84.292 232.454 83.744 232.718 83.272C232.99 82.8 233.358 82.432 233.822 82.168C234.294 81.896 234.842 81.76 235.466 81.76C236.098 81.76 236.65 81.896 237.122 82.168C237.594 82.432 237.958 82.8 238.214 83.272C238.478 83.744 238.61 84.292 238.61 84.916C238.61 85.532 238.478 86.084 238.214 86.572C237.958 87.052 237.594 87.432 237.122 87.712C236.65 87.984 236.098 88.12 235.466 88.12ZM235.466 87.1C235.842 87.1 236.166 87.008 236.438 86.824C236.718 86.64 236.938 86.384 237.098 86.056C237.258 85.728 237.338 85.344 237.338 84.904C237.338 84.248 237.162 83.732 236.81 83.356C236.466 82.972 236.018 82.78 235.466 82.78C234.922 82.78 234.474 82.972 234.122 83.356C233.778 83.74 233.606 84.256 233.606 84.904C233.606 85.344 233.682 85.728 233.834 86.056C233.994 86.384 234.214 86.64 234.494 86.824C234.782 87.008 235.106 87.1 235.466 87.1ZM239.892 88V81.88H241.08V83.32H241.14V88H239.892ZM244.236 88V84.064C244.236 83.64 244.128 83.324 243.912 83.116C243.704 82.908 243.392 82.804 242.976 82.804C242.616 82.804 242.296 82.884 242.016 83.044C241.744 83.204 241.528 83.424 241.368 83.704C241.216 83.984 241.14 84.316 241.14 84.7L240.984 83.236C241.184 82.78 241.492 82.42 241.908 82.156C242.324 81.892 242.808 81.76 243.36 81.76C244.016 81.76 244.532 81.944 244.908 82.312C245.284 82.68 245.472 83.168 245.472 83.776V88H244.236ZM249.809 88.12C249.193 88.12 248.649 87.984 248.177 87.712C247.713 87.44 247.349 87.064 247.085 86.584C246.821 86.104 246.689 85.552 246.689 84.928C246.689 84.296 246.817 83.744 247.073 83.272C247.337 82.792 247.705 82.42 248.177 82.156C248.649 81.892 249.189 81.76 249.797 81.76C250.389 81.76 250.901 81.888 251.333 82.144C251.773 82.392 252.109 82.74 252.341 83.188C252.581 83.636 252.701 84.168 252.701 84.784C252.701 84.88 252.697 84.972 252.689 85.06C252.689 85.14 252.681 85.224 252.665 85.312H247.529V84.376H251.789L251.477 84.748C251.477 84.092 251.329 83.592 251.033 83.248C250.737 82.904 250.325 82.732 249.797 82.732C249.229 82.732 248.777 82.928 248.441 83.32C248.113 83.704 247.949 84.24 247.949 84.928C247.949 85.624 248.113 86.168 248.441 86.56C248.777 86.952 249.241 87.148 249.833 87.148C250.193 87.148 250.505 87.076 250.769 86.932C251.033 86.78 251.229 86.56 251.357 86.272H252.533C252.333 86.848 251.993 87.3 251.513 87.628C251.041 87.956 250.473 88.12 249.809 88.12ZM259.609 88.108C259.033 88.108 258.553 87.972 258.169 87.7C257.793 87.42 257.545 87.032 257.425 86.536L257.593 86.512V90.46H256.345V81.88H257.533V83.284L257.413 83.248C257.541 82.784 257.813 82.42 258.229 82.156C258.645 81.892 259.133 81.76 259.693 81.76C260.245 81.76 260.721 81.892 261.121 82.156C261.529 82.42 261.841 82.788 262.057 83.26C262.281 83.732 262.393 84.284 262.393 84.916C262.393 85.556 262.277 86.116 262.045 86.596C261.813 87.076 261.489 87.448 261.073 87.712C260.657 87.976 260.169 88.108 259.609 88.108ZM259.345 87.076C259.889 87.076 260.321 86.884 260.641 86.5C260.961 86.116 261.121 85.588 261.121 84.916C261.121 84.252 260.961 83.736 260.641 83.368C260.321 82.992 259.885 82.804 259.333 82.804C258.789 82.804 258.353 82.996 258.025 83.38C257.705 83.756 257.545 84.28 257.545 84.952C257.545 85.608 257.705 86.128 258.025 86.512C258.353 86.888 258.793 87.076 259.345 87.076ZM263.704 88V79.36H264.952V88H263.704ZM270.496 88C270.456 87.848 270.428 87.68 270.412 87.496C270.404 87.312 270.4 87.088 270.4 86.824H270.34V83.908C270.34 83.516 270.24 83.224 270.04 83.032C269.848 82.832 269.54 82.732 269.116 82.732C268.708 82.732 268.38 82.812 268.132 82.972C267.892 83.132 267.752 83.36 267.712 83.656H266.524C266.58 83.08 266.84 82.62 267.304 82.276C267.768 81.932 268.388 81.76 269.164 81.76C269.964 81.76 270.564 81.948 270.964 82.324C271.364 82.692 271.564 83.236 271.564 83.956V86.824C271.564 87.008 271.576 87.196 271.6 87.388C271.624 87.58 271.66 87.784 271.708 88H270.496ZM268.384 88.12C267.76 88.12 267.264 87.968 266.896 87.664C266.528 87.352 266.344 86.932 266.344 86.404C266.344 85.86 266.536 85.432 266.92 85.12C267.312 84.8 267.872 84.584 268.6 84.472L270.616 84.148V85.024L268.792 85.312C268.384 85.376 268.076 85.484 267.868 85.636C267.668 85.788 267.568 86.008 267.568 86.296C267.568 86.576 267.66 86.788 267.844 86.932C268.036 87.068 268.312 87.136 268.672 87.136C269.152 87.136 269.548 87.02 269.86 86.788C270.18 86.556 270.34 86.264 270.34 85.912L270.496 86.8C270.352 87.224 270.096 87.552 269.728 87.784C269.36 88.008 268.912 88.12 268.384 88.12ZM275.752 88.12C275.168 88.12 274.648 87.984 274.192 87.712C273.736 87.432 273.376 87.052 273.112 86.572C272.856 86.092 272.728 85.544 272.728 84.928C272.728 84.312 272.856 83.768 273.112 83.296C273.376 82.816 273.736 82.44 274.192 82.168C274.648 81.896 275.164 81.76 275.74 81.76C276.228 81.76 276.664 81.852 277.048 82.036C277.432 82.22 277.748 82.476 277.996 82.804C278.244 83.132 278.404 83.52 278.476 83.968H277.3C277.22 83.608 277.044 83.32 276.772 83.104C276.508 82.888 276.172 82.78 275.764 82.78C275.412 82.78 275.104 82.868 274.84 83.044C274.576 83.22 274.372 83.468 274.228 83.788C274.084 84.108 274.012 84.488 274.012 84.928C274.012 85.36 274.084 85.74 274.228 86.068C274.372 86.396 274.576 86.652 274.84 86.836C275.104 87.012 275.416 87.1 275.776 87.1C276.168 87.1 276.5 86.996 276.772 86.788C277.052 86.572 277.232 86.284 277.312 85.924H278.488C278.408 86.364 278.24 86.748 277.984 87.076C277.736 87.404 277.42 87.66 277.036 87.844C276.652 88.028 276.224 88.12 275.752 88.12ZM282.34 88.12C281.724 88.12 281.18 87.984 280.708 87.712C280.244 87.44 279.88 87.064 279.616 86.584C279.352 86.104 279.22 85.552 279.22 84.928C279.22 84.296 279.348 83.744 279.604 83.272C279.868 82.792 280.236 82.42 280.708 82.156C281.18 81.892 281.72 81.76 282.328 81.76C282.92 81.76 283.432 81.888 283.864 82.144C284.304 82.392 284.64 82.74 284.872 83.188C285.112 83.636 285.232 84.168 285.232 84.784C285.232 84.88 285.228 84.972 285.22 85.06C285.22 85.14 285.212 85.224 285.196 85.312H280.06V84.376H284.32L284.008 84.748C284.008 84.092 283.86 83.592 283.564 83.248C283.268 82.904 282.856 82.732 282.328 82.732C281.76 82.732 281.308 82.928 280.972 83.32C280.644 83.704 280.48 84.24 280.48 84.928C280.48 85.624 280.644 86.168 280.972 86.56C281.308 86.952 281.772 87.148 282.364 87.148C282.724 87.148 283.036 87.076 283.3 86.932C283.564 86.78 283.76 86.56 283.888 86.272H285.064C284.864 86.848 284.524 87.3 284.044 87.628C283.572 87.956 283.004 88.12 282.34 88.12ZM285.993 88V86.512H287.469V88H285.993Z" fill="#301457"/>
</svg>
