<svg width="310" height="107" viewBox="0 0 310 107" fill="none" xmlns="http://www.w3.org/2000/svg">
<rect width="310" height="107" rx="18" fill="#E0E7FF"/>
<path d="M21 42.82H47V16.82H21V42.82Z" fill="black"/>
<path d="M65.479 39.171C63.7563 39.171 62.382 38.7783 61.356 37.993C60.3427 37.195 59.7473 36.074 59.57 34.63H61.945C62.059 35.466 62.4327 36.1183 63.066 36.587C63.6993 37.043 64.529 37.271 65.555 37.271C66.4037 37.271 67.0497 37.119 67.493 36.815C67.949 36.4983 68.177 36.0613 68.177 35.504C68.177 35.01 68.0377 34.611 67.759 34.307C67.4803 34.003 67.0117 33.756 66.353 33.566L63.883 32.825C62.629 32.445 61.7043 31.9447 61.109 31.324C60.5263 30.7033 60.235 29.9243 60.235 28.987C60.235 28.2017 60.4377 27.5177 60.843 26.935C61.2483 26.3523 61.8183 25.9027 62.553 25.586C63.3003 25.2693 64.168 25.111 65.156 25.111C66.676 25.111 67.8857 25.4847 68.785 26.232C69.697 26.9667 70.2163 27.9673 70.343 29.234H67.968C67.8287 28.474 67.512 27.9167 67.018 27.562C66.524 27.1947 65.859 27.011 65.023 27.011C64.2883 27.011 63.7057 27.1567 63.275 27.448C62.8443 27.7393 62.629 28.1383 62.629 28.645C62.629 29.063 62.7557 29.4177 63.009 29.709C63.275 30.0003 63.7627 30.2537 64.472 30.469L66.98 31.229C68.234 31.5963 69.146 32.0967 69.716 32.73C70.286 33.3633 70.571 34.1677 70.571 35.143C70.571 36.435 70.1213 37.4293 69.222 38.126C68.3353 38.8227 67.0877 39.171 65.479 39.171ZM72.2757 39V25.32H76.1137L80.2937 38.506H78.9447L83.1247 25.32H86.9817V39H84.5497V26.137H84.9487L80.8827 39H78.2417L74.2137 26.251H74.5937V39H72.2757ZM94.647 39.171C92.9243 39.171 91.55 38.7783 90.524 37.993C89.5106 37.195 88.9153 36.074 88.738 34.63H91.113C91.227 35.466 91.6006 36.1183 92.234 36.587C92.8673 37.043 93.697 37.271 94.723 37.271C95.5716 37.271 96.2176 37.119 96.661 36.815C97.117 36.4983 97.345 36.0613 97.345 35.504C97.345 35.01 97.2056 34.611 96.927 34.307C96.6483 34.003 96.1796 33.756 95.521 33.566L93.051 32.825C91.797 32.445 90.8723 31.9447 90.277 31.324C89.6943 30.7033 89.403 29.9243 89.403 28.987C89.403 28.2017 89.6056 27.5177 90.011 26.935C90.4163 26.3523 90.9863 25.9027 91.721 25.586C92.4683 25.2693 93.336 25.111 94.324 25.111C95.844 25.111 97.0536 25.4847 97.953 26.232C98.865 26.9667 99.3843 27.9673 99.511 29.234H97.136C96.9966 28.474 96.68 27.9167 96.186 27.562C95.692 27.1947 95.027 27.011 94.191 27.011C93.4563 27.011 92.8736 27.1567 92.443 27.448C92.0123 27.7393 91.797 28.1383 91.797 28.645C91.797 29.063 91.9236 29.4177 92.177 29.709C92.443 30.0003 92.9306 30.2537 93.64 30.469L96.148 31.229C97.402 31.5963 98.314 32.0967 98.884 32.73C99.454 33.3633 99.739 34.1677 99.739 35.143C99.739 36.435 99.2893 37.4293 98.39 38.126C97.5033 38.8227 96.2556 39.171 94.647 39.171ZM110.741 39.19C109.817 39.19 109.063 38.9747 108.48 38.544C107.91 38.1007 107.556 37.4927 107.416 36.72L107.606 36.701V42.895H105.212V29.31H107.549V31.495L107.359 31.457C107.537 30.735 107.942 30.165 108.575 29.747C109.209 29.329 109.981 29.12 110.893 29.12C111.755 29.12 112.502 29.329 113.135 29.747C113.781 30.1523 114.282 30.7287 114.636 31.476C114.991 32.2233 115.168 33.1037 115.168 34.117C115.168 35.143 114.985 36.036 114.617 36.796C114.25 37.556 113.737 38.145 113.078 38.563C112.42 38.981 111.641 39.19 110.741 39.19ZM110.133 37.214C110.906 37.214 111.52 36.948 111.976 36.416C112.432 35.8713 112.66 35.1113 112.66 34.136C112.66 33.1607 112.426 32.407 111.957 31.875C111.501 31.343 110.887 31.077 110.114 31.077C109.354 31.077 108.74 31.3493 108.271 31.894C107.803 32.426 107.568 33.1797 107.568 34.155C107.568 35.1303 107.803 35.884 108.271 36.416C108.74 36.948 109.361 37.214 110.133 37.214ZM121.551 39.19C120.525 39.19 119.619 38.9747 118.834 38.544C118.061 38.1133 117.46 37.518 117.029 36.758C116.598 35.9853 116.383 35.105 116.383 34.117C116.383 33.129 116.598 32.2613 117.029 31.514C117.46 30.7667 118.061 30.184 118.834 29.766C119.619 29.3353 120.525 29.12 121.551 29.12C122.59 29.12 123.495 29.3353 124.268 29.766C125.041 30.184 125.642 30.7667 126.073 31.514C126.504 32.2613 126.719 33.129 126.719 34.117C126.719 35.105 126.497 35.9853 126.054 36.758C125.623 37.518 125.022 38.1133 124.249 38.544C123.476 38.9747 122.577 39.19 121.551 39.19ZM121.551 37.271C122.058 37.271 122.514 37.1443 122.919 36.891C123.324 36.625 123.641 36.2577 123.869 35.789C124.097 35.3077 124.211 34.744 124.211 34.098C124.211 33.148 123.958 32.4007 123.451 31.856C122.957 31.3113 122.324 31.039 121.551 31.039C120.778 31.039 120.139 31.3113 119.632 31.856C119.125 32.4007 118.872 33.148 118.872 34.098C118.872 34.744 118.986 35.3077 119.214 35.789C119.455 36.2577 119.771 36.625 120.164 36.891C120.569 37.1443 121.032 37.271 121.551 37.271ZM130.234 39L127.27 29.31H129.778L131.526 36.587H131.355L133.502 29.31H135.687L137.872 36.587H137.682L139.411 29.31H141.862L138.898 39H136.656L134.471 31.799H134.661L132.476 39H130.234ZM147.545 39.19C146.519 39.19 145.62 38.9747 144.847 38.544C144.087 38.1133 143.492 37.518 143.061 36.758C142.643 35.998 142.434 35.124 142.434 34.136C142.434 33.148 142.643 32.2803 143.061 31.533C143.492 30.773 144.087 30.184 144.847 29.766C145.607 29.3353 146.494 29.12 147.507 29.12C148.47 29.12 149.306 29.3227 150.015 29.728C150.724 30.1207 151.275 30.678 151.668 31.4C152.061 32.122 152.257 32.9643 152.257 33.927C152.257 34.1043 152.251 34.269 152.238 34.421C152.225 34.573 152.206 34.725 152.181 34.877H143.916V33.205H150.338L149.844 33.661C149.844 32.749 149.635 32.065 149.217 31.609C148.799 31.153 148.216 30.925 147.469 30.925C146.658 30.925 146.012 31.2037 145.531 31.761C145.062 32.3183 144.828 33.1227 144.828 34.174C144.828 35.2127 145.062 36.0107 145.531 36.568C146.012 37.1127 146.69 37.385 147.564 37.385C148.071 37.385 148.514 37.29 148.894 37.1C149.274 36.91 149.553 36.6187 149.73 36.226H151.991C151.674 37.138 151.136 37.86 150.376 38.392C149.629 38.924 148.685 39.19 147.545 39.19ZM154.048 39V29.31H156.385V31.647H156.442V39H154.048ZM156.442 33.946L156.195 31.647C156.423 30.8237 156.81 30.1967 157.354 29.766C157.899 29.3353 158.551 29.12 159.311 29.12C159.577 29.12 159.767 29.1453 159.881 29.196V31.457C159.818 31.4317 159.729 31.419 159.615 31.419C159.501 31.4063 159.362 31.4 159.197 31.4C158.273 31.4 157.582 31.6027 157.126 32.008C156.67 32.4133 156.442 33.0593 156.442 33.946ZM165.599 39.19C164.573 39.19 163.673 38.9747 162.901 38.544C162.141 38.1133 161.545 37.518 161.115 36.758C160.697 35.998 160.488 35.124 160.488 34.136C160.488 33.148 160.697 32.2803 161.115 31.533C161.545 30.773 162.141 30.184 162.901 29.766C163.661 29.3353 164.547 29.12 165.561 29.12C166.523 29.12 167.359 29.3227 168.069 29.728C168.778 30.1207 169.329 30.678 169.722 31.4C170.114 32.122 170.311 32.9643 170.311 33.927C170.311 34.1043 170.304 34.269 170.292 34.421C170.279 34.573 170.26 34.725 170.235 34.877H161.97V33.205H168.392L167.898 33.661C167.898 32.749 167.689 32.065 167.271 31.609C166.853 31.153 166.27 30.925 165.523 30.925C164.712 30.925 164.066 31.2037 163.585 31.761C163.116 32.3183 162.882 33.1227 162.882 34.174C162.882 35.2127 163.116 36.0107 163.585 36.568C164.066 37.1127 164.744 37.385 165.618 37.385C166.124 37.385 166.568 37.29 166.948 37.1C167.328 36.91 167.606 36.6187 167.784 36.226H170.045C169.728 37.138 169.19 37.86 168.43 38.392C167.682 38.924 166.739 39.19 165.599 39.19ZM179.111 39V36.815L179.301 36.853C179.136 37.5623 178.737 38.1323 178.104 38.563C177.471 38.981 176.717 39.19 175.843 39.19C174.956 39.19 174.184 38.9873 173.525 38.582C172.879 38.164 172.379 37.5813 172.024 36.834C171.669 36.0867 171.492 35.2063 171.492 34.193C171.492 33.167 171.676 32.274 172.043 31.514C172.41 30.754 172.923 30.165 173.582 29.747C174.253 29.329 175.032 29.12 175.919 29.12C176.831 29.12 177.585 29.3417 178.18 29.785C178.775 30.2157 179.143 30.8173 179.282 31.59L179.035 31.609V25.32H181.448V39H179.111ZM176.546 37.233C177.319 37.233 177.933 36.967 178.389 36.435C178.858 35.8903 179.092 35.1303 179.092 34.155C179.092 33.1797 178.858 32.426 178.389 31.894C177.92 31.362 177.3 31.096 176.527 31.096C175.767 31.096 175.153 31.3683 174.684 31.913C174.215 32.445 173.981 33.1987 173.981 34.174C173.981 35.1493 174.215 35.903 174.684 36.435C175.153 36.967 175.773 37.233 176.546 37.233ZM183.958 39V36.264H186.713V39H183.958Z" fill="#301457"/>
<path d="M21.888 73V64.36H23.16V73H21.888ZM24.9229 73V66.88H26.1109V68.32H26.1709V73H24.9229ZM29.2669 73V69.064C29.2669 68.64 29.1589 68.324 28.9429 68.116C28.7349 67.908 28.4229 67.804 28.0069 67.804C27.6469 67.804 27.3269 67.884 27.0469 68.044C26.7749 68.204 26.5589 68.424 26.3989 68.704C26.2469 68.984 26.1709 69.316 26.1709 69.7L26.0149 68.236C26.2149 67.78 26.5229 67.42 26.9389 67.156C27.3549 66.892 27.8389 66.76 28.3909 66.76C29.0469 66.76 29.5629 66.944 29.9389 67.312C30.3149 67.68 30.5029 68.168 30.5029 68.776V73H29.2669ZM34.3848 73.12C33.5848 73.12 32.9488 72.944 32.4768 72.592C32.0048 72.24 31.7368 71.744 31.6728 71.104H32.8248C32.8808 71.456 33.0408 71.728 33.3048 71.92C33.5768 72.104 33.9448 72.196 34.4088 72.196C34.8168 72.196 35.1288 72.124 35.3448 71.98C35.5608 71.836 35.6688 71.632 35.6688 71.368C35.6688 71.176 35.6048 71.016 35.4768 70.888C35.3568 70.752 35.1168 70.64 34.7568 70.552L33.7728 70.324C33.1568 70.172 32.6968 69.948 32.3928 69.652C32.0968 69.348 31.9488 68.976 31.9488 68.536C31.9488 67.984 32.1528 67.552 32.5608 67.24C32.9768 66.92 33.5448 66.76 34.2648 66.76C34.9768 66.76 35.5488 66.92 35.9808 67.24C36.4208 67.56 36.6688 68.008 36.7248 68.584H35.5728C35.5248 68.296 35.3848 68.076 35.1528 67.924C34.9288 67.764 34.6208 67.684 34.2288 67.684C33.8608 67.684 33.5768 67.752 33.3768 67.888C33.1848 68.016 33.0888 68.196 33.0888 68.428C33.0888 68.62 33.1608 68.78 33.3048 68.908C33.4568 69.036 33.7048 69.144 34.0488 69.232L35.0568 69.484C35.6408 69.628 36.0808 69.864 36.3768 70.192C36.6728 70.512 36.8208 70.9 36.8208 71.356C36.8208 71.908 36.6048 72.34 36.1728 72.652C35.7488 72.964 35.1528 73.12 34.3848 73.12ZM40.5698 73.12C39.8578 73.12 39.3338 72.956 38.9978 72.628C38.6698 72.292 38.5058 71.8 38.5058 71.152V65.476L39.7418 65.008V71.164C39.7418 71.484 39.8258 71.72 39.9938 71.872C40.1618 72.024 40.4338 72.1 40.8098 72.1C40.9538 72.1 41.0818 72.088 41.1938 72.064C41.3058 72.04 41.4018 72.012 41.4818 71.98V72.988C41.3938 73.028 41.2698 73.06 41.1098 73.084C40.9498 73.108 40.7698 73.12 40.5698 73.12ZM37.2818 67.876V66.88H41.4818V67.876H37.2818ZM46.4219 73C46.3819 72.848 46.3539 72.68 46.3379 72.496C46.3299 72.312 46.3259 72.088 46.3259 71.824H46.2659V68.908C46.2659 68.516 46.1659 68.224 45.9659 68.032C45.7739 67.832 45.4659 67.732 45.0419 67.732C44.6339 67.732 44.3059 67.812 44.0579 67.972C43.8179 68.132 43.6779 68.36 43.6379 68.656H42.4499C42.5059 68.08 42.7659 67.62 43.2299 67.276C43.6939 66.932 44.3139 66.76 45.0899 66.76C45.8899 66.76 46.4899 66.948 46.8899 67.324C47.2899 67.692 47.4899 68.236 47.4899 68.956V71.824C47.4899 72.008 47.5019 72.196 47.5259 72.388C47.5499 72.58 47.5859 72.784 47.6339 73H46.4219ZM44.3099 73.12C43.6859 73.12 43.1899 72.968 42.8219 72.664C42.4539 72.352 42.2699 71.932 42.2699 71.404C42.2699 70.86 42.4619 70.432 42.8459 70.12C43.2379 69.8 43.7979 69.584 44.5259 69.472L46.5419 69.148V70.024L44.7179 70.312C44.3099 70.376 44.0019 70.484 43.7939 70.636C43.5939 70.788 43.4939 71.008 43.4939 71.296C43.4939 71.576 43.5859 71.788 43.7699 71.932C43.9619 72.068 44.2379 72.136 44.5979 72.136C45.0779 72.136 45.4739 72.02 45.7859 71.788C46.1059 71.556 46.2659 71.264 46.2659 70.912L46.4219 71.8C46.2779 72.224 46.0219 72.552 45.6539 72.784C45.2859 73.008 44.8379 73.12 44.3099 73.12ZM49.1807 73V66.88H50.3687V68.32H50.4287V73H49.1807ZM53.5247 73V69.064C53.5247 68.64 53.4167 68.324 53.2007 68.116C52.9927 67.908 52.6807 67.804 52.2647 67.804C51.9047 67.804 51.5847 67.884 51.3047 68.044C51.0327 68.204 50.8167 68.424 50.6567 68.704C50.5047 68.984 50.4287 69.316 50.4287 69.7L50.2727 68.236C50.4727 67.78 50.7807 67.42 51.1967 67.156C51.6127 66.892 52.0967 66.76 52.6487 66.76C53.3047 66.76 53.8207 66.944 54.1967 67.312C54.5727 67.68 54.7607 68.168 54.7607 68.776V73H53.5247ZM58.8628 73.12C58.1508 73.12 57.6268 72.956 57.2908 72.628C56.9628 72.292 56.7988 71.8 56.7988 71.152V65.476L58.0348 65.008V71.164C58.0348 71.484 58.1188 71.72 58.2868 71.872C58.4548 72.024 58.7268 72.1 59.1028 72.1C59.2468 72.1 59.3748 72.088 59.4868 72.064C59.5988 72.04 59.6948 72.012 59.7748 71.98V72.988C59.6868 73.028 59.5628 73.06 59.4028 73.084C59.2428 73.108 59.0628 73.12 58.8628 73.12ZM55.5748 67.876V66.88H59.7748V67.876H55.5748ZM65.8692 73.12C65.2852 73.12 64.7652 72.984 64.3092 72.712C63.8532 72.432 63.4932 72.052 63.2292 71.572C62.9732 71.092 62.8452 70.544 62.8452 69.928C62.8452 69.312 62.9732 68.768 63.2292 68.296C63.4932 67.816 63.8532 67.44 64.3092 67.168C64.7652 66.896 65.2812 66.76 65.8572 66.76C66.3452 66.76 66.7812 66.852 67.1652 67.036C67.5492 67.22 67.8652 67.476 68.1132 67.804C68.3612 68.132 68.5212 68.52 68.5932 68.968H67.4172C67.3372 68.608 67.1612 68.32 66.8892 68.104C66.6252 67.888 66.2892 67.78 65.8812 67.78C65.5292 67.78 65.2212 67.868 64.9572 68.044C64.6932 68.22 64.4892 68.468 64.3452 68.788C64.2012 69.108 64.1292 69.488 64.1292 69.928C64.1292 70.36 64.2012 70.74 64.3452 71.068C64.4892 71.396 64.6932 71.652 64.9572 71.836C65.2212 72.012 65.5332 72.1 65.8932 72.1C66.2852 72.1 66.6172 71.996 66.8892 71.788C67.1692 71.572 67.3492 71.284 67.4292 70.924H68.6052C68.5252 71.364 68.3572 71.748 68.1012 72.076C67.8532 72.404 67.5372 72.66 67.1532 72.844C66.7692 73.028 66.3412 73.12 65.8692 73.12ZM72.4814 73.12C71.8574 73.12 71.3094 72.984 70.8374 72.712C70.3654 72.432 69.9974 72.052 69.7334 71.572C69.4694 71.084 69.3374 70.532 69.3374 69.916C69.3374 69.292 69.4694 68.744 69.7334 68.272C70.0054 67.8 70.3734 67.432 70.8374 67.168C71.3094 66.896 71.8574 66.76 72.4814 66.76C73.1134 66.76 73.6654 66.896 74.1374 67.168C74.6094 67.432 74.9734 67.8 75.2294 68.272C75.4934 68.744 75.6254 69.292 75.6254 69.916C75.6254 70.532 75.4934 71.084 75.2294 71.572C74.9734 72.052 74.6094 72.432 74.1374 72.712C73.6654 72.984 73.1134 73.12 72.4814 73.12ZM72.4814 72.1C72.8574 72.1 73.1814 72.008 73.4534 71.824C73.7334 71.64 73.9534 71.384 74.1134 71.056C74.2734 70.728 74.3534 70.344 74.3534 69.904C74.3534 69.248 74.1774 68.732 73.8254 68.356C73.4814 67.972 73.0334 67.78 72.4814 67.78C71.9374 67.78 71.4894 67.972 71.1374 68.356C70.7934 68.74 70.6214 69.256 70.6214 69.904C70.6214 70.344 70.6974 70.728 70.8494 71.056C71.0094 71.384 71.2294 71.64 71.5094 71.824C71.7974 72.008 72.1214 72.1 72.4814 72.1ZM76.9073 73V66.88H78.0953V68.32H78.1553V73H76.9073ZM81.2513 73V69.064C81.2513 68.64 81.1433 68.324 80.9273 68.116C80.7193 67.908 80.4073 67.804 79.9913 67.804C79.6313 67.804 79.3113 67.884 79.0312 68.044C78.7593 68.204 78.5433 68.424 78.3833 68.704C78.2313 68.984 78.1553 69.316 78.1553 69.7L77.9993 68.236C78.1993 67.78 78.5073 67.42 78.9233 67.156C79.3393 66.892 79.8233 66.76 80.3753 66.76C81.0313 66.76 81.5473 66.944 81.9233 67.312C82.2993 67.68 82.4873 68.168 82.4873 68.776V73H81.2513ZM86.5894 73.12C85.8774 73.12 85.3534 72.956 85.0174 72.628C84.6894 72.292 84.5254 71.8 84.5254 71.152V65.476L85.7614 65.008V71.164C85.7614 71.484 85.8454 71.72 86.0134 71.872C86.1814 72.024 86.4534 72.1 86.8294 72.1C86.9734 72.1 87.1014 72.088 87.2134 72.064C87.3254 72.04 87.4214 72.012 87.5014 71.98V72.988C87.4134 73.028 87.2894 73.06 87.1294 73.084C86.9694 73.108 86.7894 73.12 86.5894 73.12ZM83.3014 67.876V66.88H87.5014V67.876H83.3014ZM88.6846 73V66.88H89.8726V68.404H89.9326V73H88.6846ZM89.9326 69.808L89.7766 68.356C89.9206 67.836 90.1686 67.44 90.5206 67.168C90.8726 66.896 91.2926 66.76 91.7806 66.76C91.9646 66.76 92.0926 66.776 92.1646 66.808V67.984C92.1246 67.968 92.0686 67.96 91.9966 67.96C91.9246 67.952 91.8366 67.948 91.7326 67.948C91.1326 67.948 90.6806 68.104 90.3766 68.416C90.0806 68.728 89.9326 69.192 89.9326 69.808ZM96.8828 73C96.8428 72.848 96.8148 72.68 96.7988 72.496C96.7908 72.312 96.7868 72.088 96.7868 71.824H96.7268V68.908C96.7268 68.516 96.6268 68.224 96.4268 68.032C96.2348 67.832 95.9268 67.732 95.5028 67.732C95.0948 67.732 94.7668 67.812 94.5188 67.972C94.2788 68.132 94.1388 68.36 94.0988 68.656H92.9108C92.9668 68.08 93.2268 67.62 93.6908 67.276C94.1548 66.932 94.7748 66.76 95.5508 66.76C96.3508 66.76 96.9508 66.948 97.3508 67.324C97.7508 67.692 97.9508 68.236 97.9508 68.956V71.824C97.9508 72.008 97.9628 72.196 97.9868 72.388C98.0108 72.58 98.0468 72.784 98.0948 73H96.8828ZM94.7708 73.12C94.1468 73.12 93.6508 72.968 93.2828 72.664C92.9148 72.352 92.7308 71.932 92.7308 71.404C92.7308 70.86 92.9228 70.432 93.3068 70.12C93.6988 69.8 94.2588 69.584 94.9868 69.472L97.0028 69.148V70.024L95.1788 70.312C94.7708 70.376 94.4628 70.484 94.2548 70.636C94.0548 70.788 93.9548 71.008 93.9548 71.296C93.9548 71.576 94.0468 71.788 94.2308 71.932C94.4228 72.068 94.6988 72.136 95.0588 72.136C95.5388 72.136 95.9348 72.02 96.2468 71.788C96.5668 71.556 96.7268 71.264 96.7268 70.912L96.8828 71.8C96.7388 72.224 96.4828 72.552 96.1148 72.784C95.7468 73.008 95.2988 73.12 94.7708 73.12ZM102.139 73.12C101.555 73.12 101.035 72.984 100.579 72.712C100.123 72.432 99.7628 72.052 99.4988 71.572C99.2428 71.092 99.1147 70.544 99.1147 69.928C99.1147 69.312 99.2428 68.768 99.4988 68.296C99.7628 67.816 100.123 67.44 100.579 67.168C101.035 66.896 101.551 66.76 102.127 66.76C102.615 66.76 103.051 66.852 103.435 67.036C103.819 67.22 104.135 67.476 104.383 67.804C104.631 68.132 104.791 68.52 104.863 68.968H103.687C103.607 68.608 103.431 68.32 103.159 68.104C102.895 67.888 102.559 67.78 102.151 67.78C101.799 67.78 101.491 67.868 101.227 68.044C100.963 68.22 100.759 68.468 100.615 68.788C100.471 69.108 100.399 69.488 100.399 69.928C100.399 70.36 100.471 70.74 100.615 71.068C100.759 71.396 100.963 71.652 101.227 71.836C101.491 72.012 101.803 72.1 102.163 72.1C102.555 72.1 102.887 71.996 103.159 71.788C103.439 71.572 103.619 71.284 103.699 70.924H104.875C104.795 71.364 104.627 71.748 104.371 72.076C104.123 72.404 103.807 72.66 103.423 72.844C103.039 73.028 102.611 73.12 102.139 73.12ZM108.668 73.12C107.956 73.12 107.432 72.956 107.096 72.628C106.768 72.292 106.604 71.8 106.604 71.152V65.476L107.84 65.008V71.164C107.84 71.484 107.924 71.72 108.092 71.872C108.26 72.024 108.532 72.1 108.908 72.1C109.052 72.1 109.18 72.088 109.292 72.064C109.404 72.04 109.5 72.012 109.58 71.98V72.988C109.492 73.028 109.368 73.06 109.208 73.084C109.048 73.108 108.868 73.12 108.668 73.12ZM105.38 67.876V66.88H109.58V67.876H105.38ZM113.263 73.12C112.639 73.12 112.091 72.984 111.619 72.712C111.147 72.432 110.779 72.052 110.515 71.572C110.251 71.084 110.119 70.532 110.119 69.916C110.119 69.292 110.251 68.744 110.515 68.272C110.787 67.8 111.155 67.432 111.619 67.168C112.091 66.896 112.639 66.76 113.263 66.76C113.895 66.76 114.447 66.896 114.919 67.168C115.391 67.432 115.755 67.8 116.011 68.272C116.275 68.744 116.407 69.292 116.407 69.916C116.407 70.532 116.275 71.084 116.011 71.572C115.755 72.052 115.391 72.432 114.919 72.712C114.447 72.984 113.895 73.12 113.263 73.12ZM113.263 72.1C113.639 72.1 113.963 72.008 114.235 71.824C114.515 71.64 114.735 71.384 114.895 71.056C115.055 70.728 115.135 70.344 115.135 69.904C115.135 69.248 114.959 68.732 114.607 68.356C114.263 67.972 113.815 67.78 113.263 67.78C112.719 67.78 112.271 67.972 111.919 68.356C111.575 68.74 111.403 69.256 111.403 69.904C111.403 70.344 111.479 70.728 111.631 71.056C111.791 71.384 112.011 71.64 112.291 71.824C112.579 72.008 112.903 72.1 113.263 72.1ZM117.689 73V66.88H118.877V68.404H118.937V73H117.689ZM118.937 69.808L118.781 68.356C118.925 67.836 119.173 67.44 119.525 67.168C119.877 66.896 120.297 66.76 120.785 66.76C120.969 66.76 121.097 66.776 121.169 66.808V67.984C121.129 67.968 121.073 67.96 121.001 67.96C120.929 67.952 120.841 67.948 120.737 67.948C120.137 67.948 119.685 68.104 119.381 68.416C119.085 68.728 118.937 69.192 118.937 69.808ZM124.649 73V66.88H125.837V68.32H125.897V73H124.649ZM128.993 73V69.064C128.993 68.64 128.885 68.324 128.669 68.116C128.461 67.908 128.149 67.804 127.733 67.804C127.373 67.804 127.053 67.884 126.773 68.044C126.501 68.204 126.285 68.424 126.125 68.704C125.973 68.984 125.897 69.316 125.897 69.7L125.741 68.236C125.941 67.78 126.249 67.42 126.665 67.156C127.081 66.892 127.565 66.76 128.117 66.76C128.773 66.76 129.289 66.944 129.665 67.312C130.041 67.68 130.229 68.168 130.229 68.776V73H128.993ZM134.591 73.12C133.967 73.12 133.419 72.984 132.947 72.712C132.475 72.432 132.107 72.052 131.843 71.572C131.579 71.084 131.447 70.532 131.447 69.916C131.447 69.292 131.579 68.744 131.843 68.272C132.115 67.8 132.483 67.432 132.947 67.168C133.419 66.896 133.967 66.76 134.591 66.76C135.223 66.76 135.775 66.896 136.247 67.168C136.719 67.432 137.083 67.8 137.339 68.272C137.603 68.744 137.735 69.292 137.735 69.916C137.735 70.532 137.603 71.084 137.339 71.572C137.083 72.052 136.719 72.432 136.247 72.712C135.775 72.984 135.223 73.12 134.591 73.12ZM134.591 72.1C134.967 72.1 135.291 72.008 135.563 71.824C135.843 71.64 136.063 71.384 136.223 71.056C136.383 70.728 136.463 70.344 136.463 69.904C136.463 69.248 136.287 68.732 135.935 68.356C135.591 67.972 135.143 67.78 134.591 67.78C134.047 67.78 133.599 67.972 133.247 68.356C132.903 68.74 132.731 69.256 132.731 69.904C132.731 70.344 132.807 70.728 132.959 71.056C133.119 71.384 133.339 71.64 133.619 71.824C133.907 72.008 134.231 72.1 134.591 72.1ZM141.527 73.12C140.815 73.12 140.291 72.956 139.955 72.628C139.627 72.292 139.463 71.8 139.463 71.152V65.476L140.699 65.008V71.164C140.699 71.484 140.783 71.72 140.951 71.872C141.119 72.024 141.391 72.1 141.767 72.1C141.911 72.1 142.039 72.088 142.151 72.064C142.263 72.04 142.359 72.012 142.439 71.98V72.988C142.351 73.028 142.227 73.06 142.067 73.084C141.907 73.108 141.727 73.12 141.527 73.12ZM138.239 67.876V66.88H142.439V67.876H138.239ZM143.599 73V66.88H144.847V73H143.599ZM143.539 65.68V64.276H144.919V65.68H143.539ZM147.044 73V66.172C147.044 65.548 147.22 65.072 147.572 64.744C147.924 64.408 148.452 64.24 149.156 64.24C149.316 64.24 149.448 64.248 149.552 64.264C149.656 64.28 149.748 64.304 149.828 64.336V65.332C149.772 65.316 149.696 65.3 149.6 65.284C149.512 65.268 149.412 65.26 149.3 65.26C148.948 65.26 148.692 65.348 148.532 65.524C148.372 65.692 148.292 65.932 148.292 66.244V73H147.044ZM150.944 73V66.88H152.18V73H150.944ZM145.868 67.924V66.88H151.448V67.924H145.868ZM150.896 65.728V64.36H152.228V65.728H150.896ZM156.291 73.12C155.707 73.12 155.187 72.984 154.731 72.712C154.275 72.432 153.915 72.052 153.651 71.572C153.395 71.092 153.267 70.544 153.267 69.928C153.267 69.312 153.395 68.768 153.651 68.296C153.915 67.816 154.275 67.44 154.731 67.168C155.187 66.896 155.703 66.76 156.279 66.76C156.767 66.76 157.203 66.852 157.587 67.036C157.971 67.22 158.287 67.476 158.535 67.804C158.783 68.132 158.943 68.52 159.015 68.968H157.839C157.759 68.608 157.583 68.32 157.311 68.104C157.047 67.888 156.711 67.78 156.303 67.78C155.951 67.78 155.643 67.868 155.379 68.044C155.115 68.22 154.911 68.468 154.767 68.788C154.623 69.108 154.551 69.488 154.551 69.928C154.551 70.36 154.623 70.74 154.767 71.068C154.911 71.396 155.115 71.652 155.379 71.836C155.643 72.012 155.955 72.1 156.315 72.1C156.707 72.1 157.039 71.996 157.311 71.788C157.591 71.572 157.771 71.284 157.851 70.924H159.027C158.947 71.364 158.779 71.748 158.523 72.076C158.275 72.404 157.959 72.66 157.575 72.844C157.191 73.028 156.763 73.12 156.291 73.12ZM163.996 73C163.956 72.848 163.928 72.68 163.912 72.496C163.904 72.312 163.9 72.088 163.9 71.824H163.84V68.908C163.84 68.516 163.74 68.224 163.54 68.032C163.348 67.832 163.04 67.732 162.616 67.732C162.208 67.732 161.88 67.812 161.632 67.972C161.392 68.132 161.252 68.36 161.212 68.656H160.024C160.08 68.08 160.34 67.62 160.804 67.276C161.268 66.932 161.888 66.76 162.664 66.76C163.464 66.76 164.064 66.948 164.464 67.324C164.864 67.692 165.064 68.236 165.064 68.956V71.824C165.064 72.008 165.076 72.196 165.1 72.388C165.124 72.58 165.16 72.784 165.208 73H163.996ZM161.884 73.12C161.26 73.12 160.764 72.968 160.396 72.664C160.028 72.352 159.844 71.932 159.844 71.404C159.844 70.86 160.036 70.432 160.42 70.12C160.812 69.8 161.372 69.584 162.1 69.472L164.116 69.148V70.024L162.292 70.312C161.884 70.376 161.576 70.484 161.368 70.636C161.168 70.788 161.068 71.008 161.068 71.296C161.068 71.576 161.16 71.788 161.344 71.932C161.536 72.068 161.812 72.136 162.172 72.136C162.652 72.136 163.048 72.02 163.36 71.788C163.68 71.556 163.84 71.264 163.84 70.912L163.996 71.8C163.852 72.224 163.596 72.552 163.228 72.784C162.86 73.008 162.412 73.12 161.884 73.12ZM169.113 73.12C168.401 73.12 167.877 72.956 167.541 72.628C167.213 72.292 167.049 71.8 167.049 71.152V65.476L168.285 65.008V71.164C168.285 71.484 168.369 71.72 168.537 71.872C168.705 72.024 168.977 72.1 169.353 72.1C169.497 72.1 169.625 72.088 169.737 72.064C169.849 72.04 169.945 72.012 170.025 71.98V72.988C169.937 73.028 169.813 73.06 169.653 73.084C169.493 73.108 169.313 73.12 169.113 73.12ZM165.825 67.876V66.88H170.025V67.876H165.825ZM171.185 73V66.88H172.433V73H171.185ZM171.125 65.68V64.276H172.505V65.68H171.125ZM176.825 73.12C176.201 73.12 175.653 72.984 175.181 72.712C174.709 72.432 174.341 72.052 174.077 71.572C173.813 71.084 173.681 70.532 173.681 69.916C173.681 69.292 173.813 68.744 174.077 68.272C174.349 67.8 174.717 67.432 175.181 67.168C175.653 66.896 176.201 66.76 176.825 66.76C177.457 66.76 178.009 66.896 178.481 67.168C178.953 67.432 179.317 67.8 179.573 68.272C179.837 68.744 179.969 69.292 179.969 69.916C179.969 70.532 179.837 71.084 179.573 71.572C179.317 72.052 178.953 72.432 178.481 72.712C178.009 72.984 177.457 73.12 176.825 73.12ZM176.825 72.1C177.201 72.1 177.525 72.008 177.797 71.824C178.077 71.64 178.297 71.384 178.457 71.056C178.617 70.728 178.697 70.344 178.697 69.904C178.697 69.248 178.521 68.732 178.169 68.356C177.825 67.972 177.377 67.78 176.825 67.78C176.281 67.78 175.833 67.972 175.481 68.356C175.137 68.74 174.965 69.256 174.965 69.904C174.965 70.344 175.041 70.728 175.193 71.056C175.353 71.384 175.573 71.64 175.853 71.824C176.141 72.008 176.465 72.1 176.825 72.1ZM181.251 73V66.88H182.439V68.32H182.499V73H181.251ZM185.595 73V69.064C185.595 68.64 185.487 68.324 185.271 68.116C185.063 67.908 184.751 67.804 184.335 67.804C183.975 67.804 183.655 67.884 183.375 68.044C183.103 68.204 182.887 68.424 182.727 68.704C182.575 68.984 182.499 69.316 182.499 69.7L182.343 68.236C182.543 67.78 182.851 67.42 183.267 67.156C183.683 66.892 184.167 66.76 184.719 66.76C185.375 66.76 185.891 66.944 186.267 67.312C186.643 67.68 186.831 68.168 186.831 68.776V73H185.595ZM190.713 73.12C189.913 73.12 189.277 72.944 188.805 72.592C188.333 72.24 188.065 71.744 188.001 71.104H189.153C189.209 71.456 189.369 71.728 189.633 71.92C189.905 72.104 190.273 72.196 190.737 72.196C191.145 72.196 191.457 72.124 191.673 71.98C191.889 71.836 191.997 71.632 191.997 71.368C191.997 71.176 191.933 71.016 191.805 70.888C191.685 70.752 191.445 70.64 191.085 70.552L190.101 70.324C189.485 70.172 189.025 69.948 188.721 69.652C188.425 69.348 188.277 68.976 188.277 68.536C188.277 67.984 188.481 67.552 188.889 67.24C189.305 66.92 189.873 66.76 190.593 66.76C191.305 66.76 191.877 66.92 192.309 67.24C192.749 67.56 192.997 68.008 193.053 68.584H191.901C191.853 68.296 191.713 68.076 191.481 67.924C191.257 67.764 190.949 67.684 190.557 67.684C190.189 67.684 189.905 67.752 189.705 67.888C189.513 68.016 189.417 68.196 189.417 68.428C189.417 68.62 189.489 68.78 189.633 68.908C189.785 69.036 190.033 69.144 190.377 69.232L191.385 69.484C191.969 69.628 192.409 69.864 192.705 70.192C193.001 70.512 193.149 70.9 193.149 71.356C193.149 71.908 192.933 72.34 192.501 72.652C192.077 72.964 191.481 73.12 190.713 73.12ZM200.465 73C200.425 72.848 200.397 72.68 200.381 72.496C200.373 72.312 200.369 72.088 200.369 71.824H200.309V68.908C200.309 68.516 200.209 68.224 200.009 68.032C199.817 67.832 199.509 67.732 199.085 67.732C198.677 67.732 198.349 67.812 198.101 67.972C197.861 68.132 197.721 68.36 197.681 68.656H196.493C196.549 68.08 196.809 67.62 197.273 67.276C197.737 66.932 198.357 66.76 199.133 66.76C199.933 66.76 200.533 66.948 200.933 67.324C201.333 67.692 201.533 68.236 201.533 68.956V71.824C201.533 72.008 201.545 72.196 201.569 72.388C201.593 72.58 201.629 72.784 201.677 73H200.465ZM198.353 73.12C197.729 73.12 197.233 72.968 196.865 72.664C196.497 72.352 196.313 71.932 196.313 71.404C196.313 70.86 196.505 70.432 196.889 70.12C197.281 69.8 197.841 69.584 198.569 69.472L200.585 69.148V70.024L198.761 70.312C198.353 70.376 198.045 70.484 197.837 70.636C197.637 70.788 197.537 71.008 197.537 71.296C197.537 71.576 197.629 71.788 197.813 71.932C198.005 72.068 198.281 72.136 198.641 72.136C199.121 72.136 199.517 72.02 199.829 71.788C200.149 71.556 200.309 71.264 200.309 70.912L200.465 71.8C200.321 72.224 200.065 72.552 199.697 72.784C199.329 73.008 198.881 73.12 198.353 73.12ZM203.224 73V66.88H204.412V68.32H204.472V73H203.224ZM207.568 73V69.064C207.568 68.64 207.46 68.324 207.244 68.116C207.036 67.908 206.724 67.804 206.308 67.804C205.948 67.804 205.628 67.884 205.348 68.044C205.076 68.204 204.86 68.424 204.7 68.704C204.548 68.984 204.472 69.316 204.472 69.7L204.316 68.236C204.516 67.78 204.824 67.42 205.24 67.156C205.656 66.892 206.14 66.76 206.692 66.76C207.348 66.76 207.864 66.944 208.24 67.312C208.616 67.68 208.804 68.168 208.804 68.776V73H207.568ZM214.917 73V71.596L215.037 71.632C214.909 72.088 214.645 72.452 214.245 72.724C213.845 72.988 213.365 73.12 212.805 73.12C212.253 73.12 211.769 72.988 211.353 72.724C210.945 72.46 210.625 72.092 210.393 71.62C210.169 71.148 210.057 70.596 210.057 69.964C210.057 69.324 210.173 68.764 210.405 68.284C210.637 67.804 210.961 67.432 211.377 67.168C211.793 66.904 212.281 66.772 212.841 66.772C213.425 66.772 213.905 66.912 214.281 67.192C214.665 67.464 214.917 67.848 215.037 68.344L214.869 68.368V64.36H216.105V73H214.917ZM213.117 72.076C213.669 72.076 214.105 71.888 214.425 71.512C214.745 71.128 214.905 70.6 214.905 69.928C214.905 69.272 214.741 68.756 214.413 68.38C214.093 67.996 213.657 67.804 213.105 67.804C212.561 67.804 212.129 67.996 211.809 68.38C211.497 68.756 211.341 69.284 211.341 69.964C211.341 70.628 211.497 71.148 211.809 71.524C212.129 71.892 212.565 72.076 213.117 72.076ZM222.22 73.12C221.812 73.12 221.452 73.036 221.14 72.868C220.828 72.692 220.584 72.452 220.408 72.148C220.24 71.844 220.156 71.496 220.156 71.104V66.88H221.404V70.816C221.404 71.24 221.508 71.556 221.716 71.764C221.924 71.972 222.22 72.076 222.604 72.076C222.948 72.076 223.252 71.996 223.516 71.836C223.788 71.676 224 71.456 224.152 71.176C224.312 70.888 224.392 70.556 224.392 70.18L224.548 71.644C224.348 72.092 224.04 72.452 223.624 72.724C223.216 72.988 222.748 73.12 222.22 73.12ZM224.44 73V71.56H224.392V66.88H225.628V73H224.44ZM230.64 73.108C230.064 73.108 229.584 72.972 229.2 72.7C228.824 72.42 228.576 72.032 228.456 71.536L228.624 71.512V75.46H227.376V66.88H228.564V68.284L228.444 68.248C228.572 67.784 228.844 67.42 229.26 67.156C229.676 66.892 230.164 66.76 230.724 66.76C231.276 66.76 231.752 66.892 232.152 67.156C232.56 67.42 232.872 67.788 233.088 68.26C233.312 68.732 233.424 69.284 233.424 69.916C233.424 70.556 233.308 71.116 233.076 71.596C232.844 72.076 232.52 72.448 232.104 72.712C231.688 72.976 231.2 73.108 230.64 73.108ZM230.376 72.076C230.92 72.076 231.352 71.884 231.672 71.5C231.992 71.116 232.152 70.588 232.152 69.916C232.152 69.252 231.992 68.736 231.672 68.368C231.352 67.992 230.916 67.804 230.364 67.804C229.82 67.804 229.384 67.996 229.056 68.38C228.736 68.756 228.576 69.28 228.576 69.952C228.576 70.608 228.736 71.128 229.056 71.512C229.384 71.888 229.824 72.076 230.376 72.076ZM239.187 73V71.596L239.307 71.632C239.179 72.088 238.915 72.452 238.515 72.724C238.115 72.988 237.635 73.12 237.075 73.12C236.523 73.12 236.039 72.988 235.623 72.724C235.215 72.46 234.895 72.092 234.663 71.62C234.439 71.148 234.327 70.596 234.327 69.964C234.327 69.324 234.443 68.764 234.675 68.284C234.907 67.804 235.231 67.432 235.647 67.168C236.063 66.904 236.551 66.772 237.111 66.772C237.695 66.772 238.175 66.912 238.551 67.192C238.935 67.464 239.187 67.848 239.307 68.344L239.139 68.368V64.36H240.375V73H239.187ZM237.387 72.076C237.939 72.076 238.375 71.888 238.695 71.512C239.015 71.128 239.175 70.6 239.175 69.928C239.175 69.272 239.011 68.756 238.683 68.38C238.363 67.996 237.927 67.804 237.375 67.804C236.831 67.804 236.399 67.996 236.079 68.38C235.767 68.756 235.611 69.284 235.611 69.964C235.611 70.628 235.767 71.148 236.079 71.524C236.399 71.892 236.835 72.076 237.387 72.076ZM245.922 73C245.882 72.848 245.854 72.68 245.838 72.496C245.83 72.312 245.826 72.088 245.826 71.824H245.766V68.908C245.766 68.516 245.666 68.224 245.466 68.032C245.274 67.832 244.966 67.732 244.542 67.732C244.134 67.732 243.806 67.812 243.558 67.972C243.318 68.132 243.178 68.36 243.138 68.656H241.95C242.006 68.08 242.266 67.62 242.73 67.276C243.194 66.932 243.814 66.76 244.59 66.76C245.39 66.76 245.99 66.948 246.39 67.324C246.79 67.692 246.99 68.236 246.99 68.956V71.824C246.99 72.008 247.002 72.196 247.026 72.388C247.05 72.58 247.086 72.784 247.134 73H245.922ZM243.81 73.12C243.186 73.12 242.69 72.968 242.322 72.664C241.954 72.352 241.77 71.932 241.77 71.404C241.77 70.86 241.962 70.432 242.346 70.12C242.738 69.8 243.298 69.584 244.026 69.472L246.042 69.148V70.024L244.218 70.312C243.81 70.376 243.502 70.484 243.294 70.636C243.094 70.788 242.994 71.008 242.994 71.296C242.994 71.576 243.086 71.788 243.27 71.932C243.462 72.068 243.738 72.136 244.098 72.136C244.578 72.136 244.974 72.02 245.286 71.788C245.606 71.556 245.766 71.264 245.766 70.912L245.922 71.8C245.778 72.224 245.522 72.552 245.154 72.784C244.786 73.008 244.338 73.12 243.81 73.12ZM251.039 73.12C250.327 73.12 249.803 72.956 249.467 72.628C249.139 72.292 248.975 71.8 248.975 71.152V65.476L250.211 65.008V71.164C250.211 71.484 250.295 71.72 250.463 71.872C250.631 72.024 250.903 72.1 251.279 72.1C251.423 72.1 251.551 72.088 251.663 72.064C251.775 72.04 251.871 72.012 251.951 71.98V72.988C251.863 73.028 251.739 73.06 251.579 73.084C251.419 73.108 251.239 73.12 251.039 73.12ZM247.751 67.876V66.88H251.951V67.876H247.751ZM255.621 73.12C255.005 73.12 254.461 72.984 253.989 72.712C253.525 72.44 253.161 72.064 252.897 71.584C252.633 71.104 252.501 70.552 252.501 69.928C252.501 69.296 252.629 68.744 252.885 68.272C253.149 67.792 253.517 67.42 253.989 67.156C254.461 66.892 255.001 66.76 255.609 66.76C256.201 66.76 256.713 66.888 257.145 67.144C257.585 67.392 257.921 67.74 258.153 68.188C258.393 68.636 258.513 69.168 258.513 69.784C258.513 69.88 258.509 69.972 258.501 70.06C258.501 70.14 258.493 70.224 258.477 70.312H253.341V69.376H257.601L257.289 69.748C257.289 69.092 257.141 68.592 256.845 68.248C256.549 67.904 256.137 67.732 255.609 67.732C255.041 67.732 254.589 67.928 254.253 68.32C253.925 68.704 253.761 69.24 253.761 69.928C253.761 70.624 253.925 71.168 254.253 71.56C254.589 71.952 255.053 72.148 255.645 72.148C256.005 72.148 256.317 72.076 256.581 71.932C256.845 71.78 257.041 71.56 257.169 71.272H258.345C258.145 71.848 257.805 72.3 257.325 72.628C256.853 72.956 256.285 73.12 255.621 73.12ZM262.021 73.12C261.222 73.12 260.586 72.944 260.114 72.592C259.642 72.24 259.374 71.744 259.31 71.104H260.462C260.518 71.456 260.678 71.728 260.942 71.92C261.214 72.104 261.582 72.196 262.046 72.196C262.454 72.196 262.766 72.124 262.982 71.98C263.198 71.836 263.306 71.632 263.306 71.368C263.306 71.176 263.242 71.016 263.114 70.888C262.994 70.752 262.754 70.64 262.394 70.552L261.41 70.324C260.794 70.172 260.334 69.948 260.03 69.652C259.734 69.348 259.586 68.976 259.586 68.536C259.586 67.984 259.79 67.552 260.198 67.24C260.614 66.92 261.182 66.76 261.902 66.76C262.614 66.76 263.186 66.92 263.618 67.24C264.058 67.56 264.306 68.008 264.362 68.584H263.21C263.162 68.296 263.022 68.076 262.79 67.924C262.566 67.764 262.258 67.684 261.866 67.684C261.498 67.684 261.214 67.752 261.014 67.888C260.822 68.016 260.726 68.196 260.726 68.428C260.726 68.62 260.798 68.78 260.942 68.908C261.094 69.036 261.342 69.144 261.686 69.232L262.694 69.484C263.278 69.628 263.718 69.864 264.014 70.192C264.31 70.512 264.458 70.9 264.458 71.356C264.458 71.908 264.242 72.34 263.81 72.652C263.386 72.964 262.79 73.12 262.021 73.12ZM23.136 88L21.264 81.88H22.548L23.82 86.8H23.64L25.188 81.88H26.268L27.816 86.8H27.648L28.908 81.88H30.132L28.26 88H27.168L25.62 83.164H25.8L24.228 88H23.136ZM31.2158 88V81.88H32.4638V88H31.2158ZM31.1558 80.68V79.276H32.5358V80.68H31.1558ZM36.773 88.12C36.061 88.12 35.537 87.956 35.201 87.628C34.873 87.292 34.709 86.8 34.709 86.152V80.476L35.945 80.008V86.164C35.945 86.484 36.029 86.72 36.197 86.872C36.365 87.024 36.637 87.1 37.013 87.1C37.157 87.1 37.285 87.088 37.397 87.064C37.509 87.04 37.605 87.012 37.685 86.98V87.988C37.597 88.028 37.473 88.06 37.313 88.084C37.153 88.108 36.973 88.12 36.773 88.12ZM33.485 82.876V81.88H37.685V82.876H33.485ZM38.8682 88V79.36H40.1162V88H38.8682ZM43.2122 88V84.064C43.2122 83.64 43.1042 83.324 42.8882 83.116C42.6802 82.908 42.3682 82.804 41.9522 82.804C41.5922 82.804 41.2722 82.884 40.9922 83.044C40.7202 83.204 40.5042 83.424 40.3442 83.704C40.1922 83.984 40.1162 84.316 40.1162 84.7L39.9602 83.236C40.1602 82.78 40.4682 82.42 40.8842 82.156C41.3002 81.892 41.7842 81.76 42.3362 81.76C42.9922 81.76 43.5082 81.944 43.8842 82.312C44.2602 82.68 44.4482 83.168 44.4482 83.776V88H43.2122ZM48.8095 88.12C48.1855 88.12 47.6375 87.984 47.1655 87.712C46.6935 87.432 46.3255 87.052 46.0615 86.572C45.7975 86.084 45.6655 85.532 45.6655 84.916C45.6655 84.292 45.7975 83.744 46.0615 83.272C46.3335 82.8 46.7015 82.432 47.1655 82.168C47.6375 81.896 48.1855 81.76 48.8095 81.76C49.4415 81.76 49.9935 81.896 50.4655 82.168C50.9375 82.432 51.3015 82.8 51.5575 83.272C51.8215 83.744 51.9535 84.292 51.9535 84.916C51.9535 85.532 51.8215 86.084 51.5575 86.572C51.3015 87.052 50.9375 87.432 50.4655 87.712C49.9935 87.984 49.4415 88.12 48.8095 88.12ZM48.8095 87.1C49.1855 87.1 49.5095 87.008 49.7815 86.824C50.0615 86.64 50.2815 86.384 50.4415 86.056C50.6015 85.728 50.6815 85.344 50.6815 84.904C50.6815 84.248 50.5055 83.732 50.1535 83.356C49.8095 82.972 49.3615 82.78 48.8095 82.78C48.2655 82.78 47.8175 82.972 47.4655 83.356C47.1215 83.74 46.9495 84.256 46.9495 84.904C46.9495 85.344 47.0255 85.728 47.1775 86.056C47.3375 86.384 47.5575 86.64 47.8375 86.824C48.1255 87.008 48.4495 87.1 48.8095 87.1ZM55.2274 88.12C54.8194 88.12 54.4594 88.036 54.1474 87.868C53.8354 87.692 53.5914 87.452 53.4154 87.148C53.2474 86.844 53.1634 86.496 53.1634 86.104V81.88H54.4114V85.816C54.4114 86.24 54.5154 86.556 54.7234 86.764C54.9314 86.972 55.2274 87.076 55.6114 87.076C55.9554 87.076 56.2594 86.996 56.5234 86.836C56.7954 86.676 57.0074 86.456 57.1594 86.176C57.3194 85.888 57.3994 85.556 57.3994 85.18L57.5554 86.644C57.3554 87.092 57.0474 87.452 56.6314 87.724C56.2234 87.988 55.7554 88.12 55.2274 88.12ZM57.4474 88V86.56H57.3994V81.88H58.6354V88H57.4474ZM62.9292 88.12C62.2172 88.12 61.6932 87.956 61.3572 87.628C61.0292 87.292 60.8652 86.8 60.8652 86.152V80.476L62.1012 80.008V86.164C62.1012 86.484 62.1852 86.72 62.3532 86.872C62.5212 87.024 62.7932 87.1 63.1692 87.1C63.3132 87.1 63.4412 87.088 63.5532 87.064C63.6652 87.04 63.7612 87.012 63.8412 86.98V87.988C63.7532 88.028 63.6292 88.06 63.4692 88.084C63.3092 88.108 63.1292 88.12 62.9292 88.12ZM59.6412 82.876V81.88H63.8412V82.876H59.6412ZM71.1836 88C71.1436 87.848 71.1156 87.68 71.0996 87.496C71.0916 87.312 71.0876 87.088 71.0876 86.824H71.0276V83.908C71.0276 83.516 70.9276 83.224 70.7276 83.032C70.5356 82.832 70.2276 82.732 69.8036 82.732C69.3956 82.732 69.0676 82.812 68.8196 82.972C68.5796 83.132 68.4396 83.36 68.3996 83.656H67.2116C67.2676 83.08 67.5276 82.62 67.9916 82.276C68.4556 81.932 69.0756 81.76 69.8516 81.76C70.6516 81.76 71.2516 81.948 71.6516 82.324C72.0516 82.692 72.2516 83.236 72.2516 83.956V86.824C72.2516 87.008 72.2636 87.196 72.2876 87.388C72.3116 87.58 72.3476 87.784 72.3956 88H71.1836ZM69.0716 88.12C68.4476 88.12 67.9516 87.968 67.5836 87.664C67.2156 87.352 67.0316 86.932 67.0316 86.404C67.0316 85.86 67.2236 85.432 67.6076 85.12C67.9996 84.8 68.5596 84.584 69.2876 84.472L71.3036 84.148V85.024L69.4796 85.312C69.0716 85.376 68.7636 85.484 68.5556 85.636C68.3556 85.788 68.2556 86.008 68.2556 86.296C68.2556 86.576 68.3476 86.788 68.5316 86.932C68.7236 87.068 68.9996 87.136 69.3596 87.136C69.8396 87.136 70.2356 87.02 70.5476 86.788C70.8676 86.556 71.0276 86.264 71.0276 85.912L71.1836 86.8C71.0396 87.224 70.7836 87.552 70.4156 87.784C70.0476 88.008 69.5996 88.12 69.0716 88.12ZM77.2064 88.108C76.6304 88.108 76.1504 87.972 75.7664 87.7C75.3904 87.42 75.1424 87.032 75.0224 86.536L75.1904 86.512V90.46H73.9424V81.88H75.1304V83.284L75.0104 83.248C75.1384 82.784 75.4104 82.42 75.8264 82.156C76.2424 81.892 76.7304 81.76 77.2904 81.76C77.8424 81.76 78.3184 81.892 78.7184 82.156C79.1264 82.42 79.4384 82.788 79.6544 83.26C79.8784 83.732 79.9904 84.284 79.9904 84.916C79.9904 85.556 79.8744 86.116 79.6424 86.596C79.4104 87.076 79.0864 87.448 78.6704 87.712C78.2544 87.976 77.7664 88.108 77.2064 88.108ZM76.9424 87.076C77.4864 87.076 77.9184 86.884 78.2384 86.5C78.5584 86.116 78.7184 85.588 78.7184 84.916C78.7184 84.252 78.5584 83.736 78.2384 83.368C77.9184 82.992 77.4824 82.804 76.9304 82.804C76.3864 82.804 75.9504 82.996 75.6224 83.38C75.3024 83.756 75.1424 84.28 75.1424 84.952C75.1424 85.608 75.3024 86.128 75.6224 86.512C75.9504 86.888 76.3904 87.076 76.9424 87.076ZM84.5658 88.108C83.9898 88.108 83.5098 87.972 83.1258 87.7C82.7498 87.42 82.5018 87.032 82.3818 86.536L82.5498 86.512V90.46H81.3018V81.88H82.4898V83.284L82.3698 83.248C82.4978 82.784 82.7698 82.42 83.1858 82.156C83.6018 81.892 84.0898 81.76 84.6498 81.76C85.2018 81.76 85.6778 81.892 86.0778 82.156C86.4858 82.42 86.7978 82.788 87.0138 83.26C87.2378 83.732 87.3498 84.284 87.3498 84.916C87.3498 85.556 87.2338 86.116 87.0018 86.596C86.7698 87.076 86.4458 87.448 86.0298 87.712C85.6138 87.976 85.1258 88.108 84.5658 88.108ZM84.3018 87.076C84.8458 87.076 85.2778 86.884 85.5978 86.5C85.9178 86.116 86.0778 85.588 86.0778 84.916C86.0778 84.252 85.9178 83.736 85.5978 83.368C85.2778 82.992 84.8418 82.804 84.2898 82.804C83.7458 82.804 83.3098 82.996 82.9818 83.38C82.6618 83.756 82.5018 84.28 82.5018 84.952C82.5018 85.608 82.6618 86.128 82.9818 86.512C83.3098 86.888 83.7498 87.076 84.3018 87.076ZM95.4443 88V86.596L95.5643 86.632C95.4363 87.088 95.1723 87.452 94.7723 87.724C94.3723 87.988 93.8923 88.12 93.3323 88.12C92.7803 88.12 92.2963 87.988 91.8803 87.724C91.4723 87.46 91.1523 87.092 90.9203 86.62C90.6963 86.148 90.5843 85.596 90.5843 84.964C90.5843 84.324 90.7003 83.764 90.9323 83.284C91.1643 82.804 91.4883 82.432 91.9043 82.168C92.3203 81.904 92.8083 81.772 93.3683 81.772C93.9523 81.772 94.4323 81.912 94.8083 82.192C95.1923 82.464 95.4443 82.848 95.5643 83.344L95.3963 83.368V79.36H96.6323V88H95.4443ZM93.6443 87.076C94.1963 87.076 94.6323 86.888 94.9523 86.512C95.2723 86.128 95.4323 85.6 95.4323 84.928C95.4323 84.272 95.2683 83.756 94.9403 83.38C94.6203 82.996 94.1843 82.804 93.6323 82.804C93.0883 82.804 92.6563 82.996 92.3363 83.38C92.0243 83.756 91.8683 84.284 91.8683 84.964C91.8683 85.628 92.0243 86.148 92.3363 86.524C92.6563 86.892 93.0923 87.076 93.6443 87.076ZM101.052 88.12C100.428 88.12 99.8797 87.984 99.4077 87.712C98.9357 87.432 98.5677 87.052 98.3037 86.572C98.0397 86.084 97.9077 85.532 97.9077 84.916C97.9077 84.292 98.0397 83.744 98.3037 83.272C98.5757 82.8 98.9437 82.432 99.4077 82.168C99.8797 81.896 100.428 81.76 101.052 81.76C101.684 81.76 102.236 81.896 102.708 82.168C103.18 82.432 103.544 82.8 103.8 83.272C104.064 83.744 104.196 84.292 104.196 84.916C104.196 85.532 104.064 86.084 103.8 86.572C103.544 87.052 103.18 87.432 102.708 87.712C102.236 87.984 101.684 88.12 101.052 88.12ZM101.052 87.1C101.428 87.1 101.752 87.008 102.024 86.824C102.304 86.64 102.524 86.384 102.684 86.056C102.844 85.728 102.924 85.344 102.924 84.904C102.924 84.248 102.748 83.732 102.396 83.356C102.052 82.972 101.604 82.78 101.052 82.78C100.508 82.78 100.06 82.972 99.7077 83.356C99.3637 83.74 99.1917 84.256 99.1917 84.904C99.1917 85.344 99.2677 85.728 99.4197 86.056C99.5797 86.384 99.7997 86.64 100.08 86.824C100.368 87.008 100.692 87.1 101.052 87.1ZM106.609 88L104.737 81.88H106.021L107.293 86.8H107.113L108.661 81.88H109.741L111.289 86.8H111.121L112.381 81.88H113.605L111.733 88H110.641L109.093 83.164H109.273L107.701 88H106.609ZM114.747 88V81.88H115.935V83.32H115.995V88H114.747ZM119.091 88V84.064C119.091 83.64 118.983 83.324 118.767 83.116C118.559 82.908 118.247 82.804 117.831 82.804C117.471 82.804 117.151 82.884 116.871 83.044C116.599 83.204 116.383 83.424 116.223 83.704C116.071 83.984 115.995 84.316 115.995 84.7L115.839 83.236C116.039 82.78 116.347 82.42 116.763 82.156C117.179 81.892 117.663 81.76 118.215 81.76C118.871 81.76 119.387 81.944 119.763 82.312C120.139 82.68 120.327 83.168 120.327 83.776V88H119.091ZM122.024 88V79.36H123.272V88H122.024ZM127.688 88.12C127.064 88.12 126.516 87.984 126.044 87.712C125.572 87.432 125.204 87.052 124.94 86.572C124.676 86.084 124.544 85.532 124.544 84.916C124.544 84.292 124.676 83.744 124.94 83.272C125.212 82.8 125.58 82.432 126.044 82.168C126.516 81.896 127.064 81.76 127.688 81.76C128.32 81.76 128.872 81.896 129.344 82.168C129.816 82.432 130.18 82.8 130.436 83.272C130.7 83.744 130.832 84.292 130.832 84.916C130.832 85.532 130.7 86.084 130.436 86.572C130.18 87.052 129.816 87.432 129.344 87.712C128.872 87.984 128.32 88.12 127.688 88.12ZM127.688 87.1C128.064 87.1 128.388 87.008 128.66 86.824C128.94 86.64 129.16 86.384 129.32 86.056C129.48 85.728 129.56 85.344 129.56 84.904C129.56 84.248 129.384 83.732 129.032 83.356C128.688 82.972 128.24 82.78 127.688 82.78C127.144 82.78 126.696 82.972 126.344 83.356C126 83.74 125.828 84.256 125.828 84.904C125.828 85.344 125.904 85.728 126.056 86.056C126.216 86.384 126.436 86.64 126.716 86.824C127.004 87.008 127.328 87.1 127.688 87.1ZM135.895 88C135.855 87.848 135.827 87.68 135.811 87.496C135.803 87.312 135.799 87.088 135.799 86.824H135.739V83.908C135.739 83.516 135.639 83.224 135.439 83.032C135.247 82.832 134.939 82.732 134.515 82.732C134.107 82.732 133.779 82.812 133.531 82.972C133.291 83.132 133.151 83.36 133.111 83.656H131.923C131.979 83.08 132.239 82.62 132.703 82.276C133.167 81.932 133.787 81.76 134.563 81.76C135.363 81.76 135.963 81.948 136.363 82.324C136.763 82.692 136.963 83.236 136.963 83.956V86.824C136.963 87.008 136.975 87.196 136.999 87.388C137.023 87.58 137.059 87.784 137.107 88H135.895ZM133.783 88.12C133.159 88.12 132.663 87.968 132.295 87.664C131.927 87.352 131.743 86.932 131.743 86.404C131.743 85.86 131.935 85.432 132.319 85.12C132.711 84.8 133.271 84.584 133.999 84.472L136.015 84.148V85.024L134.191 85.312C133.783 85.376 133.475 85.484 133.267 85.636C133.067 85.788 132.967 86.008 132.967 86.296C132.967 86.576 133.059 86.788 133.243 86.932C133.435 87.068 133.711 87.136 134.071 87.136C134.551 87.136 134.947 87.02 135.259 86.788C135.579 86.556 135.739 86.264 135.739 85.912L135.895 86.8C135.751 87.224 135.495 87.552 135.127 87.784C134.759 88.008 134.311 88.12 133.783 88.12ZM143.022 88V86.596L143.142 86.632C143.014 87.088 142.75 87.452 142.35 87.724C141.95 87.988 141.47 88.12 140.91 88.12C140.358 88.12 139.874 87.988 139.458 87.724C139.05 87.46 138.73 87.092 138.498 86.62C138.274 86.148 138.162 85.596 138.162 84.964C138.162 84.324 138.278 83.764 138.51 83.284C138.742 82.804 139.066 82.432 139.482 82.168C139.898 81.904 140.386 81.772 140.946 81.772C141.53 81.772 142.01 81.912 142.386 82.192C142.77 82.464 143.022 82.848 143.142 83.344L142.974 83.368V79.36H144.21V88H143.022ZM141.222 87.076C141.774 87.076 142.21 86.888 142.53 86.512C142.85 86.128 143.01 85.6 143.01 84.928C143.01 84.272 142.846 83.756 142.518 83.38C142.198 82.996 141.762 82.804 141.21 82.804C140.666 82.804 140.234 82.996 139.914 83.38C139.602 83.756 139.446 84.284 139.446 84.964C139.446 85.628 139.602 86.148 139.914 86.524C140.234 86.892 140.67 87.076 141.222 87.076ZM148.174 88.12C147.374 88.12 146.738 87.944 146.266 87.592C145.794 87.24 145.526 86.744 145.462 86.104H146.614C146.67 86.456 146.83 86.728 147.094 86.92C147.366 87.104 147.734 87.196 148.198 87.196C148.606 87.196 148.918 87.124 149.134 86.98C149.35 86.836 149.458 86.632 149.458 86.368C149.458 86.176 149.394 86.016 149.266 85.888C149.146 85.752 148.906 85.64 148.546 85.552L147.562 85.324C146.946 85.172 146.486 84.948 146.182 84.652C145.886 84.348 145.738 83.976 145.738 83.536C145.738 82.984 145.942 82.552 146.35 82.24C146.766 81.92 147.334 81.76 148.054 81.76C148.766 81.76 149.338 81.92 149.77 82.24C150.21 82.56 150.458 83.008 150.514 83.584H149.362C149.314 83.296 149.174 83.076 148.942 82.924C148.718 82.764 148.41 82.684 148.018 82.684C147.65 82.684 147.366 82.752 147.166 82.888C146.974 83.016 146.878 83.196 146.878 83.428C146.878 83.62 146.95 83.78 147.094 83.908C147.246 84.036 147.494 84.144 147.838 84.232L148.846 84.484C149.43 84.628 149.87 84.864 150.166 85.192C150.462 85.512 150.61 85.9 150.61 86.356C150.61 86.908 150.394 87.34 149.962 87.652C149.538 87.964 148.942 88.12 148.174 88.12ZM156.798 88.12C156.174 88.12 155.626 87.984 155.154 87.712C154.682 87.432 154.314 87.052 154.05 86.572C153.786 86.084 153.654 85.532 153.654 84.916C153.654 84.292 153.786 83.744 154.05 83.272C154.322 82.8 154.69 82.432 155.154 82.168C155.626 81.896 156.174 81.76 156.798 81.76C157.43 81.76 157.982 81.896 158.454 82.168C158.926 82.432 159.29 82.8 159.546 83.272C159.81 83.744 159.942 84.292 159.942 84.916C159.942 85.532 159.81 86.084 159.546 86.572C159.29 87.052 158.926 87.432 158.454 87.712C157.982 87.984 157.43 88.12 156.798 88.12ZM156.798 87.1C157.174 87.1 157.498 87.008 157.77 86.824C158.05 86.64 158.27 86.384 158.43 86.056C158.59 85.728 158.67 85.344 158.67 84.904C158.67 84.248 158.494 83.732 158.142 83.356C157.798 82.972 157.35 82.78 156.798 82.78C156.254 82.78 155.806 82.972 155.454 83.356C155.11 83.74 154.938 84.256 154.938 84.904C154.938 85.344 155.014 85.728 155.166 86.056C155.326 86.384 155.546 86.64 155.826 86.824C156.114 87.008 156.438 87.1 156.798 87.1ZM161.224 88V81.88H162.412V83.404H162.472V88H161.224ZM162.472 84.808L162.316 83.356C162.46 82.836 162.708 82.44 163.06 82.168C163.412 81.896 163.832 81.76 164.32 81.76C164.504 81.76 164.632 81.776 164.704 81.808V82.984C164.664 82.968 164.608 82.96 164.536 82.96C164.464 82.952 164.376 82.948 164.272 82.948C163.672 82.948 163.22 83.104 162.916 83.416C162.62 83.728 162.472 84.192 162.472 84.808ZM170.729 88.12C170.145 88.12 169.625 87.984 169.169 87.712C168.713 87.432 168.353 87.052 168.089 86.572C167.833 86.092 167.705 85.544 167.705 84.928C167.705 84.312 167.833 83.768 168.089 83.296C168.353 82.816 168.713 82.44 169.169 82.168C169.625 81.896 170.141 81.76 170.717 81.76C171.205 81.76 171.641 81.852 172.025 82.036C172.409 82.22 172.725 82.476 172.973 82.804C173.221 83.132 173.381 83.52 173.453 83.968H172.277C172.197 83.608 172.021 83.32 171.749 83.104C171.485 82.888 171.149 82.78 170.741 82.78C170.389 82.78 170.081 82.868 169.817 83.044C169.553 83.22 169.349 83.468 169.205 83.788C169.061 84.108 168.989 84.488 168.989 84.928C168.989 85.36 169.061 85.74 169.205 86.068C169.349 86.396 169.553 86.652 169.817 86.836C170.081 87.012 170.393 87.1 170.753 87.1C171.145 87.1 171.477 86.996 171.749 86.788C172.029 86.572 172.209 86.284 172.289 85.924H173.465C173.385 86.364 173.217 86.748 172.961 87.076C172.713 87.404 172.397 87.66 172.013 87.844C171.629 88.028 171.201 88.12 170.729 88.12ZM177.341 88.12C176.717 88.12 176.169 87.984 175.697 87.712C175.225 87.432 174.857 87.052 174.593 86.572C174.329 86.084 174.197 85.532 174.197 84.916C174.197 84.292 174.329 83.744 174.593 83.272C174.865 82.8 175.233 82.432 175.697 82.168C176.169 81.896 176.717 81.76 177.341 81.76C177.973 81.76 178.525 81.896 178.997 82.168C179.469 82.432 179.833 82.8 180.089 83.272C180.353 83.744 180.485 84.292 180.485 84.916C180.485 85.532 180.353 86.084 180.089 86.572C179.833 87.052 179.469 87.432 178.997 87.712C178.525 87.984 177.973 88.12 177.341 88.12ZM177.341 87.1C177.717 87.1 178.041 87.008 178.313 86.824C178.593 86.64 178.813 86.384 178.973 86.056C179.133 85.728 179.213 85.344 179.213 84.904C179.213 84.248 179.037 83.732 178.685 83.356C178.341 82.972 177.893 82.78 177.341 82.78C176.797 82.78 176.349 82.972 175.997 83.356C175.653 83.74 175.481 84.256 175.481 84.904C175.481 85.344 175.557 85.728 175.709 86.056C175.869 86.384 176.089 86.64 176.369 86.824C176.657 87.008 176.981 87.1 177.341 87.1ZM181.767 88V81.88H182.955V83.32H183.015V88H181.767ZM185.895 88V84.004C185.895 83.588 185.799 83.284 185.607 83.092C185.415 82.9 185.139 82.804 184.779 82.804C184.443 82.804 184.139 82.884 183.867 83.044C183.603 83.196 183.395 83.412 183.243 83.692C183.091 83.964 183.015 84.288 183.015 84.664L182.859 83.236C183.059 82.78 183.359 82.42 183.759 82.156C184.167 81.892 184.623 81.76 185.127 81.76C185.735 81.76 186.219 81.936 186.579 82.288C186.947 82.64 187.131 83.104 187.131 83.68V88H185.895ZM190.023 88V84.004C190.023 83.588 189.923 83.284 189.723 83.092C189.531 82.9 189.255 82.804 188.895 82.804C188.567 82.804 188.267 82.884 187.995 83.044C187.731 83.196 187.519 83.412 187.359 83.692C187.207 83.964 187.131 84.288 187.131 84.664L186.879 83.236C187.087 82.78 187.399 82.42 187.815 82.156C188.239 81.892 188.711 81.76 189.231 81.76C189.847 81.76 190.339 81.94 190.707 82.3C191.075 82.652 191.259 83.124 191.259 83.716V88H190.023ZM196.199 88.108C195.623 88.108 195.143 87.972 194.759 87.7C194.383 87.42 194.135 87.032 194.015 86.536L194.183 86.512V90.46H192.935V81.88H194.123V83.284L194.003 83.248C194.131 82.784 194.403 82.42 194.819 82.156C195.235 81.892 195.723 81.76 196.283 81.76C196.835 81.76 197.311 81.892 197.711 82.156C198.119 82.42 198.431 82.788 198.647 83.26C198.871 83.732 198.983 84.284 198.983 84.916C198.983 85.556 198.867 86.116 198.635 86.596C198.403 87.076 198.079 87.448 197.663 87.712C197.247 87.976 196.759 88.108 196.199 88.108ZM195.935 87.076C196.479 87.076 196.911 86.884 197.231 86.5C197.551 86.116 197.711 85.588 197.711 84.916C197.711 84.252 197.551 83.736 197.231 83.368C196.911 82.992 196.475 82.804 195.923 82.804C195.379 82.804 194.943 82.996 194.615 83.38C194.295 83.756 194.135 84.28 194.135 84.952C194.135 85.608 194.295 86.128 194.615 86.512C194.943 86.888 195.383 87.076 195.935 87.076ZM200.294 88V79.36H201.542V88H200.294ZM205.934 88.12C205.318 88.12 204.774 87.984 204.302 87.712C203.838 87.44 203.474 87.064 203.21 86.584C202.946 86.104 202.814 85.552 202.814 84.928C202.814 84.296 202.942 83.744 203.198 83.272C203.462 82.792 203.83 82.42 204.302 82.156C204.774 81.892 205.314 81.76 205.922 81.76C206.514 81.76 207.026 81.888 207.458 82.144C207.898 82.392 208.234 82.74 208.466 83.188C208.706 83.636 208.826 84.168 208.826 84.784C208.826 84.88 208.822 84.972 208.814 85.06C208.814 85.14 208.806 85.224 208.79 85.312H203.654V84.376H207.914L207.602 84.748C207.602 84.092 207.454 83.592 207.158 83.248C206.862 82.904 206.45 82.732 205.922 82.732C205.354 82.732 204.902 82.928 204.566 83.32C204.238 83.704 204.074 84.24 204.074 84.928C204.074 85.624 204.238 86.168 204.566 86.56C204.902 86.952 205.366 87.148 205.958 87.148C206.318 87.148 206.63 87.076 206.894 86.932C207.158 86.78 207.354 86.56 207.482 86.272H208.658C208.458 86.848 208.118 87.3 207.638 87.628C207.166 87.956 206.598 88.12 205.934 88.12ZM213.834 88L211.878 85.204L209.394 81.88H210.81L212.598 84.436L215.25 88H213.834ZM211.962 84.436L213.786 81.88H215.154L212.586 85.288L211.962 84.436ZM212.466 85.324L210.498 88H209.118L211.866 84.448L212.466 85.324ZM218.845 88V79.36H220.093V88H218.845ZM224.509 88.12C223.885 88.12 223.337 87.984 222.865 87.712C222.393 87.432 222.025 87.052 221.761 86.572C221.497 86.084 221.365 85.532 221.365 84.916C221.365 84.292 221.497 83.744 221.761 83.272C222.033 82.8 222.401 82.432 222.865 82.168C223.337 81.896 223.885 81.76 224.509 81.76C225.141 81.76 225.693 81.896 226.165 82.168C226.637 82.432 227.001 82.8 227.257 83.272C227.521 83.744 227.653 84.292 227.653 84.916C227.653 85.532 227.521 86.084 227.257 86.572C227.001 87.052 226.637 87.432 226.165 87.712C225.693 87.984 225.141 88.12 224.509 88.12ZM224.509 87.1C224.885 87.1 225.209 87.008 225.481 86.824C225.761 86.64 225.981 86.384 226.141 86.056C226.301 85.728 226.381 85.344 226.381 84.904C226.381 84.248 226.205 83.732 225.853 83.356C225.509 82.972 225.061 82.78 224.509 82.78C223.965 82.78 223.517 82.972 223.165 83.356C222.821 83.74 222.649 84.256 222.649 84.904C222.649 85.344 222.725 85.728 222.877 86.056C223.037 86.384 223.257 86.64 223.537 86.824C223.825 87.008 224.149 87.1 224.509 87.1ZM231.526 90.58C230.758 90.58 230.122 90.404 229.618 90.052C229.122 89.708 228.822 89.248 228.718 88.672H229.894C229.974 88.936 230.15 89.144 230.422 89.296C230.702 89.448 231.074 89.524 231.538 89.524C232.138 89.524 232.586 89.376 232.882 89.08C233.178 88.784 233.326 88.344 233.326 87.76V86.44L233.434 86.464C233.314 86.928 233.054 87.296 232.654 87.568C232.254 87.832 231.774 87.964 231.214 87.964C230.678 87.964 230.206 87.836 229.798 87.58C229.39 87.324 229.074 86.968 228.85 86.512C228.626 86.048 228.514 85.508 228.514 84.892C228.514 84.268 228.63 83.72 228.862 83.248C229.094 82.776 229.418 82.412 229.834 82.156C230.258 81.9 230.75 81.772 231.31 81.772C231.886 81.772 232.362 81.912 232.738 82.192C233.122 82.464 233.366 82.852 233.47 83.356L233.374 83.368V81.88H234.562V87.748C234.562 88.628 234.29 89.32 233.746 89.824C233.21 90.328 232.47 90.58 231.526 90.58ZM231.586 86.956C232.122 86.956 232.55 86.768 232.87 86.392C233.198 86.016 233.362 85.5 233.362 84.844C233.362 84.204 233.198 83.7 232.87 83.332C232.55 82.964 232.118 82.78 231.574 82.78C231.03 82.78 230.598 82.968 230.278 83.344C229.958 83.712 229.798 84.224 229.798 84.88C229.798 85.52 229.958 86.028 230.278 86.404C230.606 86.772 231.042 86.956 231.586 86.956ZM236.317 88V81.88H237.565V88H236.317ZM236.257 80.68V79.276H237.637V80.68H236.257ZM239.317 88V81.88H240.505V83.32H240.565V88H239.317ZM243.661 88V84.064C243.661 83.64 243.553 83.324 243.337 83.116C243.129 82.908 242.817 82.804 242.401 82.804C242.041 82.804 241.721 82.884 241.441 83.044C241.169 83.204 240.953 83.424 240.793 83.704C240.641 83.984 240.565 84.316 240.565 84.7L240.409 83.236C240.609 82.78 240.917 82.42 241.333 82.156C241.749 81.892 242.233 81.76 242.785 81.76C243.441 81.76 243.957 81.944 244.333 82.312C244.709 82.68 244.897 83.168 244.897 83.776V88H243.661ZM248.779 88.12C247.979 88.12 247.343 87.944 246.871 87.592C246.399 87.24 246.131 86.744 246.067 86.104H247.219C247.275 86.456 247.435 86.728 247.699 86.92C247.971 87.104 248.339 87.196 248.803 87.196C249.211 87.196 249.523 87.124 249.739 86.98C249.955 86.836 250.063 86.632 250.063 86.368C250.063 86.176 249.999 86.016 249.871 85.888C249.751 85.752 249.511 85.64 249.151 85.552L248.167 85.324C247.551 85.172 247.091 84.948 246.787 84.652C246.491 84.348 246.343 83.976 246.343 83.536C246.343 82.984 246.547 82.552 246.955 82.24C247.371 81.92 247.939 81.76 248.659 81.76C249.371 81.76 249.943 81.92 250.375 82.24C250.815 82.56 251.063 83.008 251.119 83.584H249.967C249.919 83.296 249.779 83.076 249.547 82.924C249.323 82.764 249.015 82.684 248.623 82.684C248.255 82.684 247.971 82.752 247.771 82.888C247.579 83.016 247.483 83.196 247.483 83.428C247.483 83.62 247.555 83.78 247.699 83.908C247.851 84.036 248.099 84.144 248.443 84.232L249.451 84.484C250.035 84.628 250.475 84.864 250.771 85.192C251.067 85.512 251.215 85.9 251.215 86.356C251.215 86.908 250.999 87.34 250.567 87.652C250.143 87.964 249.547 88.12 248.779 88.12ZM252.079 88V86.512H253.555V88H252.079Z" fill="#301457"/>
</svg>
