<svg width="310" height="107" viewBox="0 0 310 107" fill="none" xmlns="http://www.w3.org/2000/svg">
<rect width="310" height="107" rx="18" fill="#E0E7FF"/>
<path d="M21 42.82H47V16.82H21V42.82Z" fill="black"/>
<path d="M59.893 39V37.29L67.607 26.289L68.272 27.277H60.121V25.32H70.077V27.03L62.439 37.936L61.793 37.043H70.191V39H59.893ZM75.8681 39.19C74.8421 39.19 73.9428 38.9747 73.1701 38.544C72.4101 38.1133 71.8148 37.518 71.3841 36.758C70.9661 35.998 70.7571 35.124 70.7571 34.136C70.7571 33.148 70.9661 32.2803 71.3841 31.533C71.8148 30.773 72.4101 30.184 73.1701 29.766C73.9301 29.3353 74.8168 29.12 75.8301 29.12C76.7928 29.12 77.6288 29.3227 78.3381 29.728C79.0475 30.1207 79.5985 30.678 79.9911 31.4C80.3838 32.122 80.5801 32.9643 80.5801 33.927C80.5801 34.1043 80.5738 34.269 80.5611 34.421C80.5485 34.573 80.5295 34.725 80.5041 34.877H72.2391V33.205H78.6611L78.1671 33.661C78.1671 32.749 77.9581 32.065 77.5401 31.609C77.1221 31.153 76.5395 30.925 75.7921 30.925C74.9815 30.925 74.3355 31.2037 73.8541 31.761C73.3855 32.3183 73.1511 33.1227 73.1511 34.174C73.1511 35.2127 73.3855 36.0107 73.8541 36.568C74.3355 37.1127 75.0131 37.385 75.8871 37.385C76.3938 37.385 76.8371 37.29 77.2171 37.1C77.5971 36.91 77.8758 36.6187 78.0531 36.226H80.3141C79.9975 37.138 79.4591 37.86 78.6991 38.392C77.9518 38.924 77.0081 39.19 75.8681 39.19ZM82.3716 39V29.31H84.7086V31.647H84.7656V39H82.3716ZM84.7656 33.946L84.5186 31.647C84.7466 30.8237 85.133 30.1967 85.6776 29.766C86.2223 29.3353 86.8746 29.12 87.6346 29.12C87.9006 29.12 88.0906 29.1453 88.2046 29.196V31.457C88.1413 31.4317 88.0526 31.419 87.9386 31.419C87.8246 31.4063 87.6853 31.4 87.5206 31.4C86.596 31.4 85.9056 31.6027 85.4496 32.008C84.9936 32.4133 84.7656 33.0593 84.7656 33.946ZM94.0902 39.19C93.0642 39.19 92.1585 38.9747 91.3732 38.544C90.6005 38.1133 89.9988 37.518 89.5682 36.758C89.1375 35.9853 88.9222 35.105 88.9222 34.117C88.9222 33.129 89.1375 32.2613 89.5682 31.514C89.9988 30.7667 90.6005 30.184 91.3732 29.766C92.1585 29.3353 93.0642 29.12 94.0902 29.12C95.1288 29.12 96.0345 29.3353 96.8072 29.766C97.5798 30.184 98.1815 30.7667 98.6122 31.514C99.0428 32.2613 99.2582 33.129 99.2582 34.117C99.2582 35.105 99.0365 35.9853 98.5932 36.758C98.1625 37.518 97.5608 38.1133 96.7882 38.544C96.0155 38.9747 95.1162 39.19 94.0902 39.19ZM94.0902 37.271C94.5968 37.271 95.0528 37.1443 95.4582 36.891C95.8635 36.625 96.1802 36.2577 96.4082 35.789C96.6362 35.3077 96.7502 34.744 96.7502 34.098C96.7502 33.148 96.4968 32.4007 95.9902 31.856C95.4962 31.3113 94.8628 31.039 94.0902 31.039C93.3175 31.039 92.6778 31.3113 92.1712 31.856C91.6645 32.4007 91.4112 33.148 91.4112 34.098C91.4112 34.744 91.5252 35.3077 91.7532 35.789C91.9938 36.2577 92.3105 36.625 92.7032 36.891C93.1085 37.1443 93.5708 37.271 94.0902 37.271ZM104.693 39V25.32H107.087V39H104.693ZM113.979 39.19C112.953 39.19 112.054 38.9747 111.281 38.544C110.521 38.1133 109.926 37.518 109.495 36.758C109.077 35.998 108.868 35.124 108.868 34.136C108.868 33.148 109.077 32.2803 109.495 31.533C109.926 30.773 110.521 30.184 111.281 29.766C112.041 29.3353 112.928 29.12 113.941 29.12C114.904 29.12 115.74 29.3227 116.449 29.728C117.159 30.1207 117.71 30.678 118.102 31.4C118.495 32.122 118.691 32.9643 118.691 33.927C118.691 34.1043 118.685 34.269 118.672 34.421C118.66 34.573 118.641 34.725 118.615 34.877H110.35V33.205H116.772L116.278 33.661C116.278 32.749 116.069 32.065 115.651 31.609C115.233 31.153 114.651 30.925 113.903 30.925C113.093 30.925 112.447 31.2037 111.965 31.761C111.497 32.3183 111.262 33.1227 111.262 34.174C111.262 35.2127 111.497 36.0107 111.965 36.568C112.447 37.1127 113.124 37.385 113.998 37.385C114.505 37.385 114.948 37.29 115.328 37.1C115.708 36.91 115.987 36.6187 116.164 36.226H118.425C118.109 37.138 117.57 37.86 116.81 38.392C116.063 38.924 115.119 39.19 113.979 39.19ZM126.377 39C126.313 38.7467 126.263 38.468 126.225 38.164C126.199 37.86 126.187 37.4927 126.187 37.062H126.111V32.464C126.111 31.9573 125.965 31.5773 125.674 31.324C125.395 31.058 124.964 30.925 124.382 30.925C123.812 30.925 123.356 31.0327 123.014 31.248C122.684 31.4507 122.482 31.7483 122.406 32.141H120.107C120.208 31.2417 120.639 30.5133 121.399 29.956C122.159 29.3987 123.178 29.12 124.458 29.12C125.788 29.12 126.795 29.424 127.479 30.032C128.163 30.6273 128.505 31.5077 128.505 32.673V37.062C128.505 37.366 128.524 37.6763 128.562 37.993C128.612 38.3097 128.682 38.6453 128.771 39H126.377ZM123.014 39.19C122.038 39.19 121.259 38.9493 120.677 38.468C120.107 37.974 119.822 37.3153 119.822 36.492C119.822 35.6053 120.145 34.9023 120.791 34.383C121.437 33.8637 122.349 33.5153 123.527 33.338L126.548 32.882V34.402L123.926 34.801C123.356 34.8897 122.925 35.048 122.634 35.276C122.355 35.504 122.216 35.8207 122.216 36.226C122.216 36.5933 122.349 36.8783 122.615 37.081C122.881 37.271 123.248 37.366 123.717 37.366C124.401 37.366 124.971 37.195 125.427 36.853C125.883 36.511 126.111 36.093 126.111 35.599L126.377 37.062C126.123 37.7587 125.705 38.2907 125.123 38.658C124.553 39.0127 123.85 39.19 123.014 39.19ZM130.929 39V29.31H133.266V31.647H133.323V39H130.929ZM133.323 33.946L133.076 31.647C133.304 30.8237 133.691 30.1967 134.235 29.766C134.78 29.3353 135.432 29.12 136.192 29.12C136.458 29.12 136.648 29.1453 136.762 29.196V31.457C136.699 31.4317 136.61 31.419 136.496 31.419C136.382 31.4063 136.243 31.4 136.078 31.4C135.154 31.4 134.463 31.6027 134.007 32.008C133.551 32.4133 133.323 33.0593 133.323 33.946ZM138.333 39V29.31H140.67V31.59H140.727V39H138.333ZM145.135 39V32.882C145.135 32.2867 144.983 31.837 144.679 31.533C144.375 31.229 143.931 31.077 143.349 31.077C142.842 31.077 142.386 31.191 141.981 31.419C141.588 31.647 141.278 31.9637 141.05 32.369C140.834 32.7743 140.727 33.243 140.727 33.775L140.48 31.457C140.809 30.7477 141.29 30.184 141.924 29.766C142.557 29.3353 143.317 29.12 144.204 29.12C145.255 29.12 146.072 29.4177 146.655 30.013C147.25 30.6083 147.548 31.4 147.548 32.388V39H145.135ZM149.892 39V29.31H152.286V39H149.892ZM149.778 27.714V25.073H152.381V27.714H149.778ZM154.828 39V29.31H157.165V31.59H157.222V39H154.828ZM161.63 39V32.882C161.63 32.2867 161.478 31.837 161.174 31.533C160.87 31.229 160.426 31.077 159.844 31.077C159.337 31.077 158.881 31.191 158.476 31.419C158.083 31.647 157.773 31.9637 157.545 32.369C157.329 32.7743 157.222 33.243 157.222 33.775L156.975 31.457C157.304 30.7477 157.785 30.184 158.419 29.766C159.052 29.3353 159.812 29.12 160.699 29.12C161.75 29.12 162.567 29.4177 163.15 30.013C163.745 30.6083 164.043 31.4 164.043 32.388V39H161.63ZM170.699 43.085C169.42 43.085 168.368 42.8063 167.545 42.249C166.734 41.6917 166.253 40.938 166.101 39.988H168.381C168.495 40.3173 168.742 40.5707 169.122 40.748C169.515 40.938 170.021 41.033 170.642 41.033C171.541 41.033 172.206 40.8303 172.637 40.425C173.068 40.0323 173.283 39.4307 173.283 38.62V36.53L173.454 36.568C173.302 37.2773 172.916 37.8473 172.295 38.278C171.674 38.696 170.914 38.905 170.015 38.905C169.154 38.905 168.4 38.7023 167.754 38.297C167.121 37.8917 166.627 37.328 166.272 36.606C165.917 35.8713 165.74 35.0163 165.74 34.041C165.74 33.053 165.924 32.1917 166.291 31.457C166.658 30.7223 167.171 30.1523 167.83 29.747C168.501 29.329 169.28 29.12 170.167 29.12C171.079 29.12 171.826 29.3417 172.409 29.785C173.004 30.2157 173.372 30.8173 173.511 31.59L173.359 31.609V29.31H175.696V38.601C175.696 39.9817 175.246 41.071 174.347 41.869C173.46 42.6797 172.244 43.085 170.699 43.085ZM170.794 37.005C171.567 37.005 172.181 36.7453 172.637 36.226C173.106 35.694 173.34 34.953 173.34 34.003C173.34 33.053 173.106 32.3183 172.637 31.799C172.168 31.2797 171.548 31.02 170.775 31.02C170.015 31.02 169.401 31.286 168.932 31.818C168.463 32.3373 168.229 33.072 168.229 34.022C168.229 34.972 168.463 35.7067 168.932 36.226C169.401 36.7453 170.021 37.005 170.794 37.005ZM186.117 39.19C185.141 39.19 184.28 38.9747 183.533 38.544C182.798 38.1133 182.215 37.518 181.785 36.758C181.367 35.9853 181.158 35.1113 181.158 34.136C181.158 33.1607 181.367 32.2993 181.785 31.552C182.215 30.792 182.798 30.1967 183.533 29.766C184.28 29.3353 185.141 29.12 186.117 29.12C186.915 29.12 187.637 29.272 188.283 29.576C188.929 29.8673 189.461 30.2853 189.879 30.83C190.297 31.362 190.563 31.9827 190.677 32.692H188.378C188.238 32.1727 187.972 31.7673 187.58 31.476C187.187 31.1847 186.712 31.039 186.155 31.039C185.635 31.039 185.186 31.1657 184.806 31.419C184.438 31.6723 184.153 32.0333 183.951 32.502C183.748 32.9707 183.647 33.5153 183.647 34.136C183.647 34.7693 183.748 35.3203 183.951 35.789C184.153 36.2577 184.445 36.625 184.825 36.891C185.205 37.1443 185.648 37.271 186.155 37.271C186.712 37.271 187.187 37.1253 187.58 36.834C187.972 36.5427 188.238 36.1373 188.378 35.618H190.677C190.563 36.3273 190.29 36.9543 189.86 37.499C189.442 38.031 188.91 38.449 188.264 38.753C187.63 39.0443 186.915 39.19 186.117 39.19ZM195.35 39.19C194.679 39.19 194.096 39.0507 193.602 38.772C193.121 38.4807 192.747 38.088 192.481 37.594C192.228 37.1 192.101 36.5427 192.101 35.922V29.31H194.495V35.428C194.495 36.0233 194.641 36.473 194.932 36.777C195.236 37.081 195.661 37.233 196.205 37.233C196.699 37.233 197.13 37.119 197.497 36.891C197.877 36.663 198.175 36.3463 198.39 35.941C198.618 35.523 198.732 35.0543 198.732 34.535L198.979 36.853C198.663 37.5623 198.188 38.1323 197.554 38.563C196.934 38.981 196.199 39.19 195.35 39.19ZM198.808 39V36.72H198.732V29.31H201.145V39H198.808ZM203.682 39V29.31H206.019V31.647H206.076V39H203.682ZM206.076 33.946L205.829 31.647C206.057 30.8237 206.444 30.1967 206.988 29.766C207.533 29.3353 208.185 29.12 208.945 29.12C209.211 29.12 209.401 29.1453 209.515 29.196V31.457C209.452 31.4317 209.363 31.419 209.249 31.419C209.135 31.4063 208.996 31.4 208.831 31.4C207.907 31.4 207.216 31.6027 206.76 32.008C206.304 32.4133 206.076 33.0593 206.076 33.946ZM214.025 39L210.149 29.31H212.733L215.83 38.221H214.557L217.654 29.31H220.162L216.267 39H214.025ZM225.586 39.19C224.56 39.19 223.661 38.9747 222.888 38.544C222.128 38.1133 221.533 37.518 221.102 36.758C220.684 35.998 220.475 35.124 220.475 34.136C220.475 33.148 220.684 32.2803 221.102 31.533C221.533 30.773 222.128 30.184 222.888 29.766C223.648 29.3353 224.535 29.12 225.548 29.12C226.511 29.12 227.347 29.3227 228.056 29.728C228.765 30.1207 229.316 30.678 229.709 31.4C230.102 32.122 230.298 32.9643 230.298 33.927C230.298 34.1043 230.292 34.269 230.279 34.421C230.266 34.573 230.247 34.725 230.222 34.877H221.957V33.205H228.379L227.885 33.661C227.885 32.749 227.676 32.065 227.258 31.609C226.84 31.153 226.257 30.925 225.51 30.925C224.699 30.925 224.053 31.2037 223.572 31.761C223.103 32.3183 222.869 33.1227 222.869 34.174C222.869 35.2127 223.103 36.0107 223.572 36.568C224.053 37.1127 224.731 37.385 225.605 37.385C226.112 37.385 226.555 37.29 226.935 37.1C227.315 36.91 227.594 36.6187 227.771 36.226H230.032C229.715 37.138 229.177 37.86 228.417 38.392C227.67 38.924 226.726 39.19 225.586 39.19ZM231.346 39V36.264H234.101V39H231.346Z" fill="#301457"/>
<path d="M24.492 73V69.232L21.24 64.36H22.776L25.524 68.656H24.864L27.612 64.36H29.016L25.764 69.232V73H24.492ZM31.583 73.12C30.959 73.12 30.411 72.984 29.939 72.712C29.467 72.432 29.099 72.052 28.835 71.572C28.571 71.084 28.439 70.532 28.439 69.916C28.439 69.292 28.571 68.744 28.835 68.272C29.107 67.8 29.475 67.432 29.939 67.168C30.411 66.896 30.959 66.76 31.583 66.76C32.215 66.76 32.767 66.896 33.239 67.168C33.711 67.432 34.075 67.8 34.331 68.272C34.595 68.744 34.727 69.292 34.727 69.916C34.727 70.532 34.595 71.084 34.331 71.572C34.075 72.052 33.711 72.432 33.239 72.712C32.767 72.984 32.215 73.12 31.583 73.12ZM31.583 72.1C31.959 72.1 32.283 72.008 32.555 71.824C32.835 71.64 33.055 71.384 33.215 71.056C33.375 70.728 33.455 70.344 33.455 69.904C33.455 69.248 33.279 68.732 32.927 68.356C32.583 67.972 32.135 67.78 31.583 67.78C31.039 67.78 30.591 67.972 30.239 68.356C29.895 68.74 29.723 69.256 29.723 69.904C29.723 70.344 29.799 70.728 29.951 71.056C30.111 71.384 30.331 71.64 30.611 71.824C30.899 72.008 31.223 72.1 31.583 72.1ZM38.0008 73.12C37.5928 73.12 37.2328 73.036 36.9208 72.868C36.6088 72.692 36.3648 72.452 36.1888 72.148C36.0208 71.844 35.9368 71.496 35.9368 71.104V66.88H37.1848V70.816C37.1848 71.24 37.2888 71.556 37.4968 71.764C37.7048 71.972 38.0008 72.076 38.3848 72.076C38.7288 72.076 39.0328 71.996 39.2968 71.836C39.5688 71.676 39.7808 71.456 39.9328 71.176C40.0928 70.888 40.1728 70.556 40.1728 70.18L40.3288 71.644C40.1288 72.092 39.8208 72.452 39.4048 72.724C38.9968 72.988 38.5288 73.12 38.0008 73.12ZM40.2208 73V71.56H40.1728V66.88H41.4088V73H40.2208ZM43.1573 73V66.88H44.3453V68.404H44.4053V73H43.1573ZM44.4053 69.808L44.2493 68.356C44.3933 67.836 44.6413 67.44 44.9933 67.168C45.3453 66.896 45.7653 66.76 46.2533 66.76C46.4373 66.76 46.5653 66.776 46.6373 66.808V67.984C46.5973 67.968 46.5413 67.96 46.4693 67.96C46.3973 67.952 46.3093 67.948 46.2053 67.948C45.6053 67.948 45.1533 68.104 44.8493 68.416C44.5533 68.728 44.4053 69.192 44.4053 69.808ZM52.6622 73.12C52.0782 73.12 51.5582 72.984 51.1022 72.712C50.6462 72.432 50.2862 72.052 50.0222 71.572C49.7662 71.092 49.6382 70.544 49.6382 69.928C49.6382 69.312 49.7662 68.768 50.0222 68.296C50.2862 67.816 50.6462 67.44 51.1022 67.168C51.5582 66.896 52.0742 66.76 52.6502 66.76C53.1382 66.76 53.5742 66.852 53.9582 67.036C54.3422 67.22 54.6582 67.476 54.9062 67.804C55.1542 68.132 55.3142 68.52 55.3862 68.968H54.2102C54.1302 68.608 53.9542 68.32 53.6822 68.104C53.4182 67.888 53.0822 67.78 52.6742 67.78C52.3222 67.78 52.0142 67.868 51.7502 68.044C51.4862 68.22 51.2822 68.468 51.1382 68.788C50.9942 69.108 50.9222 69.488 50.9222 69.928C50.9222 70.36 50.9942 70.74 51.1382 71.068C51.2822 71.396 51.4862 71.652 51.7502 71.836C52.0142 72.012 52.3262 72.1 52.6862 72.1C53.0782 72.1 53.4102 71.996 53.6822 71.788C53.9622 71.572 54.1422 71.284 54.2222 70.924H55.3982C55.3182 71.364 55.1502 71.748 54.8942 72.076C54.6462 72.404 54.3302 72.66 53.9462 72.844C53.5622 73.028 53.1342 73.12 52.6622 73.12ZM59.2744 73.12C58.6504 73.12 58.1024 72.984 57.6304 72.712C57.1584 72.432 56.7904 72.052 56.5264 71.572C56.2624 71.084 56.1304 70.532 56.1304 69.916C56.1304 69.292 56.2624 68.744 56.5264 68.272C56.7984 67.8 57.1664 67.432 57.6304 67.168C58.1024 66.896 58.6504 66.76 59.2744 66.76C59.9064 66.76 60.4584 66.896 60.9304 67.168C61.4024 67.432 61.7664 67.8 62.0224 68.272C62.2864 68.744 62.4184 69.292 62.4184 69.916C62.4184 70.532 62.2864 71.084 62.0224 71.572C61.7664 72.052 61.4024 72.432 60.9304 72.712C60.4584 72.984 59.9064 73.12 59.2744 73.12ZM59.2744 72.1C59.6504 72.1 59.9744 72.008 60.2464 71.824C60.5264 71.64 60.7464 71.384 60.9064 71.056C61.0664 70.728 61.1464 70.344 61.1464 69.904C61.1464 69.248 60.9704 68.732 60.6184 68.356C60.2744 67.972 59.8264 67.78 59.2744 67.78C58.7304 67.78 58.2824 67.972 57.9304 68.356C57.5864 68.74 57.4144 69.256 57.4144 69.904C57.4144 70.344 57.4904 70.728 57.6424 71.056C57.8024 71.384 58.0224 71.64 58.3024 71.824C58.5904 72.008 58.9144 72.1 59.2744 72.1ZM63.7002 73V66.88H64.8882V68.32H64.9482V73H63.7002ZM68.0442 73V69.064C68.0442 68.64 67.9362 68.324 67.7202 68.116C67.5122 67.908 67.2002 67.804 66.7842 67.804C66.4242 67.804 66.1042 67.884 65.8242 68.044C65.5522 68.204 65.3362 68.424 65.1762 68.704C65.0242 68.984 64.9482 69.316 64.9482 69.7L64.7922 68.236C64.9922 67.78 65.3002 67.42 65.7162 67.156C66.1322 66.892 66.6162 66.76 67.1682 66.76C67.8242 66.76 68.3402 66.944 68.7162 67.312C69.0922 67.68 69.2802 68.168 69.2802 68.776V73H68.0442ZM73.3823 73.12C72.6703 73.12 72.1463 72.956 71.8103 72.628C71.4823 72.292 71.3183 71.8 71.3183 71.152V65.476L72.5543 65.008V71.164C72.5543 71.484 72.6383 71.72 72.8063 71.872C72.9743 72.024 73.2463 72.1 73.6223 72.1C73.7663 72.1 73.8943 72.088 74.0063 72.064C74.1183 72.04 74.2143 72.012 74.2943 71.98V72.988C74.2063 73.028 74.0823 73.06 73.9223 73.084C73.7623 73.108 73.5823 73.12 73.3823 73.12ZM70.0943 67.876V66.88H74.2943V67.876H70.0943ZM75.4776 73V66.88H76.6656V68.404H76.7256V73H75.4776ZM76.7256 69.808L76.5696 68.356C76.7136 67.836 76.9616 67.44 77.3136 67.168C77.6656 66.896 78.0856 66.76 78.5736 66.76C78.7576 66.76 78.8856 66.776 78.9576 66.808V67.984C78.9176 67.968 78.8616 67.96 78.7896 67.96C78.7176 67.952 78.6296 67.948 78.5256 67.948C77.9256 67.948 77.4736 68.104 77.1696 68.416C76.8736 68.728 76.7256 69.192 76.7256 69.808ZM83.6758 73C83.6358 72.848 83.6078 72.68 83.5918 72.496C83.5838 72.312 83.5798 72.088 83.5798 71.824H83.5198V68.908C83.5198 68.516 83.4198 68.224 83.2198 68.032C83.0278 67.832 82.7198 67.732 82.2958 67.732C81.8878 67.732 81.5598 67.812 81.3118 67.972C81.0718 68.132 80.9318 68.36 80.8918 68.656H79.7038C79.7598 68.08 80.0198 67.62 80.4838 67.276C80.9478 66.932 81.5678 66.76 82.3438 66.76C83.1438 66.76 83.7438 66.948 84.1438 67.324C84.5438 67.692 84.7438 68.236 84.7438 68.956V71.824C84.7438 72.008 84.7558 72.196 84.7798 72.388C84.8038 72.58 84.8398 72.784 84.8878 73H83.6758ZM81.5638 73.12C80.9398 73.12 80.4438 72.968 80.0758 72.664C79.7078 72.352 79.5238 71.932 79.5238 71.404C79.5238 70.86 79.7158 70.432 80.0998 70.12C80.4918 69.8 81.0518 69.584 81.7798 69.472L83.7958 69.148V70.024L81.9718 70.312C81.5638 70.376 81.2558 70.484 81.0478 70.636C80.8478 70.788 80.7478 71.008 80.7478 71.296C80.7478 71.576 80.8398 71.788 81.0238 71.932C81.2158 72.068 81.4918 72.136 81.8518 72.136C82.3318 72.136 82.7278 72.02 83.0398 71.788C83.3598 71.556 83.5198 71.264 83.5198 70.912L83.6758 71.8C83.5318 72.224 83.2758 72.552 82.9078 72.784C82.5398 73.008 82.0918 73.12 81.5638 73.12ZM88.9317 73.12C88.3477 73.12 87.8277 72.984 87.3717 72.712C86.9157 72.432 86.5557 72.052 86.2917 71.572C86.0357 71.092 85.9077 70.544 85.9077 69.928C85.9077 69.312 86.0357 68.768 86.2917 68.296C86.5557 67.816 86.9157 67.44 87.3717 67.168C87.8277 66.896 88.3437 66.76 88.9197 66.76C89.4077 66.76 89.8437 66.852 90.2277 67.036C90.6117 67.22 90.9277 67.476 91.1757 67.804C91.4237 68.132 91.5837 68.52 91.6557 68.968H90.4797C90.3997 68.608 90.2237 68.32 89.9517 68.104C89.6877 67.888 89.3517 67.78 88.9437 67.78C88.5917 67.78 88.2837 67.868 88.0197 68.044C87.7557 68.22 87.5517 68.468 87.4077 68.788C87.2637 69.108 87.1917 69.488 87.1917 69.928C87.1917 70.36 87.2637 70.74 87.4077 71.068C87.5517 71.396 87.7557 71.652 88.0197 71.836C88.2837 72.012 88.5957 72.1 88.9557 72.1C89.3477 72.1 89.6797 71.996 89.9517 71.788C90.2317 71.572 90.4117 71.284 90.4917 70.924H91.6677C91.5877 71.364 91.4197 71.748 91.1637 72.076C90.9157 72.404 90.5997 72.66 90.2157 72.844C89.8317 73.028 89.4037 73.12 88.9317 73.12ZM95.4605 73.12C94.7485 73.12 94.2245 72.956 93.8885 72.628C93.5605 72.292 93.3965 71.8 93.3965 71.152V65.476L94.6325 65.008V71.164C94.6325 71.484 94.7165 71.72 94.8845 71.872C95.0525 72.024 95.3245 72.1 95.7005 72.1C95.8445 72.1 95.9725 72.088 96.0845 72.064C96.1965 72.04 96.2925 72.012 96.3725 71.98V72.988C96.2845 73.028 96.1605 73.06 96.0005 73.084C95.8405 73.108 95.6605 73.12 95.4605 73.12ZM92.1725 67.876V66.88H96.3725V67.876H92.1725ZM100.056 73.12C99.4316 73.12 98.8836 72.984 98.4116 72.712C97.9396 72.432 97.5716 72.052 97.3076 71.572C97.0436 71.084 96.9116 70.532 96.9116 69.916C96.9116 69.292 97.0436 68.744 97.3076 68.272C97.5796 67.8 97.9476 67.432 98.4116 67.168C98.8836 66.896 99.4316 66.76 100.056 66.76C100.688 66.76 101.24 66.896 101.712 67.168C102.184 67.432 102.548 67.8 102.804 68.272C103.068 68.744 103.2 69.292 103.2 69.916C103.2 70.532 103.068 71.084 102.804 71.572C102.548 72.052 102.184 72.432 101.712 72.712C101.24 72.984 100.688 73.12 100.056 73.12ZM100.056 72.1C100.432 72.1 100.756 72.008 101.028 71.824C101.308 71.64 101.528 71.384 101.688 71.056C101.848 70.728 101.928 70.344 101.928 69.904C101.928 69.248 101.752 68.732 101.4 68.356C101.056 67.972 100.608 67.78 100.056 67.78C99.5116 67.78 99.0636 67.972 98.7116 68.356C98.3676 68.74 98.1956 69.256 98.1956 69.904C98.1956 70.344 98.2716 70.728 98.4236 71.056C98.5836 71.384 98.8036 71.64 99.0836 71.824C99.3716 72.008 99.6956 72.1 100.056 72.1ZM104.481 73V66.88H105.669V68.404H105.729V73H104.481ZM105.729 69.808L105.573 68.356C105.717 67.836 105.965 67.44 106.317 67.168C106.669 66.896 107.089 66.76 107.577 66.76C107.761 66.76 107.889 66.776 107.961 66.808V67.984C107.921 67.968 107.865 67.96 107.793 67.96C107.721 67.952 107.633 67.948 107.529 67.948C106.929 67.948 106.477 68.104 106.173 68.416C105.877 68.728 105.729 69.192 105.729 69.808ZM111.143 73.12C110.343 73.12 109.707 72.944 109.235 72.592C108.763 72.24 108.495 71.744 108.431 71.104H109.583C109.639 71.456 109.799 71.728 110.063 71.92C110.335 72.104 110.703 72.196 111.167 72.196C111.575 72.196 111.887 72.124 112.103 71.98C112.319 71.836 112.427 71.632 112.427 71.368C112.427 71.176 112.363 71.016 112.235 70.888C112.115 70.752 111.875 70.64 111.515 70.552L110.531 70.324C109.915 70.172 109.455 69.948 109.151 69.652C108.855 69.348 108.707 68.976 108.707 68.536C108.707 67.984 108.911 67.552 109.319 67.24C109.735 66.92 110.303 66.76 111.023 66.76C111.735 66.76 112.307 66.92 112.739 67.24C113.179 67.56 113.427 68.008 113.483 68.584H112.331C112.283 68.296 112.143 68.076 111.911 67.924C111.687 67.764 111.379 67.684 110.987 67.684C110.619 67.684 110.335 67.752 110.135 67.888C109.943 68.016 109.847 68.196 109.847 68.428C109.847 68.62 109.919 68.78 110.063 68.908C110.215 69.036 110.463 69.144 110.807 69.232L111.815 69.484C112.399 69.628 112.839 69.864 113.135 70.192C113.431 70.512 113.579 70.9 113.579 71.356C113.579 71.908 113.363 72.34 112.931 72.652C112.507 72.964 111.911 73.12 111.143 73.12ZM120.895 73C120.855 72.848 120.827 72.68 120.811 72.496C120.803 72.312 120.799 72.088 120.799 71.824H120.739V68.908C120.739 68.516 120.639 68.224 120.439 68.032C120.247 67.832 119.939 67.732 119.515 67.732C119.107 67.732 118.779 67.812 118.531 67.972C118.291 68.132 118.151 68.36 118.111 68.656H116.923C116.979 68.08 117.239 67.62 117.703 67.276C118.167 66.932 118.787 66.76 119.563 66.76C120.363 66.76 120.963 66.948 121.363 67.324C121.763 67.692 121.963 68.236 121.963 68.956V71.824C121.963 72.008 121.975 72.196 121.999 72.388C122.023 72.58 122.059 72.784 122.107 73H120.895ZM118.783 73.12C118.159 73.12 117.663 72.968 117.295 72.664C116.927 72.352 116.743 71.932 116.743 71.404C116.743 70.86 116.935 70.432 117.319 70.12C117.711 69.8 118.271 69.584 118.999 69.472L121.015 69.148V70.024L119.191 70.312C118.783 70.376 118.475 70.484 118.267 70.636C118.067 70.788 117.967 71.008 117.967 71.296C117.967 71.576 118.059 71.788 118.243 71.932C118.435 72.068 118.711 72.136 119.071 72.136C119.551 72.136 119.947 72.02 120.259 71.788C120.579 71.556 120.739 71.264 120.739 70.912L120.895 71.8C120.751 72.224 120.495 72.552 120.127 72.784C119.759 73.008 119.311 73.12 118.783 73.12ZM123.653 73V64.36H124.901V73H123.653ZM126.653 73V66.88H127.841V68.404H127.901V73H126.653ZM127.901 69.808L127.745 68.356C127.889 67.836 128.137 67.44 128.489 67.168C128.841 66.896 129.261 66.76 129.749 66.76C129.933 66.76 130.061 66.776 130.133 66.808V67.984C130.093 67.968 130.037 67.96 129.965 67.96C129.893 67.952 129.805 67.948 129.701 67.948C129.101 67.948 128.649 68.104 128.345 68.416C128.049 68.728 127.901 69.192 127.901 69.808ZM133.711 73.12C133.095 73.12 132.551 72.984 132.079 72.712C131.615 72.44 131.251 72.064 130.987 71.584C130.723 71.104 130.591 70.552 130.591 69.928C130.591 69.296 130.719 68.744 130.975 68.272C131.239 67.792 131.607 67.42 132.079 67.156C132.551 66.892 133.091 66.76 133.699 66.76C134.291 66.76 134.803 66.888 135.235 67.144C135.675 67.392 136.011 67.74 136.243 68.188C136.483 68.636 136.603 69.168 136.603 69.784C136.603 69.88 136.599 69.972 136.591 70.06C136.591 70.14 136.583 70.224 136.567 70.312H131.431V69.376H135.691L135.379 69.748C135.379 69.092 135.231 68.592 134.935 68.248C134.639 67.904 134.227 67.732 133.699 67.732C133.131 67.732 132.679 67.928 132.343 68.32C132.015 68.704 131.851 69.24 131.851 69.928C131.851 70.624 132.015 71.168 132.343 71.56C132.679 71.952 133.143 72.148 133.735 72.148C134.095 72.148 134.407 72.076 134.671 71.932C134.935 71.78 135.131 71.56 135.259 71.272H136.435C136.235 71.848 135.895 72.3 135.415 72.628C134.943 72.956 134.375 73.12 133.711 73.12ZM141.602 73C141.562 72.848 141.534 72.68 141.518 72.496C141.51 72.312 141.506 72.088 141.506 71.824H141.446V68.908C141.446 68.516 141.346 68.224 141.146 68.032C140.954 67.832 140.646 67.732 140.222 67.732C139.814 67.732 139.486 67.812 139.238 67.972C138.998 68.132 138.858 68.36 138.818 68.656H137.63C137.686 68.08 137.946 67.62 138.41 67.276C138.874 66.932 139.494 66.76 140.27 66.76C141.07 66.76 141.67 66.948 142.07 67.324C142.47 67.692 142.67 68.236 142.67 68.956V71.824C142.67 72.008 142.682 72.196 142.706 72.388C142.73 72.58 142.766 72.784 142.814 73H141.602ZM139.49 73.12C138.866 73.12 138.37 72.968 138.002 72.664C137.634 72.352 137.45 71.932 137.45 71.404C137.45 70.86 137.642 70.432 138.026 70.12C138.418 69.8 138.978 69.584 139.706 69.472L141.722 69.148V70.024L139.898 70.312C139.49 70.376 139.182 70.484 138.974 70.636C138.774 70.788 138.674 71.008 138.674 71.296C138.674 71.576 138.766 71.788 138.95 71.932C139.142 72.068 139.418 72.136 139.778 72.136C140.258 72.136 140.654 72.02 140.966 71.788C141.286 71.556 141.446 71.264 141.446 70.912L141.602 71.8C141.458 72.224 141.202 72.552 140.834 72.784C140.466 73.008 140.018 73.12 139.49 73.12ZM148.73 73V71.596L148.85 71.632C148.722 72.088 148.458 72.452 148.058 72.724C147.658 72.988 147.178 73.12 146.618 73.12C146.066 73.12 145.582 72.988 145.166 72.724C144.758 72.46 144.438 72.092 144.206 71.62C143.982 71.148 143.87 70.596 143.87 69.964C143.87 69.324 143.986 68.764 144.218 68.284C144.45 67.804 144.774 67.432 145.19 67.168C145.606 66.904 146.094 66.772 146.654 66.772C147.238 66.772 147.718 66.912 148.094 67.192C148.478 67.464 148.73 67.848 148.85 68.344L148.682 68.368V64.36H149.918V73H148.73ZM146.93 72.076C147.482 72.076 147.918 71.888 148.238 71.512C148.558 71.128 148.718 70.6 148.718 69.928C148.718 69.272 148.554 68.756 148.226 68.38C147.906 67.996 147.47 67.804 146.918 67.804C146.374 67.804 145.942 67.996 145.622 68.38C145.31 68.756 145.154 69.284 145.154 69.964C145.154 70.628 145.31 71.148 145.622 71.524C145.942 71.892 146.378 72.076 146.93 72.076ZM152.129 75.46L153.605 72.088L153.857 71.692L155.717 66.88H157.013L153.413 75.46H152.129ZM153.545 73L150.929 66.88H152.285L154.505 72.388L153.545 73ZM160.403 73V64.204H161.651V73H160.403ZM164.375 73L161.363 69.82L164.279 66.88H165.851L162.539 70.096L162.599 69.532L165.971 73H164.375ZM166.954 73V66.88H168.142V68.32H168.202V73H166.954ZM171.298 73V69.064C171.298 68.64 171.19 68.324 170.974 68.116C170.766 67.908 170.454 67.804 170.038 67.804C169.678 67.804 169.358 67.884 169.078 68.044C168.806 68.204 168.59 68.424 168.43 68.704C168.278 68.984 168.202 69.316 168.202 69.7L168.046 68.236C168.246 67.78 168.554 67.42 168.97 67.156C169.386 66.892 169.87 66.76 170.422 66.76C171.078 66.76 171.594 66.944 171.97 67.312C172.346 67.68 172.534 68.168 172.534 68.776V73H171.298ZM176.895 73.12C176.271 73.12 175.723 72.984 175.251 72.712C174.779 72.432 174.411 72.052 174.147 71.572C173.883 71.084 173.751 70.532 173.751 69.916C173.751 69.292 173.883 68.744 174.147 68.272C174.419 67.8 174.787 67.432 175.251 67.168C175.723 66.896 176.271 66.76 176.895 66.76C177.527 66.76 178.079 66.896 178.551 67.168C179.023 67.432 179.387 67.8 179.643 68.272C179.907 68.744 180.039 69.292 180.039 69.916C180.039 70.532 179.907 71.084 179.643 71.572C179.387 72.052 179.023 72.432 178.551 72.712C178.079 72.984 177.527 73.12 176.895 73.12ZM176.895 72.1C177.271 72.1 177.595 72.008 177.867 71.824C178.147 71.64 178.367 71.384 178.527 71.056C178.687 70.728 178.767 70.344 178.767 69.904C178.767 69.248 178.591 68.732 178.239 68.356C177.895 67.972 177.447 67.78 176.895 67.78C176.351 67.78 175.903 67.972 175.551 68.356C175.207 68.74 175.035 69.256 175.035 69.904C175.035 70.344 175.111 70.728 175.263 71.056C175.423 71.384 175.643 71.64 175.923 71.824C176.211 72.008 176.535 72.1 176.895 72.1ZM182.452 73L180.58 66.88H181.864L183.136 71.8H182.956L184.504 66.88H185.584L187.132 71.8H186.964L188.224 66.88H189.448L187.576 73H186.484L184.936 68.164H185.116L183.544 73H182.452ZM192.958 73V64.36H194.206V73H192.958ZM197.302 73V69.064C197.302 68.64 197.194 68.324 196.978 68.116C196.77 67.908 196.458 67.804 196.042 67.804C195.682 67.804 195.362 67.884 195.082 68.044C194.81 68.204 194.594 68.424 194.434 68.704C194.282 68.984 194.206 69.316 194.206 69.7L194.05 68.236C194.25 67.78 194.558 67.42 194.974 67.156C195.39 66.892 195.874 66.76 196.426 66.76C197.082 66.76 197.598 66.944 197.974 67.312C198.35 67.68 198.538 68.168 198.538 68.776V73H197.302ZM202.899 73.12C202.275 73.12 201.727 72.984 201.255 72.712C200.783 72.432 200.415 72.052 200.151 71.572C199.887 71.084 199.755 70.532 199.755 69.916C199.755 69.292 199.887 68.744 200.151 68.272C200.423 67.8 200.791 67.432 201.255 67.168C201.727 66.896 202.275 66.76 202.899 66.76C203.531 66.76 204.083 66.896 204.555 67.168C205.027 67.432 205.391 67.8 205.647 68.272C205.911 68.744 206.043 69.292 206.043 69.916C206.043 70.532 205.911 71.084 205.647 71.572C205.391 72.052 205.027 72.432 204.555 72.712C204.083 72.984 203.531 73.12 202.899 73.12ZM202.899 72.1C203.275 72.1 203.599 72.008 203.871 71.824C204.151 71.64 204.371 71.384 204.531 71.056C204.691 70.728 204.771 70.344 204.771 69.904C204.771 69.248 204.595 68.732 204.243 68.356C203.899 67.972 203.451 67.78 202.899 67.78C202.355 67.78 201.907 67.972 201.555 68.356C201.211 68.74 201.039 69.256 201.039 69.904C201.039 70.344 201.115 70.728 201.267 71.056C201.427 71.384 201.647 71.64 201.927 71.824C202.215 72.008 202.539 72.1 202.899 72.1ZM208.456 73L206.584 66.88H207.868L209.14 71.8H208.96L210.508 66.88H211.588L213.136 71.8H212.968L214.228 66.88H215.452L213.58 73H212.488L210.94 68.164H211.12L209.548 73H208.456ZM221.566 73.12C220.854 73.12 220.33 72.956 219.994 72.628C219.666 72.292 219.502 71.8 219.502 71.152V65.476L220.738 65.008V71.164C220.738 71.484 220.822 71.72 220.99 71.872C221.158 72.024 221.43 72.1 221.806 72.1C221.95 72.1 222.078 72.088 222.19 72.064C222.302 72.04 222.398 72.012 222.478 71.98V72.988C222.39 73.028 222.266 73.06 222.106 73.084C221.946 73.108 221.766 73.12 221.566 73.12ZM218.278 67.876V66.88H222.478V67.876H218.278ZM226.161 73.12C225.537 73.12 224.989 72.984 224.517 72.712C224.045 72.432 223.677 72.052 223.413 71.572C223.149 71.084 223.017 70.532 223.017 69.916C223.017 69.292 223.149 68.744 223.413 68.272C223.685 67.8 224.053 67.432 224.517 67.168C224.989 66.896 225.537 66.76 226.161 66.76C226.793 66.76 227.345 66.896 227.817 67.168C228.289 67.432 228.653 67.8 228.909 68.272C229.173 68.744 229.305 69.292 229.305 69.916C229.305 70.532 229.173 71.084 228.909 71.572C228.653 72.052 228.289 72.432 227.817 72.712C227.345 72.984 226.793 73.12 226.161 73.12ZM226.161 72.1C226.537 72.1 226.861 72.008 227.133 71.824C227.413 71.64 227.633 71.384 227.793 71.056C227.953 70.728 228.033 70.344 228.033 69.904C228.033 69.248 227.857 68.732 227.505 68.356C227.161 67.972 226.713 67.78 226.161 67.78C225.617 67.78 225.169 67.972 224.817 68.356C224.473 68.74 224.301 69.256 224.301 69.904C224.301 70.344 224.377 70.728 224.529 71.056C224.689 71.384 224.909 71.64 225.189 71.824C225.477 72.008 225.801 72.1 226.161 72.1ZM234.946 73.12C234.538 73.12 234.178 73.036 233.866 72.868C233.554 72.692 233.31 72.452 233.134 72.148C232.966 71.844 232.882 71.496 232.882 71.104V66.88H234.13V70.816C234.13 71.24 234.234 71.556 234.442 71.764C234.65 71.972 234.946 72.076 235.33 72.076C235.674 72.076 235.978 71.996 236.242 71.836C236.514 71.676 236.726 71.456 236.878 71.176C237.038 70.888 237.118 70.556 237.118 70.18L237.274 71.644C237.074 72.092 236.766 72.452 236.35 72.724C235.942 72.988 235.474 73.12 234.946 73.12ZM237.166 73V71.56H237.118V66.88H238.354V73H237.166ZM242.264 73.12C241.464 73.12 240.828 72.944 240.356 72.592C239.884 72.24 239.616 71.744 239.552 71.104H240.704C240.76 71.456 240.92 71.728 241.184 71.92C241.456 72.104 241.824 72.196 242.288 72.196C242.696 72.196 243.008 72.124 243.224 71.98C243.44 71.836 243.548 71.632 243.548 71.368C243.548 71.176 243.484 71.016 243.356 70.888C243.236 70.752 242.996 70.64 242.636 70.552L241.652 70.324C241.036 70.172 240.576 69.948 240.272 69.652C239.976 69.348 239.828 68.976 239.828 68.536C239.828 67.984 240.032 67.552 240.44 67.24C240.856 66.92 241.424 66.76 242.144 66.76C242.856 66.76 243.428 66.92 243.86 67.24C244.3 67.56 244.548 68.008 244.604 68.584H243.452C243.404 68.296 243.264 68.076 243.032 67.924C242.808 67.764 242.5 67.684 242.108 67.684C241.74 67.684 241.456 67.752 241.256 67.888C241.064 68.016 240.968 68.196 240.968 68.428C240.968 68.62 241.04 68.78 241.184 68.908C241.336 69.036 241.584 69.144 241.928 69.232L242.936 69.484C243.52 69.628 243.96 69.864 244.256 70.192C244.552 70.512 244.7 70.9 244.7 71.356C244.7 71.908 244.484 72.34 244.052 72.652C243.628 72.964 243.032 73.12 242.264 73.12ZM248.707 73.12C248.091 73.12 247.547 72.984 247.075 72.712C246.611 72.44 246.247 72.064 245.983 71.584C245.719 71.104 245.587 70.552 245.587 69.928C245.587 69.296 245.715 68.744 245.971 68.272C246.235 67.792 246.603 67.42 247.075 67.156C247.547 66.892 248.087 66.76 248.695 66.76C249.287 66.76 249.799 66.888 250.231 67.144C250.671 67.392 251.007 67.74 251.239 68.188C251.479 68.636 251.599 69.168 251.599 69.784C251.599 69.88 251.595 69.972 251.587 70.06C251.587 70.14 251.579 70.224 251.563 70.312H246.427V69.376H250.687L250.375 69.748C250.375 69.092 250.227 68.592 249.931 68.248C249.635 67.904 249.223 67.732 248.695 67.732C248.127 67.732 247.675 67.928 247.339 68.32C247.011 68.704 246.847 69.24 246.847 69.928C246.847 70.624 247.011 71.168 247.339 71.56C247.675 71.952 248.139 72.148 248.731 72.148C249.091 72.148 249.403 72.076 249.667 71.932C249.931 71.78 250.127 71.56 250.255 71.272H251.431C251.231 71.848 250.891 72.3 250.411 72.628C249.939 72.956 249.371 73.12 248.707 73.12ZM255.243 73V66.88H256.491V73H255.243ZM255.183 65.68V64.276H256.563V65.68H255.183ZM260.8 73.12C260.088 73.12 259.564 72.956 259.228 72.628C258.9 72.292 258.736 71.8 258.736 71.152V65.476L259.972 65.008V71.164C259.972 71.484 260.056 71.72 260.224 71.872C260.392 72.024 260.664 72.1 261.04 72.1C261.184 72.1 261.312 72.088 261.424 72.064C261.536 72.04 261.632 72.012 261.712 71.98V72.988C261.624 73.028 261.5 73.06 261.34 73.084C261.18 73.108 261 73.12 260.8 73.12ZM257.512 67.876V66.88H261.712V67.876H257.512ZM262.707 73V71.512H264.183V73H262.707ZM21.888 88V79.36H23.16V88H21.888ZM27.5269 88.12C26.8149 88.12 26.2909 87.956 25.9549 87.628C25.6269 87.292 25.4629 86.8 25.4629 86.152V80.476L26.6989 80.008V86.164C26.6989 86.484 26.7829 86.72 26.9509 86.872C27.1189 87.024 27.3909 87.1 27.7669 87.1C27.9109 87.1 28.0389 87.088 28.1509 87.064C28.2629 87.04 28.3589 87.012 28.4389 86.98V87.988C28.3509 88.028 28.2269 88.06 28.0669 88.084C27.9069 88.108 27.7269 88.12 27.5269 88.12ZM24.2389 82.876V81.88H28.4389V82.876H24.2389ZM33.2493 88L31.3773 81.88H32.6613L33.9333 86.8H33.7533L35.3013 81.88H36.3813L37.9293 86.8H37.7613L39.0213 81.88H40.2453L38.3733 88H37.2813L35.7333 83.164H35.9133L34.3413 88H33.2493ZM43.9228 88.12C43.2988 88.12 42.7508 87.984 42.2788 87.712C41.8068 87.432 41.4388 87.052 41.1748 86.572C40.9108 86.084 40.7788 85.532 40.7788 84.916C40.7788 84.292 40.9108 83.744 41.1748 83.272C41.4468 82.8 41.8148 82.432 42.2788 82.168C42.7508 81.896 43.2988 81.76 43.9228 81.76C44.5548 81.76 45.1068 81.896 45.5788 82.168C46.0508 82.432 46.4148 82.8 46.6708 83.272C46.9348 83.744 47.0668 84.292 47.0668 84.916C47.0668 85.532 46.9348 86.084 46.6708 86.572C46.4148 87.052 46.0508 87.432 45.5788 87.712C45.1068 87.984 44.5548 88.12 43.9228 88.12ZM43.9228 87.1C44.2988 87.1 44.6228 87.008 44.8948 86.824C45.1748 86.64 45.3948 86.384 45.5548 86.056C45.7148 85.728 45.7948 85.344 45.7948 84.904C45.7948 84.248 45.6188 83.732 45.2668 83.356C44.9228 82.972 44.4748 82.78 43.9228 82.78C43.3788 82.78 42.9308 82.972 42.5788 83.356C42.2348 83.74 42.0628 84.256 42.0628 84.904C42.0628 85.344 42.1388 85.728 42.2908 86.056C42.4508 86.384 42.6708 86.64 42.9508 86.824C43.2388 87.008 43.5628 87.1 43.9228 87.1ZM48.3487 88V81.88H49.5367V83.404H49.5967V88H48.3487ZM49.5967 84.808L49.4407 83.356C49.5847 82.836 49.8327 82.44 50.1847 82.168C50.5367 81.896 50.9567 81.76 51.4447 81.76C51.6287 81.76 51.7567 81.776 51.8287 81.808V82.984C51.7887 82.968 51.7327 82.96 51.6607 82.96C51.5887 82.952 51.5007 82.948 51.3967 82.948C50.7967 82.948 50.3447 83.104 50.0407 83.416C49.7447 83.728 49.5967 84.192 49.5967 84.808ZM52.9424 88V79.204H54.1904V88H52.9424ZM56.9144 88L53.9024 84.82L56.8184 81.88H58.3904L55.0784 85.096L55.1384 84.532L58.5104 88H56.9144ZM61.4785 88.12C60.6785 88.12 60.0425 87.944 59.5705 87.592C59.0985 87.24 58.8305 86.744 58.7665 86.104H59.9185C59.9745 86.456 60.1345 86.728 60.3985 86.92C60.6705 87.104 61.0385 87.196 61.5025 87.196C61.9105 87.196 62.2225 87.124 62.4385 86.98C62.6545 86.836 62.7625 86.632 62.7625 86.368C62.7625 86.176 62.6985 86.016 62.5705 85.888C62.4505 85.752 62.2105 85.64 61.8505 85.552L60.8665 85.324C60.2505 85.172 59.7905 84.948 59.4865 84.652C59.1905 84.348 59.0425 83.976 59.0425 83.536C59.0425 82.984 59.2465 82.552 59.6545 82.24C60.0705 81.92 60.6385 81.76 61.3585 81.76C62.0705 81.76 62.6425 81.92 63.0745 82.24C63.5145 82.56 63.7625 83.008 63.8185 83.584H62.6665C62.6185 83.296 62.4785 83.076 62.2465 82.924C62.0225 82.764 61.7145 82.684 61.3225 82.684C60.9545 82.684 60.6705 82.752 60.4705 82.888C60.2785 83.016 60.1825 83.196 60.1825 83.428C60.1825 83.62 60.2545 83.78 60.3985 83.908C60.5505 84.036 60.7985 84.144 61.1425 84.232L62.1505 84.484C62.7345 84.628 63.1745 84.864 63.4705 85.192C63.7665 85.512 63.9145 85.9 63.9145 86.356C63.9145 86.908 63.6985 87.34 63.2665 87.652C62.8425 87.964 62.2465 88.12 61.4785 88.12ZM67.4385 88V79.36H68.6865V88H67.4385ZM70.4385 88V81.88H71.6865V88H70.4385ZM70.3785 80.68V79.276H71.7585V80.68H70.3785ZM73.4385 88V79.204H74.6865V88H73.4385ZM77.4105 88L74.3985 84.82L77.3145 81.88H78.8865L75.5745 85.096L75.6345 84.532L79.0065 88H77.4105ZM82.2426 88.12C81.6266 88.12 81.0826 87.984 80.6106 87.712C80.1466 87.44 79.7826 87.064 79.5186 86.584C79.2546 86.104 79.1226 85.552 79.1226 84.928C79.1226 84.296 79.2506 83.744 79.5066 83.272C79.7706 82.792 80.1386 82.42 80.6106 82.156C81.0826 81.892 81.6226 81.76 82.2306 81.76C82.8226 81.76 83.3346 81.888 83.7666 82.144C84.2066 82.392 84.5426 82.74 84.7746 83.188C85.0146 83.636 85.1346 84.168 85.1346 84.784C85.1346 84.88 85.1306 84.972 85.1226 85.06C85.1226 85.14 85.1146 85.224 85.0986 85.312H79.9626V84.376H84.2226L83.9106 84.748C83.9106 84.092 83.7626 83.592 83.4666 83.248C83.1706 82.904 82.7586 82.732 82.2306 82.732C81.6626 82.732 81.2106 82.928 80.8746 83.32C80.5466 83.704 80.3826 84.24 80.3826 84.928C80.3826 85.624 80.5466 86.168 80.8746 86.56C81.2106 86.952 81.6746 87.148 82.2666 87.148C82.6266 87.148 82.9386 87.076 83.2026 86.932C83.4666 86.78 83.6626 86.56 83.7906 86.272H84.9666C84.7666 86.848 84.4266 87.3 83.9466 87.628C83.4746 87.956 82.9066 88.12 82.2426 88.12ZM91.3823 88.12C90.6703 88.12 90.1463 87.956 89.8103 87.628C89.4823 87.292 89.3183 86.8 89.3183 86.152V80.476L90.5543 80.008V86.164C90.5543 86.484 90.6383 86.72 90.8063 86.872C90.9743 87.024 91.2463 87.1 91.6223 87.1C91.7663 87.1 91.8943 87.088 92.0063 87.064C92.1183 87.04 92.2143 87.012 92.2943 86.98V87.988C92.2063 88.028 92.0823 88.06 91.9223 88.084C91.7623 88.108 91.5823 88.12 91.3823 88.12ZM88.0943 82.876V81.88H92.2943V82.876H88.0943ZM95.9652 88.12C95.3492 88.12 94.8052 87.984 94.3332 87.712C93.8692 87.44 93.5052 87.064 93.2412 86.584C92.9772 86.104 92.8452 85.552 92.8452 84.928C92.8452 84.296 92.9732 83.744 93.2292 83.272C93.4932 82.792 93.8612 82.42 94.3332 82.156C94.8052 81.892 95.3452 81.76 95.9532 81.76C96.5452 81.76 97.0572 81.888 97.4892 82.144C97.9292 82.392 98.2652 82.74 98.4972 83.188C98.7372 83.636 98.8572 84.168 98.8572 84.784C98.8572 84.88 98.8532 84.972 98.8452 85.06C98.8452 85.14 98.8372 85.224 98.8212 85.312H93.6852V84.376H97.9452L97.6332 84.748C97.6332 84.092 97.4852 83.592 97.1892 83.248C96.8932 82.904 96.4812 82.732 95.9532 82.732C95.3852 82.732 94.9332 82.928 94.5972 83.32C94.2692 83.704 94.1052 84.24 94.1052 84.928C94.1052 85.624 94.2692 86.168 94.5972 86.56C94.9332 86.952 95.3972 87.148 95.9892 87.148C96.3492 87.148 96.6612 87.076 96.9252 86.932C97.1892 86.78 97.3852 86.56 97.5132 86.272H98.6892C98.4892 86.848 98.1492 87.3 97.6692 87.628C97.1972 87.956 96.6292 88.12 95.9652 88.12ZM103.865 88L101.909 85.204L99.4248 81.88H100.841L102.629 84.436L105.281 88H103.865ZM101.993 84.436L103.817 81.88H105.185L102.617 85.288L101.993 84.436ZM102.497 85.324L100.529 88H99.1488L101.897 84.448L102.497 85.324ZM109.101 88.12C108.389 88.12 107.865 87.956 107.529 87.628C107.201 87.292 107.037 86.8 107.037 86.152V80.476L108.273 80.008V86.164C108.273 86.484 108.357 86.72 108.525 86.872C108.693 87.024 108.965 87.1 109.341 87.1C109.485 87.1 109.613 87.088 109.725 87.064C109.837 87.04 109.933 87.012 110.013 86.98V87.988C109.925 88.028 109.801 88.06 109.641 88.084C109.481 88.108 109.301 88.12 109.101 88.12ZM105.813 82.876V81.88H110.013V82.876H105.813ZM111.173 88V81.88H112.421V88H111.173ZM111.113 80.68V79.276H112.493V80.68H111.113ZM114.173 88V81.88H115.361V83.32H115.421V88H114.173ZM118.517 88V84.064C118.517 83.64 118.409 83.324 118.193 83.116C117.985 82.908 117.673 82.804 117.257 82.804C116.897 82.804 116.577 82.884 116.297 83.044C116.025 83.204 115.809 83.424 115.649 83.704C115.497 83.984 115.421 84.316 115.421 84.7L115.265 83.236C115.465 82.78 115.773 82.42 116.189 82.156C116.605 81.892 117.089 81.76 117.641 81.76C118.297 81.76 118.813 81.944 119.189 82.312C119.565 82.68 119.753 83.168 119.753 83.776V88H118.517ZM124.007 90.58C123.239 90.58 122.603 90.404 122.099 90.052C121.603 89.708 121.303 89.248 121.199 88.672H122.375C122.455 88.936 122.631 89.144 122.903 89.296C123.183 89.448 123.555 89.524 124.019 89.524C124.619 89.524 125.067 89.376 125.363 89.08C125.659 88.784 125.807 88.344 125.807 87.76V86.44L125.915 86.464C125.795 86.928 125.535 87.296 125.135 87.568C124.735 87.832 124.255 87.964 123.695 87.964C123.159 87.964 122.687 87.836 122.279 87.58C121.871 87.324 121.555 86.968 121.331 86.512C121.107 86.048 120.995 85.508 120.995 84.892C120.995 84.268 121.111 83.72 121.343 83.248C121.575 82.776 121.899 82.412 122.315 82.156C122.739 81.9 123.231 81.772 123.791 81.772C124.367 81.772 124.843 81.912 125.219 82.192C125.603 82.464 125.847 82.852 125.951 83.356L125.855 83.368V81.88H127.043V87.748C127.043 88.628 126.771 89.32 126.227 89.824C125.691 90.328 124.951 90.58 124.007 90.58ZM124.067 86.956C124.603 86.956 125.031 86.768 125.351 86.392C125.679 86.016 125.843 85.5 125.843 84.844C125.843 84.204 125.679 83.7 125.351 83.332C125.031 82.964 124.599 82.78 124.055 82.78C123.511 82.78 123.079 82.968 122.759 83.344C122.439 83.712 122.279 84.224 122.279 84.88C122.279 85.52 122.439 86.028 122.759 86.404C123.087 86.772 123.523 86.956 124.067 86.956ZM128.774 88V86.512H130.25V88H128.774Z" fill="#301457"/>
</svg>
