<?xml version="1.0" encoding="UTF-8" standalone="no"?><!DOCTYPE svg PUBLIC "-//W3C//DTD SVG 1.1//EN" "http://www.w3.org/Graphics/SVG/1.1/DTD/svg11.dtd"><svg width="100%" height="100%" viewBox="0 0 16 16" version="1.1" xmlns="http://www.w3.org/2000/svg" xmlns:xlink="http://www.w3.org/1999/xlink" xml:space="preserve" xmlns:serif="http://www.serif.com/" style="fill-rule:evenodd;clip-rule:evenodd;stroke-linejoin:round;stroke-miterlimit:2;"><rect id="Artboard1" x="0" y="0" width="16" height="16" style="fill:none;"/><g><g><g><g><path d="M8.922,10.354l1.588,0.55c0.346,0.112 1.836,0.635 3.523,-0.495c0.411,-0.274 0.78,-0.674 1.039,-1.038c0.294,-0.413 0.54,-0.907 0.704,-1.462c0.33,-1.123 0.23,-2.214 0.011,-2.849c-0.403,-1.174 -1.356,-2.212 -2.577,-2.766c-1.351,-0.614 -2.386,-0.369 -2.59,-0.321c-1.424,0.338 -2.461,1.298 -2.983,2.424l-0.649,1.449l-0.607,1.598l1.574,0.656l1.223,-3.188c0.322,-0.763 0.928,-1.29 1.547,-1.555c0.104,-0.045 0.988,-0.486 2.209,0.098c1.033,0.494 1.61,1.402 1.763,1.946c0.054,0.193 0.276,0.989 -0.024,1.982c-0.471,1.564 -1.985,2.662 -3.57,2.025l-1.574,-0.652l-0.13,0.362l-0.477,1.236Z" style="fill:url(#_Linear1);"/><path d="M4.807,6.793c-1.589,-0.639 -3.048,0.336 -3.507,1.89c-0.317,1.075 -0.029,1.953 0.021,2.112c0.024,0.074 0.208,0.536 0.582,0.966c0.109,0.125 0.483,0.554 1.118,0.864c1.212,0.591 2.105,0.166 2.194,0.13c0.522,-0.213 1.171,-0.671 1.518,-1.477l1.222,-3.178l-1.574,-0.656l-0.587,1.678l-0.583,1.61c-0.277,0.718 -1.089,1.11 -1.897,0.706c-0.469,-0.235 -0.667,-0.591 -0.69,-0.632c-0.252,-0.437 -0.317,-0.987 -0.168,-1.48c0.256,-0.844 1.058,-1.273 1.797,-0.896l1.541,0.692l0.587,-1.678l-1.574,-0.651Z" style="fill:url(#_Linear2);"/><path d="M6.988,5.846l-1.588,-0.555c-0.379,-0.126 -1.866,-0.633 -3.484,0.406c-0.389,0.25 -0.745,0.623 -1.003,0.986c-0.286,0.401 -0.524,0.885 -0.681,1.431c-0.325,1.126 -0.217,2.218 -0.008,2.845c0.393,1.183 1.324,2.22 2.554,2.775c0.615,0.278 1.141,0.354 1.339,0.379c0.69,0.086 1.193,-0.043 1.318,-0.074c1.451,-0.36 2.386,-1.295 2.846,-2.271l0.641,-1.414l0.477,-1.236l0.13,-0.362l-1.574,-0.656l-1.222,3.178c-0.347,0.806 -0.995,1.264 -1.518,1.477c-0.089,0.036 -0.982,0.461 -2.194,-0.13c-1.049,-0.512 -1.594,-1.435 -1.736,-1.95c-0.051,-0.186 -0.277,-1.001 0.015,-1.992c0.459,-1.554 1.918,-2.529 3.507,-1.89l1.574,0.651l0.607,-1.598Z" style="fill:url(#_Linear3);"/><path d="M9.529,8.756l-1.574,-0.656l1.223,-3.188c0.322,-0.763 0.928,-1.29 1.547,-1.555c0.104,-0.045 0.988,-0.486 2.209,0.098c1.033,0.494 1.61,1.402 1.763,1.946c0.054,0.193 0.276,0.989 -0.024,1.982c-0.471,1.564 -1.985,2.662 -3.57,2.025l-1.574,-0.652l0.588,-1.678l1.54,0.684c0.743,0.364 1.562,-0.115 1.824,-0.969c0.149,-0.484 0.097,-1.028 -0.165,-1.469c-0.142,-0.238 -0.387,-0.472 -0.706,-0.622c-0.826,-0.389 -1.632,0.043 -1.91,0.766l-0.583,1.61l-0.588,1.678Z" style="fill:url(#_Linear4);"/></g></g></g></g><defs><linearGradient id="_Linear1" x1="0" y1="0" x2="1" y2="0" gradientUnits="userSpaceOnUse" gradientTransform="matrix(3.38434,1.35587,-1.35587,3.38434,7.97764,8.15463)"><stop offset="0" style="stop-color:#70a6fd;stop-opacity:1"/><stop offset="1" style="stop-color:#0041b8;stop-opacity:1"/></linearGradient><linearGradient id="_Linear2" x1="0" y1="0" x2="1" y2="0" gradientUnits="userSpaceOnUse" gradientTransform="matrix(2.05904,-5.32049,-5.32049,-2.05904,5.94423,13.3205)"><stop offset="0" style="stop-color:#324196;stop-opacity:1"/><stop offset="1" style="stop-color:#70a6fd;stop-opacity:1"/></linearGradient><linearGradient id="_Linear3" x1="0" y1="0" x2="1" y2="0" gradientUnits="userSpaceOnUse" gradientTransform="matrix(-2.52848,-0.976277,0.976277,-2.52848,8.00327,8)"><stop offset="0" style="stop-color:#491ae6;stop-opacity:1"/><stop offset="1" style="stop-color:#2c7cf9;stop-opacity:1"/></linearGradient><linearGradient id="_Linear4" x1="0" y1="0" x2="1" y2="0" gradientUnits="userSpaceOnUse" gradientTransform="matrix(3.94131,1.81016,-1.81016,3.94131,9.03348,8.39778)"><stop offset="0" style="stop-color:#491ae6;stop-opacity:1"/><stop offset="1" style="stop-color:#2c7cf9;stop-opacity:1"/></linearGradient></defs></svg>